<mxfile host="app.diagrams.net" modified="2024-01-04T05:48:00.453Z" agent="Mozilla/5.0 (Windows NT 10.0; Win64; x64) AppleWebKit/537.36 (KHTML, like Gecko) Chrome/120.0.0.0 Safari/537.36" etag="Jt_qL0j5pRI-QA8WIjSO" version="22.1.16" type="github">
  <diagram name="第 1 页" id="sj4xsaz33MOpHDal3Kfk">
    <mxGraphModel dx="2501" dy="746" grid="1" gridSize="10" guides="1" tooltips="1" connect="1" arrows="1" fold="1" page="1" pageScale="1" pageWidth="827" pageHeight="1169" math="0" shadow="0">
      <root>
        <mxCell id="0" />
        <mxCell id="1" parent="0" />
        <mxCell id="nyrZ7xyKviwGAj6536Cd-1" style="edgeStyle=orthogonalEdgeStyle;rounded=0;orthogonalLoop=1;jettySize=auto;html=1;exitX=1;exitY=0.5;exitDx=0;exitDy=0;" parent="1" source="F7nlX7lxKNdMln2TmzEk-2" edge="1">
          <mxGeometry relative="1" as="geometry">
            <mxPoint x="-710" y="240" as="targetPoint" />
          </mxGeometry>
        </mxCell>
        <mxCell id="F7nlX7lxKNdMln2TmzEk-2" value="开始" style="rounded=1;whiteSpace=wrap;html=1;" parent="1" vertex="1">
          <mxGeometry x="-820" y="210" width="70" height="60" as="geometry" />
        </mxCell>
        <mxCell id="F7nlX7lxKNdMln2TmzEk-7" value="&lt;div data-t=&quot;flow&quot; data-processon-v=&quot;{&amp;quot;list&amp;quot;:[{&amp;quot;parent&amp;quot;:&amp;quot;&amp;quot;,&amp;quot;link&amp;quot;:&amp;quot;&amp;quot;,&amp;quot;shapeStyle&amp;quot;:{&amp;quot;alpha&amp;quot;:1},&amp;quot;textBlock&amp;quot;:[{&amp;quot;position&amp;quot;:{&amp;quot;w&amp;quot;:&amp;quot;w&amp;quot;,&amp;quot;x&amp;quot;:0,&amp;quot;h&amp;quot;:&amp;quot;h&amp;quot;,&amp;quot;y&amp;quot;:0},&amp;quot;text&amp;quot;:&amp;quot;Y&amp;quot;}],&amp;quot;anchors&amp;quot;:[],&amp;quot;title&amp;quot;:&amp;quot;&amp;quot;,&amp;quot;fontStyle&amp;quot;:{},&amp;quot;dataAttributes&amp;quot;:[],&amp;quot;props&amp;quot;:{&amp;quot;zindex&amp;quot;:29,&amp;quot;w&amp;quot;:100,&amp;quot;x&amp;quot;:1274.3142765590123,&amp;quot;h&amp;quot;:40,&amp;quot;y&amp;quot;:277.41428266252785,&amp;quot;angle&amp;quot;:0},&amp;quot;path&amp;quot;:[{&amp;quot;lineStyle&amp;quot;:{&amp;quot;lineWidth&amp;quot;:0},&amp;quot;fillStyle&amp;quot;:{&amp;quot;type&amp;quot;:&amp;quot;none&amp;quot;},&amp;quot;actions&amp;quot;:[{&amp;quot;x&amp;quot;:&amp;quot;0&amp;quot;,&amp;quot;action&amp;quot;:&amp;quot;move&amp;quot;,&amp;quot;y&amp;quot;:&amp;quot;0&amp;quot;},{&amp;quot;x&amp;quot;:&amp;quot;w&amp;quot;,&amp;quot;action&amp;quot;:&amp;quot;line&amp;quot;,&amp;quot;y&amp;quot;:&amp;quot;0&amp;quot;},{&amp;quot;x&amp;quot;:&amp;quot;w&amp;quot;,&amp;quot;action&amp;quot;:&amp;quot;line&amp;quot;,&amp;quot;y&amp;quot;:&amp;quot;h&amp;quot;},{&amp;quot;x&amp;quot;:&amp;quot;0&amp;quot;,&amp;quot;action&amp;quot;:&amp;quot;line&amp;quot;,&amp;quot;y&amp;quot;:&amp;quot;h&amp;quot;},{&amp;quot;action&amp;quot;:&amp;quot;close&amp;quot;}]}],&amp;quot;lineStyle&amp;quot;:{},&amp;quot;children&amp;quot;:[],&amp;quot;resizeDir&amp;quot;:[&amp;quot;tl&amp;quot;,&amp;quot;tr&amp;quot;,&amp;quot;br&amp;quot;,&amp;quot;bl&amp;quot;,&amp;quot;l&amp;quot;,&amp;quot;t&amp;quot;,&amp;quot;r&amp;quot;,&amp;quot;b&amp;quot;],&amp;quot;name&amp;quot;:&amp;quot;standardText&amp;quot;,&amp;quot;fillStyle&amp;quot;:{},&amp;quot;theme&amp;quot;:{},&amp;quot;id&amp;quot;:&amp;quot;sfWnpLPilw455357&amp;quot;,&amp;quot;attribute&amp;quot;:{&amp;quot;container&amp;quot;:false,&amp;quot;rotatable&amp;quot;:true,&amp;quot;visible&amp;quot;:true,&amp;quot;fixedLink&amp;quot;:false,&amp;quot;collapsable&amp;quot;:false,&amp;quot;collapsed&amp;quot;:false,&amp;quot;linkable&amp;quot;:false,&amp;quot;markerOffset&amp;quot;:5},&amp;quot;category&amp;quot;:&amp;quot;standard&amp;quot;,&amp;quot;locked&amp;quot;:false,&amp;quot;group&amp;quot;:&amp;quot;&amp;quot;},{&amp;quot;parent&amp;quot;:&amp;quot;&amp;quot;,&amp;quot;link&amp;quot;:&amp;quot;&amp;quot;,&amp;quot;shapeStyle&amp;quot;:{&amp;quot;alpha&amp;quot;:1},&amp;quot;textBlock&amp;quot;:[{&amp;quot;position&amp;quot;:{&amp;quot;w&amp;quot;:&amp;quot;w-20&amp;quot;,&amp;quot;x&amp;quot;:&amp;quot;10&amp;quot;,&amp;quot;h&amp;quot;:&amp;quot;h*0.75&amp;quot;,&amp;quot;y&amp;quot;:&amp;quot;h*0.13&amp;quot;},&amp;quot;text&amp;quot;:&amp;quot;存在study_uid 和series&amp;quot;}],&amp;quot;anchors&amp;quot;:[{&amp;quot;x&amp;quot;:&amp;quot;0&amp;quot;,&amp;quot;y&amp;quot;:&amp;quot;h/2&amp;quot;},{&amp;quot;x&amp;quot;:&amp;quot;w/2&amp;quot;,&amp;quot;y&amp;quot;:&amp;quot;0&amp;quot;},{&amp;quot;x&amp;quot;:&amp;quot;w&amp;quot;,&amp;quot;y&amp;quot;:&amp;quot;h/2&amp;quot;},{&amp;quot;x&amp;quot;:&amp;quot;w/2&amp;quot;,&amp;quot;y&amp;quot;:&amp;quot;h&amp;quot;}],&amp;quot;title&amp;quot;:&amp;quot;菱形&amp;quot;,&amp;quot;fontStyle&amp;quot;:{},&amp;quot;dataAttributes&amp;quot;:[{&amp;quot;name&amp;quot;:&amp;quot;序号&amp;quot;,&amp;quot;id&amp;quot;:&amp;quot;AvJsroGiKy774001&amp;quot;,&amp;quot;type&amp;quot;:&amp;quot;number&amp;quot;,&amp;quot;category&amp;quot;:&amp;quot;default&amp;quot;,&amp;quot;value&amp;quot;:&amp;quot;&amp;quot;},{&amp;quot;name&amp;quot;:&amp;quot;名称&amp;quot;,&amp;quot;id&amp;quot;:&amp;quot;UftsTLvCtB818761&amp;quot;,&amp;quot;type&amp;quot;:&amp;quot;string&amp;quot;,&amp;quot;category&amp;quot;:&amp;quot;default&amp;quot;,&amp;quot;value&amp;quot;:&amp;quot;&amp;quot;},{&amp;quot;name&amp;quot;:&amp;quot;所有者&amp;quot;,&amp;quot;id&amp;quot;:&amp;quot;gswQJcNARp054666&amp;quot;,&amp;quot;type&amp;quot;:&amp;quot;string&amp;quot;,&amp;quot;category&amp;quot;:&amp;quot;default&amp;quot;,&amp;quot;value&amp;quot;:&amp;quot;&amp;quot;},{&amp;quot;name&amp;quot;:&amp;quot;连接&amp;quot;,&amp;quot;id&amp;quot;:&amp;quot;eXbFpUEDes665710&amp;quot;,&amp;quot;type&amp;quot;:&amp;quot;link&amp;quot;,&amp;quot;category&amp;quot;:&amp;quot;default&amp;quot;,&amp;quot;value&amp;quot;:&amp;quot;&amp;quot;},{&amp;quot;name&amp;quot;:&amp;quot;便笺&amp;quot;,&amp;quot;id&amp;quot;:&amp;quot;yHxXOwDcpC741806&amp;quot;,&amp;quot;type&amp;quot;:&amp;quot;string&amp;quot;,&amp;quot;category&amp;quot;:&amp;quot;default&amp;quot;,&amp;quot;value&amp;quot;:&amp;quot;&amp;quot;}],&amp;quot;props&amp;quot;:{&amp;quot;zindex&amp;quot;:45,&amp;quot;w&amp;quot;:96,&amp;quot;x&amp;quot;:1333.914267403739,&amp;quot;h&amp;quot;:70,&amp;quot;y&amp;quot;:281.41428266252785,&amp;quot;angle&amp;quot;:0},&amp;quot;path&amp;quot;:[{&amp;quot;actions&amp;quot;:[{&amp;quot;x&amp;quot;:&amp;quot;0&amp;quot;,&amp;quot;action&amp;quot;:&amp;quot;move&amp;quot;,&amp;quot;y&amp;quot;:&amp;quot;h/2&amp;quot;},{&amp;quot;x&amp;quot;:&amp;quot;w/2&amp;quot;,&amp;quot;action&amp;quot;:&amp;quot;line&amp;quot;,&amp;quot;y&amp;quot;:&amp;quot;0&amp;quot;},{&amp;quot;x&amp;quot;:&amp;quot;w&amp;quot;,&amp;quot;action&amp;quot;:&amp;quot;line&amp;quot;,&amp;quot;y&amp;quot;:&amp;quot;h/2&amp;quot;},{&amp;quot;x&amp;quot;:&amp;quot;w/2&amp;quot;,&amp;quot;action&amp;quot;:&amp;quot;line&amp;quot;,&amp;quot;y&amp;quot;:&amp;quot;h&amp;quot;},{&amp;quot;action&amp;quot;:&amp;quot;close&amp;quot;}]}],&amp;quot;lineStyle&amp;quot;:{&amp;quot;lineWidth&amp;quot;:1.5},&amp;quot;children&amp;quot;:[],&amp;quot;resizeDir&amp;quot;:[&amp;quot;tl&amp;quot;,&amp;quot;tr&amp;quot;,&amp;quot;br&amp;quot;,&amp;quot;bl&amp;quot;,&amp;quot;l&amp;quot;,&amp;quot;t&amp;quot;,&amp;quot;r&amp;quot;,&amp;quot;b&amp;quot;],&amp;quot;name&amp;quot;:&amp;quot;diamond&amp;quot;,&amp;quot;fillStyle&amp;quot;:{},&amp;quot;theme&amp;quot;:{},&amp;quot;id&amp;quot;:&amp;quot;gdxwHSzoVa381534&amp;quot;,&amp;quot;attribute&amp;quot;:{&amp;quot;container&amp;quot;:false,&amp;quot;rotatable&amp;quot;:true,&amp;quot;visible&amp;quot;:true,&amp;quot;fixedLink&amp;quot;:false,&amp;quot;collapsable&amp;quot;:false,&amp;quot;collapsed&amp;quot;:false,&amp;quot;linkable&amp;quot;:true,&amp;quot;markerOffset&amp;quot;:5},&amp;quot;category&amp;quot;:&amp;quot;basic&amp;quot;,&amp;quot;locked&amp;quot;:false,&amp;quot;group&amp;quot;:&amp;quot;&amp;quot;},{&amp;quot;textBlock&amp;quot;:[],&amp;quot;points&amp;quot;:[{&amp;quot;x&amp;quot;:1381.914267403739,&amp;quot;y&amp;quot;:361.91428266252785},{&amp;quot;x&amp;quot;:1381.914267403739,&amp;quot;y&amp;quot;:361.91428266252785}],&amp;quot;dataAttributes&amp;quot;:[],&amp;quot;props&amp;quot;:{&amp;quot;zindex&amp;quot;:46},&amp;quot;linkerType&amp;quot;:&amp;quot;broken&amp;quot;,&amp;quot;lineStyle&amp;quot;:{&amp;quot;lineWidth&amp;quot;:1.5},&amp;quot;name&amp;quot;:&amp;quot;linker&amp;quot;,&amp;quot;from&amp;quot;:{&amp;quot;x&amp;quot;:1381.914267403739,&amp;quot;y&amp;quot;:351.41428266252785,&amp;quot;angle&amp;quot;:4.433136300065597,&amp;quot;id&amp;quot;:&amp;quot;gdxwHSzoVa381534&amp;quot;},&amp;quot;id&amp;quot;:&amp;quot;FADFrsRUTM586054&amp;quot;,&amp;quot;text&amp;quot;:&amp;quot;&amp;quot;,&amp;quot;to&amp;quot;:{&amp;quot;x&amp;quot;:1381.914267403739,&amp;quot;y&amp;quot;:372.41428266252785,&amp;quot;angle&amp;quot;:1.5707963267948963,&amp;quot;id&amp;quot;:&amp;quot;uvvESFXttR432838&amp;quot;},&amp;quot;locked&amp;quot;:false,&amp;quot;group&amp;quot;:&amp;quot;&amp;quot;},{&amp;quot;parent&amp;quot;:&amp;quot;&amp;quot;,&amp;quot;link&amp;quot;:&amp;quot;&amp;quot;,&amp;quot;shapeStyle&amp;quot;:{&amp;quot;alpha&amp;quot;:1},&amp;quot;textBlock&amp;quot;:[{&amp;quot;position&amp;quot;:{&amp;quot;w&amp;quot;:&amp;quot;w-20&amp;quot;,&amp;quot;x&amp;quot;:10,&amp;quot;h&amp;quot;:&amp;quot;h&amp;quot;,&amp;quot;y&amp;quot;:0},&amp;quot;text&amp;quot;:&amp;quot;结束&amp;quot;}],&amp;quot;anchors&amp;quot;:[{&amp;quot;x&amp;quot;:&amp;quot;w/2&amp;quot;,&amp;quot;y&amp;quot;:&amp;quot;0&amp;quot;},{&amp;quot;x&amp;quot;:&amp;quot;w/2&amp;quot;,&amp;quot;y&amp;quot;:&amp;quot;h&amp;quot;},{&amp;quot;x&amp;quot;:&amp;quot;0&amp;quot;,&amp;quot;y&amp;quot;:&amp;quot;h/2&amp;quot;},{&amp;quot;x&amp;quot;:&amp;quot;w&amp;quot;,&amp;quot;y&amp;quot;:&amp;quot;h/2&amp;quot;}],&amp;quot;title&amp;quot;:&amp;quot;矩形&amp;quot;,&amp;quot;fontStyle&amp;quot;:{},&amp;quot;dataAttributes&amp;quot;:[{&amp;quot;name&amp;quot;:&amp;quot;序号&amp;quot;,&amp;quot;id&amp;quot;:&amp;quot;DMKNQeouyB581725&amp;quot;,&amp;quot;type&amp;quot;:&amp;quot;number&amp;quot;,&amp;quot;category&amp;quot;:&amp;quot;default&amp;quot;,&amp;quot;value&amp;quot;:&amp;quot;&amp;quot;},{&amp;quot;name&amp;quot;:&amp;quot;名称&amp;quot;,&amp;quot;id&amp;quot;:&amp;quot;hbFauzAANW010084&amp;quot;,&amp;quot;type&amp;quot;:&amp;quot;string&amp;quot;,&amp;quot;category&amp;quot;:&amp;quot;default&amp;quot;,&amp;quot;value&amp;quot;:&amp;quot;&amp;quot;},{&amp;quot;name&amp;quot;:&amp;quot;所有者&amp;quot;,&amp;quot;id&amp;quot;:&amp;quot;tuqwuQiYFK237246&amp;quot;,&amp;quot;type&amp;quot;:&amp;quot;string&amp;quot;,&amp;quot;category&amp;quot;:&amp;quot;default&amp;quot;,&amp;quot;value&amp;quot;:&amp;quot;&amp;quot;},{&amp;quot;name&amp;quot;:&amp;quot;连接&amp;quot;,&amp;quot;id&amp;quot;:&amp;quot;csFpKOaVVN569283&amp;quot;,&amp;quot;type&amp;quot;:&amp;quot;link&amp;quot;,&amp;quot;category&amp;quot;:&amp;quot;default&amp;quot;,&amp;quot;value&amp;quot;:&amp;quot;&amp;quot;},{&amp;quot;name&amp;quot;:&amp;quot;便笺&amp;quot;,&amp;quot;id&amp;quot;:&amp;quot;qJiRdrPHbT757379&amp;quot;,&amp;quot;type&amp;quot;:&amp;quot;string&amp;quot;,&amp;quot;category&amp;quot;:&amp;quot;default&amp;quot;,&amp;quot;value&amp;quot;:&amp;quot;&amp;quot;}],&amp;quot;props&amp;quot;:{&amp;quot;zindex&amp;quot;:47,&amp;quot;w&amp;quot;:96,&amp;quot;x&amp;quot;:1333.914267403739,&amp;quot;h&amp;quot;:54,&amp;quot;y&amp;quot;:372.41428266252785,&amp;quot;angle&amp;quot;:0},&amp;quot;path&amp;quot;:[{&amp;quot;actions&amp;quot;:[{&amp;quot;x&amp;quot;:&amp;quot;0&amp;quot;,&amp;quot;action&amp;quot;:&amp;quot;move&amp;quot;,&amp;quot;y&amp;quot;:&amp;quot;0&amp;quot;},{&amp;quot;x&amp;quot;:&amp;quot;w&amp;quot;,&amp;quot;action&amp;quot;:&amp;quot;line&amp;quot;,&amp;quot;y&amp;quot;:&amp;quot;0&amp;quot;},{&amp;quot;x&amp;quot;:&amp;quot;w&amp;quot;,&amp;quot;action&amp;quot;:&amp;quot;line&amp;quot;,&amp;quot;y&amp;quot;:&amp;quot;h&amp;quot;},{&amp;quot;x&amp;quot;:&amp;quot;0&amp;quot;,&amp;quot;action&amp;quot;:&amp;quot;line&amp;quot;,&amp;quot;y&amp;quot;:&amp;quot;h&amp;quot;},{&amp;quot;action&amp;quot;:&amp;quot;close&amp;quot;}]}],&amp;quot;lineStyle&amp;quot;:{&amp;quot;lineWidth&amp;quot;:1.5},&amp;quot;children&amp;quot;:[],&amp;quot;resizeDir&amp;quot;:[&amp;quot;tl&amp;quot;,&amp;quot;tr&amp;quot;,&amp;quot;br&amp;quot;,&amp;quot;bl&amp;quot;,&amp;quot;l&amp;quot;,&amp;quot;t&amp;quot;,&amp;quot;r&amp;quot;,&amp;quot;b&amp;quot;],&amp;quot;name&amp;quot;:&amp;quot;rectangle&amp;quot;,&amp;quot;fillStyle&amp;quot;:{},&amp;quot;theme&amp;quot;:{},&amp;quot;id&amp;quot;:&amp;quot;uvvESFXttR432838&amp;quot;,&amp;quot;attribute&amp;quot;:{&amp;quot;container&amp;quot;:false,&amp;quot;rotatable&amp;quot;:true,&amp;quot;visible&amp;quot;:true,&amp;quot;fixedLink&amp;quot;:false,&amp;quot;collapsable&amp;quot;:false,&amp;quot;collapsed&amp;quot;:false,&amp;quot;linkable&amp;quot;:true,&amp;quot;markerOffset&amp;quot;:5},&amp;quot;category&amp;quot;:&amp;quot;basic&amp;quot;,&amp;quot;locked&amp;quot;:false,&amp;quot;group&amp;quot;:&amp;quot;&amp;quot;},{&amp;quot;textBlock&amp;quot;:[],&amp;quot;points&amp;quot;:[{&amp;quot;x&amp;quot;:1324.414267403739,&amp;quot;y&amp;quot;:316.41428266252785},{&amp;quot;x&amp;quot;:1324.414267403739,&amp;quot;y&amp;quot;:316.41428266252785}],&amp;quot;dataAttributes&amp;quot;:[],&amp;quot;props&amp;quot;:{&amp;quot;zindex&amp;quot;:50},&amp;quot;linkerType&amp;quot;:&amp;quot;broken&amp;quot;,&amp;quot;lineStyle&amp;quot;:{&amp;quot;lineWidth&amp;quot;:1.5},&amp;quot;name&amp;quot;:&amp;quot;linker&amp;quot;,&amp;quot;from&amp;quot;:{&amp;quot;x&amp;quot;:1333.914267403739,&amp;quot;y&amp;quot;:316.41428266252785,&amp;quot;angle&amp;quot;:5.742133239061344,&amp;quot;id&amp;quot;:&amp;quot;gdxwHSzoVa381534&amp;quot;},&amp;quot;id&amp;quot;:&amp;quot;fPnHlRJkkO450303&amp;quot;,&amp;quot;text&amp;quot;:&amp;quot;&amp;quot;,&amp;quot;to&amp;quot;:{&amp;quot;x&amp;quot;:1314.914267403739,&amp;quot;y&amp;quot;:316.41428266252785,&amp;quot;angle&amp;quot;:3.4906585039886595,&amp;quot;id&amp;quot;:&amp;quot;ncwymHpUft032778&amp;quot;},&amp;quot;locked&amp;quot;:false,&amp;quot;group&amp;quot;:&amp;quot;&amp;quot;},{&amp;quot;parent&amp;quot;:&amp;quot;&amp;quot;,&amp;quot;link&amp;quot;:&amp;quot;&amp;quot;,&amp;quot;shapeStyle&amp;quot;:{&amp;quot;alpha&amp;quot;:1},&amp;quot;textBlock&amp;quot;:[{&amp;quot;position&amp;quot;:{&amp;quot;w&amp;quot;:&amp;quot;w-20&amp;quot;,&amp;quot;x&amp;quot;:10,&amp;quot;h&amp;quot;:&amp;quot;h&amp;quot;,&amp;quot;y&amp;quot;:0},&amp;quot;text&amp;quot;:&amp;quot;指定文件夹中文件名是否为.dcm&amp;quot;}],&amp;quot;anchors&amp;quot;:[{&amp;quot;x&amp;quot;:&amp;quot;w/2&amp;quot;,&amp;quot;y&amp;quot;:&amp;quot;0&amp;quot;},{&amp;quot;x&amp;quot;:&amp;quot;w/2&amp;quot;,&amp;quot;y&amp;quot;:&amp;quot;h&amp;quot;},{&amp;quot;x&amp;quot;:&amp;quot;0&amp;quot;,&amp;quot;y&amp;quot;:&amp;quot;h/2&amp;quot;},{&amp;quot;x&amp;quot;:&amp;quot;w&amp;quot;,&amp;quot;y&amp;quot;:&amp;quot;h/2&amp;quot;}],&amp;quot;title&amp;quot;:&amp;quot;判定&amp;quot;,&amp;quot;fontStyle&amp;quot;:{},&amp;quot;dataAttributes&amp;quot;:[{&amp;quot;name&amp;quot;:&amp;quot;序号&amp;quot;,&amp;quot;id&amp;quot;:&amp;quot;VRkYwZgbZo656516&amp;quot;,&amp;quot;type&amp;quot;:&amp;quot;number&amp;quot;,&amp;quot;category&amp;quot;:&amp;quot;default&amp;quot;,&amp;quot;value&amp;quot;:&amp;quot;&amp;quot;},{&amp;quot;name&amp;quot;:&amp;quot;名称&amp;quot;,&amp;quot;id&amp;quot;:&amp;quot;ANvAshDiae009873&amp;quot;,&amp;quot;type&amp;quot;:&amp;quot;string&amp;quot;,&amp;quot;category&amp;quot;:&amp;quot;default&amp;quot;,&amp;quot;value&amp;quot;:&amp;quot;&amp;quot;},{&amp;quot;name&amp;quot;:&amp;quot;所有者&amp;quot;,&amp;quot;id&amp;quot;:&amp;quot;RTHhOkggDc818367&amp;quot;,&amp;quot;type&amp;quot;:&amp;quot;string&amp;quot;,&amp;quot;category&amp;quot;:&amp;quot;default&amp;quot;,&amp;quot;value&amp;quot;:&amp;quot;&amp;quot;},{&amp;quot;name&amp;quot;:&amp;quot;连接&amp;quot;,&amp;quot;id&amp;quot;:&amp;quot;DFdCEAdude259506&amp;quot;,&amp;quot;type&amp;quot;:&amp;quot;link&amp;quot;,&amp;quot;category&amp;quot;:&amp;quot;default&amp;quot;,&amp;quot;value&amp;quot;:&amp;quot;&amp;quot;},{&amp;quot;name&amp;quot;:&amp;quot;便笺&amp;quot;,&amp;quot;id&amp;quot;:&amp;quot;HaBDbxNEmO596399&amp;quot;,&amp;quot;type&amp;quot;:&amp;quot;string&amp;quot;,&amp;quot;category&amp;quot;:&amp;quot;default&amp;quot;,&amp;quot;value&amp;quot;:&amp;quot;&amp;quot;},{&amp;quot;name&amp;quot;:&amp;quot;成本&amp;quot;,&amp;quot;id&amp;quot;:&amp;quot;OsQIRTXerZ133551&amp;quot;,&amp;quot;type&amp;quot;:&amp;quot;number&amp;quot;,&amp;quot;category&amp;quot;:&amp;quot;default&amp;quot;,&amp;quot;value&amp;quot;:&amp;quot;&amp;quot;},{&amp;quot;name&amp;quot;:&amp;quot;时间&amp;quot;,&amp;quot;id&amp;quot;:&amp;quot;OugFusuUQi741643&amp;quot;,&amp;quot;type&amp;quot;:&amp;quot;number&amp;quot;,&amp;quot;category&amp;quot;:&amp;quot;default&amp;quot;,&amp;quot;value&amp;quot;:&amp;quot;&amp;quot;},{&amp;quot;name&amp;quot;:&amp;quot;部门&amp;quot;,&amp;quot;id&amp;quot;:&amp;quot;FTQOaVVydb527621&amp;quot;,&amp;quot;type&amp;quot;:&amp;quot;string&amp;quot;,&amp;quot;category&amp;quot;:&amp;quot;default&amp;quot;,&amp;quot;value&amp;quot;:&amp;quot;&amp;quot;},{&amp;quot;name&amp;quot;:&amp;quot;输入&amp;quot;,&amp;quot;id&amp;quot;:&amp;quot;OCptZerhJT924518&amp;quot;,&amp;quot;type&amp;quot;:&amp;quot;string&amp;quot;,&amp;quot;category&amp;quot;:&amp;quot;default&amp;quot;,&amp;quot;value&amp;quot;:&amp;quot;&amp;quot;},{&amp;quot;name&amp;quot;:&amp;quot;输出&amp;quot;,&amp;quot;id&amp;quot;:&amp;quot;ukurrAaSCl947015&amp;quot;,&amp;quot;type&amp;quot;:&amp;quot;string&amp;quot;,&amp;quot;category&amp;quot;:&amp;quot;default&amp;quot;,&amp;quot;value&amp;quot;:&amp;quot;&amp;quot;},{&amp;quot;name&amp;quot;:&amp;quot;风险&amp;quot;,&amp;quot;id&amp;quot;:&amp;quot;ftdDaHfWzQ794044&amp;quot;,&amp;quot;type&amp;quot;:&amp;quot;string&amp;quot;,&amp;quot;category&amp;quot;:&amp;quot;default&amp;quot;,&amp;quot;value&amp;quot;:&amp;quot;&amp;quot;},{&amp;quot;name&amp;quot;:&amp;quot;备注&amp;quot;,&amp;quot;id&amp;quot;:&amp;quot;mCgyCTmQXo594531&amp;quot;,&amp;quot;type&amp;quot;:&amp;quot;string&amp;quot;,&amp;quot;category&amp;quot;:&amp;quot;default&amp;quot;,&amp;quot;value&amp;quot;:&amp;quot;&amp;quot;}],&amp;quot;props&amp;quot;:{&amp;quot;zindex&amp;quot;:51,&amp;quot;w&amp;quot;:128.59999084472656,&amp;quot;x&amp;quot;:1186.3142765590123,&amp;quot;h&amp;quot;:70,&amp;quot;y&amp;quot;:281.41428266252785,&amp;quot;angle&amp;quot;:0},&amp;quot;path&amp;quot;:[{&amp;quot;actions&amp;quot;:[{&amp;quot;x&amp;quot;:&amp;quot;0&amp;quot;,&amp;quot;action&amp;quot;:&amp;quot;move&amp;quot;,&amp;quot;y&amp;quot;:&amp;quot;h/2&amp;quot;},{&amp;quot;x&amp;quot;:&amp;quot;w/2&amp;quot;,&amp;quot;action&amp;quot;:&amp;quot;line&amp;quot;,&amp;quot;y&amp;quot;:&amp;quot;0&amp;quot;},{&amp;quot;x&amp;quot;:&amp;quot;w&amp;quot;,&amp;quot;action&amp;quot;:&amp;quot;line&amp;quot;,&amp;quot;y&amp;quot;:&amp;quot;h/2&amp;quot;},{&amp;quot;x&amp;quot;:&amp;quot;w/2&amp;quot;,&amp;quot;action&amp;quot;:&amp;quot;line&amp;quot;,&amp;quot;y&amp;quot;:&amp;quot;h&amp;quot;},{&amp;quot;x&amp;quot;:&amp;quot;0&amp;quot;,&amp;quot;action&amp;quot;:&amp;quot;line&amp;quot;,&amp;quot;y&amp;quot;:&amp;quot;h/2&amp;quot;},{&amp;quot;action&amp;quot;:&amp;quot;close&amp;quot;}]}],&amp;quot;lineStyle&amp;quot;:{&amp;quot;lineWidth&amp;quot;:1.5},&amp;quot;children&amp;quot;:[],&amp;quot;resizeDir&amp;quot;:[&amp;quot;tl&amp;quot;,&amp;quot;tr&amp;quot;,&amp;quot;br&amp;quot;,&amp;quot;bl&amp;quot;,&amp;quot;l&amp;quot;,&amp;quot;t&amp;quot;,&amp;quot;r&amp;quot;,&amp;quot;b&amp;quot;],&amp;quot;name&amp;quot;:&amp;quot;decision&amp;quot;,&amp;quot;fillStyle&amp;quot;:{},&amp;quot;theme&amp;quot;:{},&amp;quot;id&amp;quot;:&amp;quot;ncwymHpUft032778&amp;quot;,&amp;quot;attribute&amp;quot;:{&amp;quot;container&amp;quot;:false,&amp;quot;rotatable&amp;quot;:true,&amp;quot;visible&amp;quot;:true,&amp;quot;fixedLink&amp;quot;:false,&amp;quot;collapsable&amp;quot;:false,&amp;quot;collapsed&amp;quot;:false,&amp;quot;linkable&amp;quot;:true,&amp;quot;markerOffset&amp;quot;:5},&amp;quot;category&amp;quot;:&amp;quot;flow&amp;quot;,&amp;quot;locked&amp;quot;:false,&amp;quot;group&amp;quot;:&amp;quot;&amp;quot;},{&amp;quot;textBlock&amp;quot;:[],&amp;quot;points&amp;quot;:[{&amp;quot;x&amp;quot;:1250.6142719813756,&amp;quot;y&amp;quot;:361.91428266252785},{&amp;quot;x&amp;quot;:1250.6142719813756,&amp;quot;y&amp;quot;:361.91428266252785}],&amp;quot;dataAttributes&amp;quot;:[],&amp;quot;props&amp;quot;:{&amp;quot;zindex&amp;quot;:52},&amp;quot;linkerType&amp;quot;:&amp;quot;broken&amp;quot;,&amp;quot;lineStyle&amp;quot;:{&amp;quot;lineWidth&amp;quot;:1.5},&amp;quot;name&amp;quot;:&amp;quot;linker&amp;quot;,&amp;quot;from&amp;quot;:{&amp;quot;x&amp;quot;:1250.6142719813756,&amp;quot;y&amp;quot;:351.41428266252785,&amp;quot;angle&amp;quot;:4.433136300065597,&amp;quot;id&amp;quot;:&amp;quot;ncwymHpUft032778&amp;quot;},&amp;quot;id&amp;quot;:&amp;quot;kfvJkWVNxE581028&amp;quot;,&amp;quot;text&amp;quot;:&amp;quot;&amp;quot;,&amp;quot;to&amp;quot;:{&amp;quot;x&amp;quot;:1250.6142719813756,&amp;quot;y&amp;quot;:372.41428266252785,&amp;quot;angle&amp;quot;:1.5707963267948963,&amp;quot;id&amp;quot;:&amp;quot;waGqxFCIDE314881&amp;quot;},&amp;quot;locked&amp;quot;:false,&amp;quot;group&amp;quot;:&amp;quot;&amp;quot;},{&amp;quot;parent&amp;quot;:&amp;quot;&amp;quot;,&amp;quot;link&amp;quot;:&amp;quot;&amp;quot;,&amp;quot;shapeStyle&amp;quot;:{&amp;quot;alpha&amp;quot;:1},&amp;quot;textBlock&amp;quot;:[{&amp;quot;position&amp;quot;:{&amp;quot;w&amp;quot;:&amp;quot;w-20&amp;quot;,&amp;quot;x&amp;quot;:10,&amp;quot;h&amp;quot;:&amp;quot;h&amp;quot;,&amp;quot;y&amp;quot;:0},&amp;quot;text&amp;quot;:&amp;quot;结束&amp;quot;}],&amp;quot;anchors&amp;quot;:[{&amp;quot;x&amp;quot;:&amp;quot;w/2&amp;quot;,&amp;quot;y&amp;quot;:&amp;quot;0&amp;quot;},{&amp;quot;x&amp;quot;:&amp;quot;w/2&amp;quot;,&amp;quot;y&amp;quot;:&amp;quot;h&amp;quot;},{&amp;quot;x&amp;quot;:&amp;quot;0&amp;quot;,&amp;quot;y&amp;quot;:&amp;quot;h/2&amp;quot;},{&amp;quot;x&amp;quot;:&amp;quot;w&amp;quot;,&amp;quot;y&amp;quot;:&amp;quot;h/2&amp;quot;}],&amp;quot;title&amp;quot;:&amp;quot;矩形&amp;quot;,&amp;quot;fontStyle&amp;quot;:{},&amp;quot;dataAttributes&amp;quot;:[{&amp;quot;name&amp;quot;:&amp;quot;序号&amp;quot;,&amp;quot;id&amp;quot;:&amp;quot;xEpnERHQTA812446&amp;quot;,&amp;quot;type&amp;quot;:&amp;quot;number&amp;quot;,&amp;quot;category&amp;quot;:&amp;quot;default&amp;quot;,&amp;quot;value&amp;quot;:&amp;quot;&amp;quot;},{&amp;quot;name&amp;quot;:&amp;quot;名称&amp;quot;,&amp;quot;id&amp;quot;:&amp;quot;rswYgMGKKh044118&amp;quot;,&amp;quot;type&amp;quot;:&amp;quot;string&amp;quot;,&amp;quot;category&amp;quot;:&amp;quot;default&amp;quot;,&amp;quot;value&amp;quot;:&amp;quot;&amp;quot;},{&amp;quot;name&amp;quot;:&amp;quot;所有者&amp;quot;,&amp;quot;id&amp;quot;:&amp;quot;YEqTPPgzvz695433&amp;quot;,&amp;quot;type&amp;quot;:&amp;quot;string&amp;quot;,&amp;quot;category&amp;quot;:&amp;quot;default&amp;quot;,&amp;quot;value&amp;quot;:&amp;quot;&amp;quot;},{&amp;quot;name&amp;quot;:&amp;quot;连接&amp;quot;,&amp;quot;id&amp;quot;:&amp;quot;CtnvbXZCEY650121&amp;quot;,&amp;quot;type&amp;quot;:&amp;quot;link&amp;quot;,&amp;quot;category&amp;quot;:&amp;quot;default&amp;quot;,&amp;quot;value&amp;quot;:&amp;quot;&amp;quot;},{&amp;quot;name&amp;quot;:&amp;quot;便笺&amp;quot;,&amp;quot;id&amp;quot;:&amp;quot;cXeiNdFNmE912987&amp;quot;,&amp;quot;type&amp;quot;:&amp;quot;string&amp;quot;,&amp;quot;category&amp;quot;:&amp;quot;default&amp;quot;,&amp;quot;value&amp;quot;:&amp;quot;&amp;quot;}],&amp;quot;props&amp;quot;:{&amp;quot;zindex&amp;quot;:53,&amp;quot;w&amp;quot;:96,&amp;quot;x&amp;quot;:1202.6142719813756,&amp;quot;h&amp;quot;:54,&amp;quot;y&amp;quot;:372.41428266252785,&amp;quot;angle&amp;quot;:0},&amp;quot;path&amp;quot;:[{&amp;quot;actions&amp;quot;:[{&amp;quot;x&amp;quot;:&amp;quot;0&amp;quot;,&amp;quot;action&amp;quot;:&amp;quot;move&amp;quot;,&amp;quot;y&amp;quot;:&amp;quot;0&amp;quot;},{&amp;quot;x&amp;quot;:&amp;quot;w&amp;quot;,&amp;quot;action&amp;quot;:&amp;quot;line&amp;quot;,&amp;quot;y&amp;quot;:&amp;quot;0&amp;quot;},{&amp;quot;x&amp;quot;:&amp;quot;w&amp;quot;,&amp;quot;action&amp;quot;:&amp;quot;line&amp;quot;,&amp;quot;y&amp;quot;:&amp;quot;h&amp;quot;},{&amp;quot;x&amp;quot;:&amp;quot;0&amp;quot;,&amp;quot;action&amp;quot;:&amp;quot;line&amp;quot;,&amp;quot;y&amp;quot;:&amp;quot;h&amp;quot;},{&amp;quot;action&amp;quot;:&amp;quot;close&amp;quot;}]}],&amp;quot;lineStyle&amp;quot;:{&amp;quot;lineWidth&amp;quot;:1.5},&amp;quot;children&amp;quot;:[],&amp;quot;resizeDir&amp;quot;:[&amp;quot;tl&amp;quot;,&amp;quot;tr&amp;quot;,&amp;quot;br&amp;quot;,&amp;quot;bl&amp;quot;,&amp;quot;l&amp;quot;,&amp;quot;t&amp;quot;,&amp;quot;r&amp;quot;,&amp;quot;b&amp;quot;],&amp;quot;name&amp;quot;:&amp;quot;rectangle&amp;quot;,&amp;quot;fillStyle&amp;quot;:{},&amp;quot;theme&amp;quot;:{},&amp;quot;id&amp;quot;:&amp;quot;waGqxFCIDE314881&amp;quot;,&amp;quot;attribute&amp;quot;:{&amp;quot;container&amp;quot;:false,&amp;quot;rotatable&amp;quot;:true,&amp;quot;visible&amp;quot;:true,&amp;quot;fixedLink&amp;quot;:false,&amp;quot;collapsable&amp;quot;:false,&amp;quot;collapsed&amp;quot;:false,&amp;quot;linkable&amp;quot;:true,&amp;quot;markerOffset&amp;quot;:5},&amp;quot;category&amp;quot;:&amp;quot;basic&amp;quot;,&amp;quot;locked&amp;quot;:false,&amp;quot;group&amp;quot;:&amp;quot;&amp;quot;},{&amp;quot;parent&amp;quot;:&amp;quot;&amp;quot;,&amp;quot;link&amp;quot;:&amp;quot;&amp;quot;,&amp;quot;shapeStyle&amp;quot;:{&amp;quot;alpha&amp;quot;:1},&amp;quot;textBlock&amp;quot;:[{&amp;quot;position&amp;quot;:{&amp;quot;w&amp;quot;:&amp;quot;w-20&amp;quot;,&amp;quot;x&amp;quot;:10,&amp;quot;h&amp;quot;:&amp;quot;h&amp;quot;,&amp;quot;y&amp;quot;:0},&amp;quot;text&amp;quot;:&amp;quot;上传OSS同时删除本地文件&amp;quot;}],&amp;quot;anchors&amp;quot;:[{&amp;quot;x&amp;quot;:&amp;quot;w/2&amp;quot;,&amp;quot;y&amp;quot;:&amp;quot;0&amp;quot;},{&amp;quot;x&amp;quot;:&amp;quot;w/2&amp;quot;,&amp;quot;y&amp;quot;:&amp;quot;h&amp;quot;},{&amp;quot;x&amp;quot;:&amp;quot;0&amp;quot;,&amp;quot;y&amp;quot;:&amp;quot;h/2&amp;quot;},{&amp;quot;x&amp;quot;:&amp;quot;w&amp;quot;,&amp;quot;y&amp;quot;:&amp;quot;h/2&amp;quot;}],&amp;quot;title&amp;quot;:&amp;quot;流程&amp;quot;,&amp;quot;fontStyle&amp;quot;:{},&amp;quot;dataAttributes&amp;quot;:[{&amp;quot;name&amp;quot;:&amp;quot;序号&amp;quot;,&amp;quot;id&amp;quot;:&amp;quot;AmTbifjwZy072939&amp;quot;,&amp;quot;type&amp;quot;:&amp;quot;number&amp;quot;,&amp;quot;category&amp;quot;:&amp;quot;default&amp;quot;,&amp;quot;value&amp;quot;:&amp;quot;&amp;quot;},{&amp;quot;name&amp;quot;:&amp;quot;名称&amp;quot;,&amp;quot;id&amp;quot;:&amp;quot;gmCdYkFcwa368646&amp;quot;,&amp;quot;type&amp;quot;:&amp;quot;string&amp;quot;,&amp;quot;category&amp;quot;:&amp;quot;default&amp;quot;,&amp;quot;value&amp;quot;:&amp;quot;&amp;quot;},{&amp;quot;name&amp;quot;:&amp;quot;所有者&amp;quot;,&amp;quot;id&amp;quot;:&amp;quot;RusIEqIjLn808034&amp;quot;,&amp;quot;type&amp;quot;:&amp;quot;string&amp;quot;,&amp;quot;category&amp;quot;:&amp;quot;default&amp;quot;,&amp;quot;value&amp;quot;:&amp;quot;&amp;quot;},{&amp;quot;name&amp;quot;:&amp;quot;连接&amp;quot;,&amp;quot;id&amp;quot;:&amp;quot;sVjvSXiQIV457068&amp;quot;,&amp;quot;type&amp;quot;:&amp;quot;link&amp;quot;,&amp;quot;category&amp;quot;:&amp;quot;default&amp;quot;,&amp;quot;value&amp;quot;:&amp;quot;&amp;quot;},{&amp;quot;name&amp;quot;:&amp;quot;便笺&amp;quot;,&amp;quot;id&amp;quot;:&amp;quot;TYvEQqDFEb924950&amp;quot;,&amp;quot;type&amp;quot;:&amp;quot;string&amp;quot;,&amp;quot;category&amp;quot;:&amp;quot;default&amp;quot;,&amp;quot;value&amp;quot;:&amp;quot;&amp;quot;},{&amp;quot;name&amp;quot;:&amp;quot;成本&amp;quot;,&amp;quot;id&amp;quot;:&amp;quot;ObKXVJelLl205041&amp;quot;,&amp;quot;type&amp;quot;:&amp;quot;number&amp;quot;,&amp;quot;category&amp;quot;:&amp;quot;default&amp;quot;,&amp;quot;value&amp;quot;:&amp;quot;&amp;quot;},{&amp;quot;name&amp;quot;:&amp;quot;时间&amp;quot;,&amp;quot;id&amp;quot;:&amp;quot;OFMijlkBQC065560&amp;quot;,&amp;quot;type&amp;quot;:&amp;quot;number&amp;quot;,&amp;quot;category&amp;quot;:&amp;quot;default&amp;quot;,&amp;quot;value&amp;quot;:&amp;quot;&amp;quot;},{&amp;quot;name&amp;quot;:&amp;quot;部门&amp;quot;,&amp;quot;id&amp;quot;:&amp;quot;dJGXdnZjtX799037&amp;quot;,&amp;quot;type&amp;quot;:&amp;quot;string&amp;quot;,&amp;quot;category&amp;quot;:&amp;quot;default&amp;quot;,&amp;quot;value&amp;quot;:&amp;quot;&amp;quot;},{&amp;quot;name&amp;quot;:&amp;quot;输入&amp;quot;,&amp;quot;id&amp;quot;:&amp;quot;XVgYQECRAO046750&amp;quot;,&amp;quot;type&amp;quot;:&amp;quot;string&amp;quot;,&amp;quot;category&amp;quot;:&amp;quot;default&amp;quot;,&amp;quot;value&amp;quot;:&amp;quot;&amp;quot;},{&amp;quot;name&amp;quot;:&amp;quot;输出&amp;quot;,&amp;quot;id&amp;quot;:&amp;quot;ODnYpMxOpQ233957&amp;quot;,&amp;quot;type&amp;quot;:&amp;quot;string&amp;quot;,&amp;quot;category&amp;quot;:&amp;quot;default&amp;quot;,&amp;quot;value&amp;quot;:&amp;quot;&amp;quot;},{&amp;quot;name&amp;quot;:&amp;quot;风险&amp;quot;,&amp;quot;id&amp;quot;:&amp;quot;jcSjNfzuMd503559&amp;quot;,&amp;quot;type&amp;quot;:&amp;quot;string&amp;quot;,&amp;quot;category&amp;quot;:&amp;quot;default&amp;quot;,&amp;quot;value&amp;quot;:&amp;quot;&amp;quot;},{&amp;quot;name&amp;quot;:&amp;quot;备注&amp;quot;,&amp;quot;id&amp;quot;:&amp;quot;xAVIEYkvpV591113&amp;quot;,&amp;quot;type&amp;quot;:&amp;quot;string&amp;quot;,&amp;quot;category&amp;quot;:&amp;quot;default&amp;quot;,&amp;quot;value&amp;quot;:&amp;quot;&amp;quot;}],&amp;quot;props&amp;quot;:{&amp;quot;zindex&amp;quot;:55,&amp;quot;w&amp;quot;:93,&amp;quot;x&amp;quot;:921.3142765590123,&amp;quot;h&amp;quot;:57,&amp;quot;y&amp;quot;:287.91428266252785,&amp;quot;angle&amp;quot;:0},&amp;quot;path&amp;quot;:[{&amp;quot;actions&amp;quot;:[{&amp;quot;x&amp;quot;:&amp;quot;0&amp;quot;,&amp;quot;action&amp;quot;:&amp;quot;move&amp;quot;,&amp;quot;y&amp;quot;:&amp;quot;0&amp;quot;},{&amp;quot;x&amp;quot;:&amp;quot;w&amp;quot;,&amp;quot;action&amp;quot;:&amp;quot;line&amp;quot;,&amp;quot;y&amp;quot;:&amp;quot;0&amp;quot;},{&amp;quot;x&amp;quot;:&amp;quot;w&amp;quot;,&amp;quot;action&amp;quot;:&amp;quot;line&amp;quot;,&amp;quot;y&amp;quot;:&amp;quot;h&amp;quot;},{&amp;quot;x&amp;quot;:&amp;quot;0&amp;quot;,&amp;quot;action&amp;quot;:&amp;quot;line&amp;quot;,&amp;quot;y&amp;quot;:&amp;quot;h&amp;quot;},{&amp;quot;action&amp;quot;:&amp;quot;close&amp;quot;}]}],&amp;quot;lineStyle&amp;quot;:{&amp;quot;lineWidth&amp;quot;:1.5},&amp;quot;children&amp;quot;:[],&amp;quot;resizeDir&amp;quot;:[&amp;quot;tl&amp;quot;,&amp;quot;tr&amp;quot;,&amp;quot;br&amp;quot;,&amp;quot;bl&amp;quot;,&amp;quot;l&amp;quot;,&amp;quot;t&amp;quot;,&amp;quot;r&amp;quot;,&amp;quot;b&amp;quot;],&amp;quot;name&amp;quot;:&amp;quot;process&amp;quot;,&amp;quot;fillStyle&amp;quot;:{},&amp;quot;theme&amp;quot;:{},&amp;quot;id&amp;quot;:&amp;quot;zhIhiJtvuF875250&amp;quot;,&amp;quot;attribute&amp;quot;:{&amp;quot;container&amp;quot;:false,&amp;quot;rotatable&amp;quot;:true,&amp;quot;visible&amp;quot;:true,&amp;quot;fixedLink&amp;quot;:false,&amp;quot;collapsable&amp;quot;:false,&amp;quot;collapsed&amp;quot;:false,&amp;quot;linkable&amp;quot;:true,&amp;quot;markerOffset&amp;quot;:5},&amp;quot;category&amp;quot;:&amp;quot;flow&amp;quot;,&amp;quot;locked&amp;quot;:false,&amp;quot;group&amp;quot;:&amp;quot;&amp;quot;},{&amp;quot;textBlock&amp;quot;:[],&amp;quot;points&amp;quot;:[{&amp;quot;x&amp;quot;:909.8142765590123,&amp;quot;y&amp;quot;:316.41428266252785},{&amp;quot;x&amp;quot;:909.8142765590123,&amp;quot;y&amp;quot;:316.41428266252785}],&amp;quot;dataAttributes&amp;quot;:[],&amp;quot;props&amp;quot;:{&amp;quot;zindex&amp;quot;:56},&amp;quot;linkerType&amp;quot;:&amp;quot;broken&amp;quot;,&amp;quot;lineStyle&amp;quot;:{&amp;quot;lineWidth&amp;quot;:1.5},&amp;quot;name&amp;quot;:&amp;quot;linker&amp;quot;,&amp;quot;from&amp;quot;:{&amp;quot;x&amp;quot;:921.3142765590123,&amp;quot;y&amp;quot;:316.41428266252785,&amp;quot;angle&amp;quot;:0,&amp;quot;id&amp;quot;:&amp;quot;zhIhiJtvuF875250&amp;quot;},&amp;quot;id&amp;quot;:&amp;quot;pUJDNjREvI823233&amp;quot;,&amp;quot;text&amp;quot;:&amp;quot;&amp;quot;,&amp;quot;to&amp;quot;:{&amp;quot;x&amp;quot;:898.3142765590123,&amp;quot;y&amp;quot;:316.41428266252785,&amp;quot;angle&amp;quot;:3.4906585039886595,&amp;quot;id&amp;quot;:&amp;quot;unwqHAvvav798476&amp;quot;},&amp;quot;locked&amp;quot;:false,&amp;quot;group&amp;quot;:&amp;quot;&amp;quot;},{&amp;quot;textBlock&amp;quot;:[],&amp;quot;points&amp;quot;:[{&amp;quot;x&amp;quot;:1170.3142765590123,&amp;quot;y&amp;quot;:316.41428266252785},{&amp;quot;x&amp;quot;:1170.3142765590123,&amp;quot;y&amp;quot;:316.41428266252785}],&amp;quot;dataAttributes&amp;quot;:[],&amp;quot;props&amp;quot;:{&amp;quot;zindex&amp;quot;:58},&amp;quot;linkerType&amp;quot;:&amp;quot;broken&amp;quot;,&amp;quot;lineStyle&amp;quot;:{&amp;quot;lineWidth&amp;quot;:1.5},&amp;quot;name&amp;quot;:&amp;quot;linker&amp;quot;,&amp;quot;from&amp;quot;:{&amp;quot;x&amp;quot;:1186.3142765590123,&amp;quot;y&amp;quot;:316.41428266252785,&amp;quot;angle&amp;quot;:5.707226654021458,&amp;quot;id&amp;quot;:&amp;quot;ncwymHpUft032778&amp;quot;},&amp;quot;id&amp;quot;:&amp;quot;MYCVYuGfYu314053&amp;quot;,&amp;quot;text&amp;quot;:&amp;quot;&amp;quot;,&amp;quot;to&amp;quot;:{&amp;quot;x&amp;quot;:1154.3142765590123,&amp;quot;y&amp;quot;:316.41428266252785,&amp;quot;angle&amp;quot;:3.1415926535897936,&amp;quot;id&amp;quot;:&amp;quot;EAGJGcUwjq447312&amp;quot;},&amp;quot;locked&amp;quot;:false,&amp;quot;group&amp;quot;:&amp;quot;&amp;quot;},{&amp;quot;parent&amp;quot;:&amp;quot;&amp;quot;,&amp;quot;link&amp;quot;:&amp;quot;&amp;quot;,&amp;quot;shapeStyle&amp;quot;:{&amp;quot;alpha&amp;quot;:1},&amp;quot;textBlock&amp;quot;:[{&amp;quot;position&amp;quot;:{&amp;quot;w&amp;quot;:&amp;quot;w-20&amp;quot;,&amp;quot;x&amp;quot;:10,&amp;quot;h&amp;quot;:&amp;quot;h&amp;quot;,&amp;quot;y&amp;quot;:0},&amp;quot;text&amp;quot;:&amp;quot;压缩文件&amp;quot;}],&amp;quot;anchors&amp;quot;:[{&amp;quot;x&amp;quot;:&amp;quot;w/2&amp;quot;,&amp;quot;y&amp;quot;:&amp;quot;0&amp;quot;},{&amp;quot;x&amp;quot;:&amp;quot;w/2&amp;quot;,&amp;quot;y&amp;quot;:&amp;quot;h&amp;quot;},{&amp;quot;x&amp;quot;:&amp;quot;0&amp;quot;,&amp;quot;y&amp;quot;:&amp;quot;h/2&amp;quot;},{&amp;quot;x&amp;quot;:&amp;quot;w&amp;quot;,&amp;quot;y&amp;quot;:&amp;quot;h/2&amp;quot;}],&amp;quot;title&amp;quot;:&amp;quot;矩形&amp;quot;,&amp;quot;fontStyle&amp;quot;:{},&amp;quot;dataAttributes&amp;quot;:[{&amp;quot;name&amp;quot;:&amp;quot;序号&amp;quot;,&amp;quot;id&amp;quot;:&amp;quot;UDaYGrvYfs692027&amp;quot;,&amp;quot;type&amp;quot;:&amp;quot;number&amp;quot;,&amp;quot;category&amp;quot;:&amp;quot;default&amp;quot;,&amp;quot;value&amp;quot;:&amp;quot;&amp;quot;},{&amp;quot;name&amp;quot;:&amp;quot;名称&amp;quot;,&amp;quot;id&amp;quot;:&amp;quot;mcORhgoxMC726985&amp;quot;,&amp;quot;type&amp;quot;:&amp;quot;string&amp;quot;,&amp;quot;category&amp;quot;:&amp;quot;default&amp;quot;,&amp;quot;value&amp;quot;:&amp;quot;&amp;quot;},{&amp;quot;name&amp;quot;:&amp;quot;所有者&amp;quot;,&amp;quot;id&amp;quot;:&amp;quot;wbweXbYPax811734&amp;quot;,&amp;quot;type&amp;quot;:&amp;quot;string&amp;quot;,&amp;quot;category&amp;quot;:&amp;quot;default&amp;quot;,&amp;quot;value&amp;quot;:&amp;quot;&amp;quot;},{&amp;quot;name&amp;quot;:&amp;quot;连接&amp;quot;,&amp;quot;id&amp;quot;:&amp;quot;fTKvJSWntJ852899&amp;quot;,&amp;quot;type&amp;quot;:&amp;quot;link&amp;quot;,&amp;quot;category&amp;quot;:&amp;quot;default&amp;quot;,&amp;quot;value&amp;quot;:&amp;quot;&amp;quot;},{&amp;quot;name&amp;quot;:&amp;quot;便笺&amp;quot;,&amp;quot;id&amp;quot;:&amp;quot;DLgxoTaAWr438243&amp;quot;,&amp;quot;type&amp;quot;:&amp;quot;string&amp;quot;,&amp;quot;category&amp;quot;:&amp;quot;default&amp;quot;,&amp;quot;value&amp;quot;:&amp;quot;&amp;quot;}],&amp;quot;props&amp;quot;:{&amp;quot;zindex&amp;quot;:59,&amp;quot;w&amp;quot;:96,&amp;quot;x&amp;quot;:1058.3142765590123,&amp;quot;h&amp;quot;:54,&amp;quot;y&amp;quot;:289.41428266252785,&amp;quot;angle&amp;quot;:0},&amp;quot;path&amp;quot;:[{&amp;quot;actions&amp;quot;:[{&amp;quot;x&amp;quot;:&amp;quot;0&amp;quot;,&amp;quot;action&amp;quot;:&amp;quot;move&amp;quot;,&amp;quot;y&amp;quot;:&amp;quot;0&amp;quot;},{&amp;quot;x&amp;quot;:&amp;quot;w&amp;quot;,&amp;quot;action&amp;quot;:&amp;quot;line&amp;quot;,&amp;quot;y&amp;quot;:&amp;quot;0&amp;quot;},{&amp;quot;x&amp;quot;:&amp;quot;w&amp;quot;,&amp;quot;action&amp;quot;:&amp;quot;line&amp;quot;,&amp;quot;y&amp;quot;:&amp;quot;h&amp;quot;},{&amp;quot;x&amp;quot;:&amp;quot;0&amp;quot;,&amp;quot;action&amp;quot;:&amp;quot;line&amp;quot;,&amp;quot;y&amp;quot;:&amp;quot;h&amp;quot;},{&amp;quot;action&amp;quot;:&amp;quot;close&amp;quot;}]}],&amp;quot;lineStyle&amp;quot;:{&amp;quot;lineWidth&amp;quot;:1.5},&amp;quot;children&amp;quot;:[],&amp;quot;resizeDir&amp;quot;:[&amp;quot;tl&amp;quot;,&amp;quot;tr&amp;quot;,&amp;quot;br&amp;quot;,&amp;quot;bl&amp;quot;,&amp;quot;l&amp;quot;,&amp;quot;t&amp;quot;,&amp;quot;r&amp;quot;,&amp;quot;b&amp;quot;],&amp;quot;name&amp;quot;:&amp;quot;rectangle&amp;quot;,&amp;quot;fillStyle&amp;quot;:{},&amp;quot;theme&amp;quot;:{},&amp;quot;id&amp;quot;:&amp;quot;EAGJGcUwjq447312&amp;quot;,&amp;quot;attribute&amp;quot;:{&amp;quot;container&amp;quot;:false,&amp;quot;rotatable&amp;quot;:true,&amp;quot;visible&amp;quot;:true,&amp;quot;fixedLink&amp;quot;:false,&amp;quot;collapsable&amp;quot;:false,&amp;quot;collapsed&amp;quot;:false,&amp;quot;linkable&amp;quot;:true,&amp;quot;markerOffset&amp;quot;:5},&amp;quot;category&amp;quot;:&amp;quot;basic&amp;quot;,&amp;quot;locked&amp;quot;:false,&amp;quot;group&amp;quot;:&amp;quot;&amp;quot;},{&amp;quot;textBlock&amp;quot;:[],&amp;quot;points&amp;quot;:[{&amp;quot;x&amp;quot;:1036.3142765590123,&amp;quot;y&amp;quot;:316.41428266252785},{&amp;quot;x&amp;quot;:1036.3142765590123,&amp;quot;y&amp;quot;:316.41428266252785}],&amp;quot;dataAttributes&amp;quot;:[],&amp;quot;props&amp;quot;:{&amp;quot;zindex&amp;quot;:60},&amp;quot;linkerType&amp;quot;:&amp;quot;broken&amp;quot;,&amp;quot;lineStyle&amp;quot;:{&amp;quot;lineWidth&amp;quot;:1.5},&amp;quot;name&amp;quot;:&amp;quot;linker&amp;quot;,&amp;quot;from&amp;quot;:{&amp;quot;x&amp;quot;:1058.3142765590123,&amp;quot;y&amp;quot;:316.41428266252785,&amp;quot;angle&amp;quot;:0,&amp;quot;id&amp;quot;:&amp;quot;EAGJGcUwjq447312&amp;quot;},&amp;quot;id&amp;quot;:&amp;quot;FyEreACysA403397&amp;quot;,&amp;quot;text&amp;quot;:&amp;quot;&amp;quot;,&amp;quot;to&amp;quot;:{&amp;quot;x&amp;quot;:1014.3142765590123,&amp;quot;y&amp;quot;:316.41428266252785,&amp;quot;angle&amp;quot;:3.1415926535897936,&amp;quot;id&amp;quot;:&amp;quot;zhIhiJtvuF875250&amp;quot;},&amp;quot;locked&amp;quot;:false,&amp;quot;group&amp;quot;:&amp;quot;&amp;quot;},{&amp;quot;parent&amp;quot;:&amp;quot;&amp;quot;,&amp;quot;link&amp;quot;:&amp;quot;&amp;quot;,&amp;quot;shapeStyle&amp;quot;:{&amp;quot;alpha&amp;quot;:1},&amp;quot;textBlock&amp;quot;:[{&amp;quot;position&amp;quot;:{&amp;quot;w&amp;quot;:&amp;quot;w-20&amp;quot;,&amp;quot;x&amp;quot;:10,&amp;quot;h&amp;quot;:&amp;quot;h&amp;quot;,&amp;quot;y&amp;quot;:0},&amp;quot;text&amp;quot;:&amp;quot;是否有远程诊断相关必要信息&amp;quot;}],&amp;quot;anchors&amp;quot;:[{&amp;quot;x&amp;quot;:&amp;quot;w/2&amp;quot;,&amp;quot;y&amp;quot;:&amp;quot;0&amp;quot;},{&amp;quot;x&amp;quot;:&amp;quot;w/2&amp;quot;,&amp;quot;y&amp;quot;:&amp;quot;h&amp;quot;},{&amp;quot;x&amp;quot;:&amp;quot;0&amp;quot;,&amp;quot;y&amp;quot;:&amp;quot;h/2&amp;quot;},{&amp;quot;x&amp;quot;:&amp;quot;w&amp;quot;,&amp;quot;y&amp;quot;:&amp;quot;h/2&amp;quot;}],&amp;quot;title&amp;quot;:&amp;quot;判定&amp;quot;,&amp;quot;fontStyle&amp;quot;:{},&amp;quot;dataAttributes&amp;quot;:[{&amp;quot;name&amp;quot;:&amp;quot;序号&amp;quot;,&amp;quot;id&amp;quot;:&amp;quot;aWYrNvITcx283303&amp;quot;,&amp;quot;type&amp;quot;:&amp;quot;number&amp;quot;,&amp;quot;category&amp;quot;:&amp;quot;default&amp;quot;,&amp;quot;value&amp;quot;:&amp;quot;&amp;quot;},{&amp;quot;name&amp;quot;:&amp;quot;名称&amp;quot;,&amp;quot;id&amp;quot;:&amp;quot;WjPtQJjRfJ546581&amp;quot;,&amp;quot;type&amp;quot;:&amp;quot;string&amp;quot;,&amp;quot;category&amp;quot;:&amp;quot;default&amp;quot;,&amp;quot;value&amp;quot;:&amp;quot;&amp;quot;},{&amp;quot;name&amp;quot;:&amp;quot;所有者&amp;quot;,&amp;quot;id&amp;quot;:&amp;quot;vYAUHgVbyM308409&amp;quot;,&amp;quot;type&amp;quot;:&amp;quot;string&amp;quot;,&amp;quot;category&amp;quot;:&amp;quot;default&amp;quot;,&amp;quot;value&amp;quot;:&amp;quot;&amp;quot;},{&amp;quot;name&amp;quot;:&amp;quot;连接&amp;quot;,&amp;quot;id&amp;quot;:&amp;quot;egkqzHYcXX012021&amp;quot;,&amp;quot;type&amp;quot;:&amp;quot;link&amp;quot;,&amp;quot;category&amp;quot;:&amp;quot;default&amp;quot;,&amp;quot;value&amp;quot;:&amp;quot;&amp;quot;},{&amp;quot;name&amp;quot;:&amp;quot;便笺&amp;quot;,&amp;quot;id&amp;quot;:&amp;quot;HACGOvqURT498453&amp;quot;,&amp;quot;type&amp;quot;:&amp;quot;string&amp;quot;,&amp;quot;category&amp;quot;:&amp;quot;default&amp;quot;,&amp;quot;value&amp;quot;:&amp;quot;&amp;quot;},{&amp;quot;name&amp;quot;:&amp;quot;成本&amp;quot;,&amp;quot;id&amp;quot;:&amp;quot;KqweWwXoMi266747&amp;quot;,&amp;quot;type&amp;quot;:&amp;quot;number&amp;quot;,&amp;quot;category&amp;quot;:&amp;quot;default&amp;quot;,&amp;quot;value&amp;quot;:&amp;quot;&amp;quot;},{&amp;quot;name&amp;quot;:&amp;quot;时间&amp;quot;,&amp;quot;id&amp;quot;:&amp;quot;uVCTlnBtnM518567&amp;quot;,&amp;quot;type&amp;quot;:&amp;quot;number&amp;quot;,&amp;quot;category&amp;quot;:&amp;quot;default&amp;quot;,&amp;quot;value&amp;quot;:&amp;quot;&amp;quot;},{&amp;quot;name&amp;quot;:&amp;quot;部门&amp;quot;,&amp;quot;id&amp;quot;:&amp;quot;sXUKBWpKyj651730&amp;quot;,&amp;quot;type&amp;quot;:&amp;quot;string&amp;quot;,&amp;quot;category&amp;quot;:&amp;quot;default&amp;quot;,&amp;quot;value&amp;quot;:&amp;quot;&amp;quot;},{&amp;quot;name&amp;quot;:&amp;quot;输入&amp;quot;,&amp;quot;id&amp;quot;:&amp;quot;AhAaJxxrMB744691&amp;quot;,&amp;quot;type&amp;quot;:&amp;quot;string&amp;quot;,&amp;quot;category&amp;quot;:&amp;quot;default&amp;quot;,&amp;quot;value&amp;quot;:&amp;quot;&amp;quot;},{&amp;quot;name&amp;quot;:&amp;quot;输出&amp;quot;,&amp;quot;id&amp;quot;:&amp;quot;aoaXqcOrrh722858&amp;quot;,&amp;quot;type&amp;quot;:&amp;quot;string&amp;quot;,&amp;quot;category&amp;quot;:&amp;quot;default&amp;quot;,&amp;quot;value&amp;quot;:&amp;quot;&amp;quot;},{&amp;quot;name&amp;quot;:&amp;quot;风险&amp;quot;,&amp;quot;id&amp;quot;:&amp;quot;fMFVJtbKDj679944&amp;quot;,&amp;quot;type&amp;quot;:&amp;quot;string&amp;quot;,&amp;quot;category&amp;quot;:&amp;quot;default&amp;quot;,&amp;quot;value&amp;quot;:&amp;quot;&amp;quot;},{&amp;quot;name&amp;quot;:&amp;quot;备注&amp;quot;,&amp;quot;id&amp;quot;:&amp;quot;PBWESPYDcx130716&amp;quot;,&amp;quot;type&amp;quot;:&amp;quot;string&amp;quot;,&amp;quot;category&amp;quot;:&amp;quot;default&amp;quot;,&amp;quot;value&amp;quot;:&amp;quot;&amp;quot;}],&amp;quot;props&amp;quot;:{&amp;quot;zindex&amp;quot;:61,&amp;quot;w&amp;quot;:90,&amp;quot;x&amp;quot;:808.3142765590123,&amp;quot;h&amp;quot;:70,&amp;quot;y&amp;quot;:281.41428266252785,&amp;quot;angle&amp;quot;:0},&amp;quot;path&amp;quot;:[{&amp;quot;actions&amp;quot;:[{&amp;quot;x&amp;quot;:&amp;quot;0&amp;quot;,&amp;quot;action&amp;quot;:&amp;quot;move&amp;quot;,&amp;quot;y&amp;quot;:&amp;quot;h/2&amp;quot;},{&amp;quot;x&amp;quot;:&amp;quot;w/2&amp;quot;,&amp;quot;action&amp;quot;:&amp;quot;line&amp;quot;,&amp;quot;y&amp;quot;:&amp;quot;0&amp;quot;},{&amp;quot;x&amp;quot;:&amp;quot;w&amp;quot;,&amp;quot;action&amp;quot;:&amp;quot;line&amp;quot;,&amp;quot;y&amp;quot;:&amp;quot;h/2&amp;quot;},{&amp;quot;x&amp;quot;:&amp;quot;w/2&amp;quot;,&amp;quot;action&amp;quot;:&amp;quot;line&amp;quot;,&amp;quot;y&amp;quot;:&amp;quot;h&amp;quot;},{&amp;quot;x&amp;quot;:&amp;quot;0&amp;quot;,&amp;quot;action&amp;quot;:&amp;quot;line&amp;quot;,&amp;quot;y&amp;quot;:&amp;quot;h/2&amp;quot;},{&amp;quot;action&amp;quot;:&amp;quot;close&amp;quot;}]}],&amp;quot;lineStyle&amp;quot;:{&amp;quot;lineWidth&amp;quot;:1.5},&amp;quot;children&amp;quot;:[],&amp;quot;resizeDir&amp;quot;:[&amp;quot;tl&amp;quot;,&amp;quot;tr&amp;quot;,&amp;quot;br&amp;quot;,&amp;quot;bl&amp;quot;,&amp;quot;l&amp;quot;,&amp;quot;t&amp;quot;,&amp;quot;r&amp;quot;,&amp;quot;b&amp;quot;],&amp;quot;name&amp;quot;:&amp;quot;decision&amp;quot;,&amp;quot;fillStyle&amp;quot;:{},&amp;quot;theme&amp;quot;:{},&amp;quot;id&amp;quot;:&amp;quot;unwqHAvvav798476&amp;quot;,&amp;quot;attribute&amp;quot;:{&amp;quot;container&amp;quot;:false,&amp;quot;rotatable&amp;quot;:true,&amp;quot;visible&amp;quot;:true,&amp;quot;fixedLink&amp;quot;:false,&amp;quot;collapsable&amp;quot;:false,&amp;quot;collapsed&amp;quot;:false,&amp;quot;linkable&amp;quot;:true,&amp;quot;markerOffset&amp;quot;:5},&amp;quot;category&amp;quot;:&amp;quot;flow&amp;quot;,&amp;quot;locked&amp;quot;:false,&amp;quot;group&amp;quot;:&amp;quot;&amp;quot;},{&amp;quot;parent&amp;quot;:&amp;quot;&amp;quot;,&amp;quot;link&amp;quot;:&amp;quot;&amp;quot;,&amp;quot;shapeStyle&amp;quot;:{&amp;quot;alpha&amp;quot;:1},&amp;quot;textBlock&amp;quot;:[{&amp;quot;position&amp;quot;:{&amp;quot;w&amp;quot;:&amp;quot;w-20&amp;quot;,&amp;quot;x&amp;quot;:10,&amp;quot;h&amp;quot;:&amp;quot;h&amp;quot;,&amp;quot;y&amp;quot;:0},&amp;quot;text&amp;quot;:&amp;quot;结束&amp;quot;}],&amp;quot;anchors&amp;quot;:[{&amp;quot;x&amp;quot;:&amp;quot;w/2&amp;quot;,&amp;quot;y&amp;quot;:&amp;quot;0&amp;quot;},{&amp;quot;x&amp;quot;:&amp;quot;w/2&amp;quot;,&amp;quot;y&amp;quot;:&amp;quot;h&amp;quot;},{&amp;quot;x&amp;quot;:&amp;quot;0&amp;quot;,&amp;quot;y&amp;quot;:&amp;quot;h/2&amp;quot;},{&amp;quot;x&amp;quot;:&amp;quot;w&amp;quot;,&amp;quot;y&amp;quot;:&amp;quot;h/2&amp;quot;}],&amp;quot;title&amp;quot;:&amp;quot;矩形&amp;quot;,&amp;quot;fontStyle&amp;quot;:{},&amp;quot;dataAttributes&amp;quot;:[{&amp;quot;name&amp;quot;:&amp;quot;序号&amp;quot;,&amp;quot;id&amp;quot;:&amp;quot;qUAmZxzekg773843&amp;quot;,&amp;quot;type&amp;quot;:&amp;quot;number&amp;quot;,&amp;quot;category&amp;quot;:&amp;quot;default&amp;quot;,&amp;quot;value&amp;quot;:&amp;quot;&amp;quot;},{&amp;quot;name&amp;quot;:&amp;quot;名称&amp;quot;,&amp;quot;id&amp;quot;:&amp;quot;jMDHBTeJGG173990&amp;quot;,&amp;quot;type&amp;quot;:&amp;quot;string&amp;quot;,&amp;quot;category&amp;quot;:&amp;quot;default&amp;quot;,&amp;quot;value&amp;quot;:&amp;quot;&amp;quot;},{&amp;quot;name&amp;quot;:&amp;quot;所有者&amp;quot;,&amp;quot;id&amp;quot;:&amp;quot;AkRjSoiyLd714900&amp;quot;,&amp;quot;type&amp;quot;:&amp;quot;string&amp;quot;,&amp;quot;category&amp;quot;:&amp;quot;default&amp;quot;,&amp;quot;value&amp;quot;:&amp;quot;&amp;quot;},{&amp;quot;name&amp;quot;:&amp;quot;连接&amp;quot;,&amp;quot;id&amp;quot;:&amp;quot;MpGbOXsCWW839973&amp;quot;,&amp;quot;type&amp;quot;:&amp;quot;link&amp;quot;,&amp;quot;category&amp;quot;:&amp;quot;default&amp;quot;,&amp;quot;value&amp;quot;:&amp;quot;&amp;quot;},{&amp;quot;name&amp;quot;:&amp;quot;便笺&amp;quot;,&amp;quot;id&amp;quot;:&amp;quot;MhGmdwSdvW998149&amp;quot;,&amp;quot;type&amp;quot;:&amp;quot;string&amp;quot;,&amp;quot;category&amp;quot;:&amp;quot;default&amp;quot;,&amp;quot;value&amp;quot;:&amp;quot;&amp;quot;}],&amp;quot;props&amp;quot;:{&amp;quot;zindex&amp;quot;:63,&amp;quot;w&amp;quot;:96,&amp;quot;x&amp;quot;:805.3142765590123,&amp;quot;h&amp;quot;:54,&amp;quot;y&amp;quot;:382.41428266252785,&amp;quot;angle&amp;quot;:0},&amp;quot;path&amp;quot;:[{&amp;quot;actions&amp;quot;:[{&amp;quot;x&amp;quot;:&amp;quot;0&amp;quot;,&amp;quot;action&amp;quot;:&amp;quot;move&amp;quot;,&amp;quot;y&amp;quot;:&amp;quot;0&amp;quot;},{&amp;quot;x&amp;quot;:&amp;quot;w&amp;quot;,&amp;quot;action&amp;quot;:&amp;quot;line&amp;quot;,&amp;quot;y&amp;quot;:&amp;quot;0&amp;quot;},{&amp;quot;x&amp;quot;:&amp;quot;w&amp;quot;,&amp;quot;action&amp;quot;:&amp;quot;line&amp;quot;,&amp;quot;y&amp;quot;:&amp;quot;h&amp;quot;},{&amp;quot;x&amp;quot;:&amp;quot;0&amp;quot;,&amp;quot;action&amp;quot;:&amp;quot;line&amp;quot;,&amp;quot;y&amp;quot;:&amp;quot;h&amp;quot;},{&amp;quot;action&amp;quot;:&amp;quot;close&amp;quot;}]}],&amp;quot;lineStyle&amp;quot;:{&amp;quot;lineWidth&amp;quot;:1.5},&amp;quot;children&amp;quot;:[],&amp;quot;resizeDir&amp;quot;:[&amp;quot;tl&amp;quot;,&amp;quot;tr&amp;quot;,&amp;quot;br&amp;quot;,&amp;quot;bl&amp;quot;,&amp;quot;l&amp;quot;,&amp;quot;t&amp;quot;,&amp;quot;r&amp;quot;,&amp;quot;b&amp;quot;],&amp;quot;name&amp;quot;:&amp;quot;rectangle&amp;quot;,&amp;quot;fillStyle&amp;quot;:{},&amp;quot;theme&amp;quot;:{},&amp;quot;id&amp;quot;:&amp;quot;nyBRXXxIiW175101&amp;quot;,&amp;quot;attribute&amp;quot;:{&amp;quot;container&amp;quot;:false,&amp;quot;rotatable&amp;quot;:true,&amp;quot;visible&amp;quot;:true,&amp;quot;fixedLink&amp;quot;:false,&amp;quot;collapsable&amp;quot;:false,&amp;quot;collapsed&amp;quot;:false,&amp;quot;linkable&amp;quot;:true,&amp;quot;markerOffset&amp;quot;:5},&amp;quot;category&amp;quot;:&amp;quot;basic&amp;quot;,&amp;quot;locked&amp;quot;:false,&amp;quot;group&amp;quot;:&amp;quot;&amp;quot;},{&amp;quot;parent&amp;quot;:&amp;quot;&amp;quot;,&amp;quot;link&amp;quot;:&amp;quot;&amp;quot;,&amp;quot;shapeStyle&amp;quot;:{&amp;quot;alpha&amp;quot;:1},&amp;quot;textBlock&amp;quot;:[{&amp;quot;position&amp;quot;:{&amp;quot;w&amp;quot;:&amp;quot;w-20&amp;quot;,&amp;quot;x&amp;quot;:10,&amp;quot;h&amp;quot;:&amp;quot;h&amp;quot;,&amp;quot;y&amp;quot;:0},&amp;quot;text&amp;quot;:&amp;quot;规定时间内异步任务获取远程诊断的结果&amp;quot;}],&amp;quot;anchors&amp;quot;:[{&amp;quot;x&amp;quot;:&amp;quot;w/2&amp;quot;,&amp;quot;y&amp;quot;:&amp;quot;0&amp;quot;},{&amp;quot;x&amp;quot;:&amp;quot;w/2&amp;quot;,&amp;quot;y&amp;quot;:&amp;quot;h&amp;quot;},{&amp;quot;x&amp;quot;:&amp;quot;0&amp;quot;,&amp;quot;y&amp;quot;:&amp;quot;h/2&amp;quot;},{&amp;quot;x&amp;quot;:&amp;quot;w&amp;quot;,&amp;quot;y&amp;quot;:&amp;quot;h/2&amp;quot;}],&amp;quot;title&amp;quot;:&amp;quot;流程&amp;quot;,&amp;quot;fontStyle&amp;quot;:{},&amp;quot;dataAttributes&amp;quot;:[{&amp;quot;name&amp;quot;:&amp;quot;序号&amp;quot;,&amp;quot;id&amp;quot;:&amp;quot;RCOERwjFPg656302&amp;quot;,&amp;quot;type&amp;quot;:&amp;quot;number&amp;quot;,&amp;quot;category&amp;quot;:&amp;quot;default&amp;quot;,&amp;quot;value&amp;quot;:&amp;quot;&amp;quot;},{&amp;quot;name&amp;quot;:&amp;quot;名称&amp;quot;,&amp;quot;id&amp;quot;:&amp;quot;TYXHYppJsI020690&amp;quot;,&amp;quot;type&amp;quot;:&amp;quot;string&amp;quot;,&amp;quot;category&amp;quot;:&amp;quot;default&amp;quot;,&amp;quot;value&amp;quot;:&amp;quot;&amp;quot;},{&amp;quot;name&amp;quot;:&amp;quot;所有者&amp;quot;,&amp;quot;id&amp;quot;:&amp;quot;HPZNhaZgrw052428&amp;quot;,&amp;quot;type&amp;quot;:&amp;quot;string&amp;quot;,&amp;quot;category&amp;quot;:&amp;quot;default&amp;quot;,&amp;quot;value&amp;quot;:&amp;quot;&amp;quot;},{&amp;quot;name&amp;quot;:&amp;quot;连接&amp;quot;,&amp;quot;id&amp;quot;:&amp;quot;ysGxJshWCK427244&amp;quot;,&amp;quot;type&amp;quot;:&amp;quot;link&amp;quot;,&amp;quot;category&amp;quot;:&amp;quot;default&amp;quot;,&amp;quot;value&amp;quot;:&amp;quot;&amp;quot;},{&amp;quot;name&amp;quot;:&amp;quot;便笺&amp;quot;,&amp;quot;id&amp;quot;:&amp;quot;wgqIzQaHNW579216&amp;quot;,&amp;quot;type&amp;quot;:&amp;quot;string&amp;quot;,&amp;quot;category&amp;quot;:&amp;quot;default&amp;quot;,&amp;quot;value&amp;quot;:&amp;quot;&amp;quot;},{&amp;quot;name&amp;quot;:&amp;quot;成本&amp;quot;,&amp;quot;id&amp;quot;:&amp;quot;xyZZlZCccr090092&amp;quot;,&amp;quot;type&amp;quot;:&amp;quot;number&amp;quot;,&amp;quot;category&amp;quot;:&amp;quot;default&amp;quot;,&amp;quot;value&amp;quot;:&amp;quot;&amp;quot;},{&amp;quot;name&amp;quot;:&amp;quot;时间&amp;quot;,&amp;quot;id&amp;quot;:&amp;quot;rrTHdEiFTZ709077&amp;quot;,&amp;quot;type&amp;quot;:&amp;quot;number&amp;quot;,&amp;quot;category&amp;quot;:&amp;quot;default&amp;quot;,&amp;quot;value&amp;quot;:&amp;quot;&amp;quot;},{&amp;quot;name&amp;quot;:&amp;quot;部门&amp;quot;,&amp;quot;id&amp;quot;:&amp;quot;hrLEpXkxOC366951&amp;quot;,&amp;quot;type&amp;quot;:&amp;quot;string&amp;quot;,&amp;quot;category&amp;quot;:&amp;quot;default&amp;quot;,&amp;quot;value&amp;quot;:&amp;quot;&amp;quot;},{&amp;quot;name&amp;quot;:&amp;quot;输入&amp;quot;,&amp;quot;id&amp;quot;:&amp;quot;ftCSaBREhx348602&amp;quot;,&amp;quot;type&amp;quot;:&amp;quot;string&amp;quot;,&amp;quot;category&amp;quot;:&amp;quot;default&amp;quot;,&amp;quot;value&amp;quot;:&amp;quot;&amp;quot;},{&amp;quot;name&amp;quot;:&amp;quot;输出&amp;quot;,&amp;quot;id&amp;quot;:&amp;quot;GaLHAiMcaL025548&amp;quot;,&amp;quot;type&amp;quot;:&amp;quot;string&amp;quot;,&amp;quot;category&amp;quot;:&amp;quot;default&amp;quot;,&amp;quot;value&amp;quot;:&amp;quot;&amp;quot;},{&amp;quot;name&amp;quot;:&amp;quot;风险&amp;quot;,&amp;quot;id&amp;quot;:&amp;quot;FkxygcKHlR454655&amp;quot;,&amp;quot;type&amp;quot;:&amp;quot;string&amp;quot;,&amp;quot;category&amp;quot;:&amp;quot;default&amp;quot;,&amp;quot;value&amp;quot;:&amp;quot;&amp;quot;},{&amp;quot;name&amp;quot;:&amp;quot;备注&amp;quot;,&amp;quot;id&amp;quot;:&amp;quot;TGIyACRJUg109696&amp;quot;,&amp;quot;type&amp;quot;:&amp;quot;string&amp;quot;,&amp;quot;category&amp;quot;:&amp;quot;default&amp;quot;,&amp;quot;value&amp;quot;:&amp;quot;&amp;quot;}],&amp;quot;props&amp;quot;:{&amp;quot;zindex&amp;quot;:65,&amp;quot;w&amp;quot;:100,&amp;quot;x&amp;quot;:683.3142765590123,&amp;quot;h&amp;quot;:70,&amp;quot;y&amp;quot;:281.41428266252785,&amp;quot;angle&amp;quot;:0},&amp;quot;path&amp;quot;:[{&amp;quot;actions&amp;quot;:[{&amp;quot;x&amp;quot;:&amp;quot;0&amp;quot;,&amp;quot;action&amp;quot;:&amp;quot;move&amp;quot;,&amp;quot;y&amp;quot;:&amp;quot;0&amp;quot;},{&amp;quot;x&amp;quot;:&amp;quot;w&amp;quot;,&amp;quot;action&amp;quot;:&amp;quot;line&amp;quot;,&amp;quot;y&amp;quot;:&amp;quot;0&amp;quot;},{&amp;quot;x&amp;quot;:&amp;quot;w&amp;quot;,&amp;quot;action&amp;quot;:&amp;quot;line&amp;quot;,&amp;quot;y&amp;quot;:&amp;quot;h&amp;quot;},{&amp;quot;x&amp;quot;:&amp;quot;0&amp;quot;,&amp;quot;action&amp;quot;:&amp;quot;line&amp;quot;,&amp;quot;y&amp;quot;:&amp;quot;h&amp;quot;},{&amp;quot;action&amp;quot;:&amp;quot;close&amp;quot;}]}],&amp;quot;lineStyle&amp;quot;:{&amp;quot;lineWidth&amp;quot;:1.5},&amp;quot;children&amp;quot;:[],&amp;quot;resizeDir&amp;quot;:[&amp;quot;tl&amp;quot;,&amp;quot;tr&amp;quot;,&amp;quot;br&amp;quot;,&amp;quot;bl&amp;quot;,&amp;quot;l&amp;quot;,&amp;quot;t&amp;quot;,&amp;quot;r&amp;quot;,&amp;quot;b&amp;quot;],&amp;quot;name&amp;quot;:&amp;quot;process&amp;quot;,&amp;quot;fillStyle&amp;quot;:{},&amp;quot;theme&amp;quot;:{},&amp;quot;id&amp;quot;:&amp;quot;YfkmGeNqHe536594&amp;quot;,&amp;quot;attribute&amp;quot;:{&amp;quot;container&amp;quot;:false,&amp;quot;rotatable&amp;quot;:true,&amp;quot;visible&amp;quot;:true,&amp;quot;fixedLink&amp;quot;:false,&amp;quot;collapsable&amp;quot;:false,&amp;quot;collapsed&amp;quot;:false,&amp;quot;linkable&amp;quot;:true,&amp;quot;markerOffset&amp;quot;:5},&amp;quot;category&amp;quot;:&amp;quot;flow&amp;quot;,&amp;quot;locked&amp;quot;:false,&amp;quot;group&amp;quot;:&amp;quot;&amp;quot;},{&amp;quot;parent&amp;quot;:&amp;quot;&amp;quot;,&amp;quot;link&amp;quot;:&amp;quot;&amp;quot;,&amp;quot;shapeStyle&amp;quot;:{&amp;quot;alpha&amp;quot;:1},&amp;quot;textBlock&amp;quot;:[{&amp;quot;position&amp;quot;:{&amp;quot;w&amp;quot;:&amp;quot;w&amp;quot;,&amp;quot;x&amp;quot;:0,&amp;quot;h&amp;quot;:&amp;quot;h&amp;quot;,&amp;quot;y&amp;quot;:0},&amp;quot;text&amp;quot;:&amp;quot;N&amp;quot;}],&amp;quot;anchors&amp;quot;:[],&amp;quot;title&amp;quot;:&amp;quot;&amp;quot;,&amp;quot;fontStyle&amp;quot;:{},&amp;quot;dataAttributes&amp;quot;:[],&amp;quot;props&amp;quot;:{&amp;quot;zindex&amp;quot;:73,&amp;quot;w&amp;quot;:100,&amp;quot;x&amp;quot;:1224.3142765590123,&amp;quot;h&amp;quot;:40,&amp;quot;y&amp;quot;:337.61427961077004,&amp;quot;angle&amp;quot;:0},&amp;quot;path&amp;quot;:[{&amp;quot;lineStyle&amp;quot;:{&amp;quot;lineWidth&amp;quot;:0},&amp;quot;fillStyle&amp;quot;:{&amp;quot;type&amp;quot;:&amp;quot;none&amp;quot;},&amp;quot;actions&amp;quot;:[{&amp;quot;x&amp;quot;:&amp;quot;0&amp;quot;,&amp;quot;action&amp;quot;:&amp;quot;move&amp;quot;,&amp;quot;y&amp;quot;:&amp;quot;0&amp;quot;},{&amp;quot;x&amp;quot;:&amp;quot;w&amp;quot;,&amp;quot;action&amp;quot;:&amp;quot;line&amp;quot;,&amp;quot;y&amp;quot;:&amp;quot;0&amp;quot;},{&amp;quot;x&amp;quot;:&amp;quot;w&amp;quot;,&amp;quot;action&amp;quot;:&amp;quot;line&amp;quot;,&amp;quot;y&amp;quot;:&amp;quot;h&amp;quot;},{&amp;quot;x&amp;quot;:&amp;quot;0&amp;quot;,&amp;quot;action&amp;quot;:&amp;quot;line&amp;quot;,&amp;quot;y&amp;quot;:&amp;quot;h&amp;quot;},{&amp;quot;action&amp;quot;:&amp;quot;close&amp;quot;}]}],&amp;quot;lineStyle&amp;quot;:{},&amp;quot;children&amp;quot;:[],&amp;quot;resizeDir&amp;quot;:[&amp;quot;tl&amp;quot;,&amp;quot;tr&amp;quot;,&amp;quot;br&amp;quot;,&amp;quot;bl&amp;quot;,&amp;quot;l&amp;quot;,&amp;quot;t&amp;quot;,&amp;quot;r&amp;quot;,&amp;quot;b&amp;quot;],&amp;quot;name&amp;quot;:&amp;quot;standardText&amp;quot;,&amp;quot;fillStyle&amp;quot;:{},&amp;quot;theme&amp;quot;:{},&amp;quot;id&amp;quot;:&amp;quot;vcYePIJama351788&amp;quot;,&amp;quot;attribute&amp;quot;:{&amp;quot;container&amp;quot;:false,&amp;quot;rotatable&amp;quot;:true,&amp;quot;visible&amp;quot;:true,&amp;quot;fixedLink&amp;quot;:false,&amp;quot;collapsable&amp;quot;:false,&amp;quot;collapsed&amp;quot;:false,&amp;quot;linkable&amp;quot;:false,&amp;quot;markerOffset&amp;quot;:5},&amp;quot;category&amp;quot;:&amp;quot;standard&amp;quot;,&amp;quot;locked&amp;quot;:false,&amp;quot;group&amp;quot;:&amp;quot;&amp;quot;},{&amp;quot;parent&amp;quot;:&amp;quot;&amp;quot;,&amp;quot;link&amp;quot;:&amp;quot;&amp;quot;,&amp;quot;shapeStyle&amp;quot;:{&amp;quot;alpha&amp;quot;:1},&amp;quot;textBlock&amp;quot;:[{&amp;quot;position&amp;quot;:{&amp;quot;w&amp;quot;:&amp;quot;w&amp;quot;,&amp;quot;x&amp;quot;:0,&amp;quot;h&amp;quot;:&amp;quot;h&amp;quot;,&amp;quot;y&amp;quot;:0},&amp;quot;text&amp;quot;:&amp;quot;N&amp;quot;}],&amp;quot;anchors&amp;quot;:[],&amp;quot;title&amp;quot;:&amp;quot;&amp;quot;,&amp;quot;fontStyle&amp;quot;:{},&amp;quot;dataAttributes&amp;quot;:[],&amp;quot;props&amp;quot;:{&amp;quot;zindex&amp;quot;:74,&amp;quot;w&amp;quot;:100,&amp;quot;x&amp;quot;:822.3142765590123,&amp;quot;h&amp;quot;:40,&amp;quot;y&amp;quot;:344.91428266252785,&amp;quot;angle&amp;quot;:0},&amp;quot;path&amp;quot;:[{&amp;quot;lineStyle&amp;quot;:{&amp;quot;lineWidth&amp;quot;:0},&amp;quot;fillStyle&amp;quot;:{&amp;quot;type&amp;quot;:&amp;quot;none&amp;quot;},&amp;quot;actions&amp;quot;:[{&amp;quot;x&amp;quot;:&amp;quot;0&amp;quot;,&amp;quot;action&amp;quot;:&amp;quot;move&amp;quot;,&amp;quot;y&amp;quot;:&amp;quot;0&amp;quot;},{&amp;quot;x&amp;quot;:&amp;quot;w&amp;quot;,&amp;quot;action&amp;quot;:&amp;quot;line&amp;quot;,&amp;quot;y&amp;quot;:&amp;quot;0&amp;quot;},{&amp;quot;x&amp;quot;:&amp;quot;w&amp;quot;,&amp;quot;action&amp;quot;:&amp;quot;line&amp;quot;,&amp;quot;y&amp;quot;:&amp;quot;h&amp;quot;},{&amp;quot;x&amp;quot;:&amp;quot;0&amp;quot;,&amp;quot;action&amp;quot;:&amp;quot;line&amp;quot;,&amp;quot;y&amp;quot;:&amp;quot;h&amp;quot;},{&amp;quot;action&amp;quot;:&amp;quot;close&amp;quot;}]}],&amp;quot;lineStyle&amp;quot;:{},&amp;quot;children&amp;quot;:[],&amp;quot;resizeDir&amp;quot;:[&amp;quot;tl&amp;quot;,&amp;quot;tr&amp;quot;,&amp;quot;br&amp;quot;,&amp;quot;bl&amp;quot;,&amp;quot;l&amp;quot;,&amp;quot;t&amp;quot;,&amp;quot;r&amp;quot;,&amp;quot;b&amp;quot;],&amp;quot;name&amp;quot;:&amp;quot;standardText&amp;quot;,&amp;quot;fillStyle&amp;quot;:{},&amp;quot;theme&amp;quot;:{},&amp;quot;id&amp;quot;:&amp;quot;QRYyKyuuWT223795&amp;quot;,&amp;quot;attribute&amp;quot;:{&amp;quot;container&amp;quot;:false,&amp;quot;rotatable&amp;quot;:true,&amp;quot;visible&amp;quot;:true,&amp;quot;fixedLink&amp;quot;:false,&amp;quot;collapsable&amp;quot;:false,&amp;quot;collapsed&amp;quot;:false,&amp;quot;linkable&amp;quot;:false,&amp;quot;markerOffset&amp;quot;:5},&amp;quot;category&amp;quot;:&amp;quot;standard&amp;quot;,&amp;quot;locked&amp;quot;:false,&amp;quot;group&amp;quot;:&amp;quot;&amp;quot;},{&amp;quot;parent&amp;quot;:&amp;quot;&amp;quot;,&amp;quot;link&amp;quot;:&amp;quot;&amp;quot;,&amp;quot;shapeStyle&amp;quot;:{&amp;quot;alpha&amp;quot;:1},&amp;quot;textBlock&amp;quot;:[{&amp;quot;position&amp;quot;:{&amp;quot;w&amp;quot;:&amp;quot;w&amp;quot;,&amp;quot;x&amp;quot;:0,&amp;quot;h&amp;quot;:&amp;quot;h&amp;quot;,&amp;quot;y&amp;quot;:0},&amp;quot;text&amp;quot;:&amp;quot;Y&amp;quot;}],&amp;quot;anchors&amp;quot;:[],&amp;quot;title&amp;quot;:&amp;quot;&amp;quot;,&amp;quot;fontStyle&amp;quot;:{},&amp;quot;dataAttributes&amp;quot;:[],&amp;quot;props&amp;quot;:{&amp;quot;zindex&amp;quot;:83,&amp;quot;w&amp;quot;:100,&amp;quot;x&amp;quot;:1131.3142765590123,&amp;quot;h&amp;quot;:40,&amp;quot;y&amp;quot;:287.91428266252785,&amp;quot;angle&amp;quot;:0},&amp;quot;path&amp;quot;:[{&amp;quot;lineStyle&amp;quot;:{&amp;quot;lineWidth&amp;quot;:0},&amp;quot;fillStyle&amp;quot;:{&amp;quot;type&amp;quot;:&amp;quot;none&amp;quot;},&amp;quot;actions&amp;quot;:[{&amp;quot;x&amp;quot;:&amp;quot;0&amp;quot;,&amp;quot;action&amp;quot;:&amp;quot;move&amp;quot;,&amp;quot;y&amp;quot;:&amp;quot;0&amp;quot;},{&amp;quot;x&amp;quot;:&amp;quot;w&amp;quot;,&amp;quot;action&amp;quot;:&amp;quot;line&amp;quot;,&amp;quot;y&amp;quot;:&amp;quot;0&amp;quot;},{&amp;quot;x&amp;quot;:&amp;quot;w&amp;quot;,&amp;quot;action&amp;quot;:&amp;quot;line&amp;quot;,&amp;quot;y&amp;quot;:&amp;quot;h&amp;quot;},{&amp;quot;x&amp;quot;:&amp;quot;0&amp;quot;,&amp;quot;action&amp;quot;:&amp;quot;line&amp;quot;,&amp;quot;y&amp;quot;:&amp;quot;h&amp;quot;},{&amp;quot;action&amp;quot;:&amp;quot;close&amp;quot;}]}],&amp;quot;lineStyle&amp;quot;:{},&amp;quot;children&amp;quot;:[],&amp;quot;resizeDir&amp;quot;:[&amp;quot;tl&amp;quot;,&amp;quot;tr&amp;quot;,&amp;quot;br&amp;quot;,&amp;quot;bl&amp;quot;,&amp;quot;l&amp;quot;,&amp;quot;t&amp;quot;,&amp;quot;r&amp;quot;,&amp;quot;b&amp;quot;],&amp;quot;name&amp;quot;:&amp;quot;standardText&amp;quot;,&amp;quot;fillStyle&amp;quot;:{},&amp;quot;theme&amp;quot;:{},&amp;quot;id&amp;quot;:&amp;quot;QgSoHOkzEF707124&amp;quot;,&amp;quot;attribute&amp;quot;:{&amp;quot;container&amp;quot;:false,&amp;quot;rotatable&amp;quot;:true,&amp;quot;visible&amp;quot;:true,&amp;quot;fixedLink&amp;quot;:false,&amp;quot;collapsable&amp;quot;:false,&amp;quot;collapsed&amp;quot;:false,&amp;quot;linkable&amp;quot;:false,&amp;quot;markerOffset&amp;quot;:5},&amp;quot;category&amp;quot;:&amp;quot;standard&amp;quot;,&amp;quot;locked&amp;quot;:false,&amp;quot;group&amp;quot;:&amp;quot;&amp;quot;},{&amp;quot;parent&amp;quot;:&amp;quot;&amp;quot;,&amp;quot;link&amp;quot;:&amp;quot;&amp;quot;,&amp;quot;shapeStyle&amp;quot;:{&amp;quot;alpha&amp;quot;:1},&amp;quot;textBlock&amp;quot;:[{&amp;quot;position&amp;quot;:{&amp;quot;w&amp;quot;:&amp;quot;w&amp;quot;,&amp;quot;x&amp;quot;:0,&amp;quot;h&amp;quot;:&amp;quot;h&amp;quot;,&amp;quot;y&amp;quot;:0},&amp;quot;text&amp;quot;:&amp;quot;Y&amp;quot;}],&amp;quot;anchors&amp;quot;:[],&amp;quot;title&amp;quot;:&amp;quot;&amp;quot;,&amp;quot;fontStyle&amp;quot;:{},&amp;quot;dataAttributes&amp;quot;:[],&amp;quot;props&amp;quot;:{&amp;quot;zindex&amp;quot;:84,&amp;quot;w&amp;quot;:100,&amp;quot;x&amp;quot;:747.3142765590123,&amp;quot;h&amp;quot;:40,&amp;quot;y&amp;quot;:281.21428571428567,&amp;quot;angle&amp;quot;:0},&amp;quot;path&amp;quot;:[{&amp;quot;lineStyle&amp;quot;:{&amp;quot;lineWidth&amp;quot;:0},&amp;quot;fillStyle&amp;quot;:{&amp;quot;type&amp;quot;:&amp;quot;none&amp;quot;},&amp;quot;actions&amp;quot;:[{&amp;quot;x&amp;quot;:&amp;quot;0&amp;quot;,&amp;quot;action&amp;quot;:&amp;quot;move&amp;quot;,&amp;quot;y&amp;quot;:&amp;quot;0&amp;quot;},{&amp;quot;x&amp;quot;:&amp;quot;w&amp;quot;,&amp;quot;action&amp;quot;:&amp;quot;line&amp;quot;,&amp;quot;y&amp;quot;:&amp;quot;0&amp;quot;},{&amp;quot;x&amp;quot;:&amp;quot;w&amp;quot;,&amp;quot;action&amp;quot;:&amp;quot;line&amp;quot;,&amp;quot;y&amp;quot;:&amp;quot;h&amp;quot;},{&amp;quot;x&amp;quot;:&amp;quot;0&amp;quot;,&amp;quot;action&amp;quot;:&amp;quot;line&amp;quot;,&amp;quot;y&amp;quot;:&amp;quot;h&amp;quot;},{&amp;quot;action&amp;quot;:&amp;quot;close&amp;quot;}]}],&amp;quot;lineStyle&amp;quot;:{},&amp;quot;children&amp;quot;:[],&amp;quot;resizeDir&amp;quot;:[&amp;quot;tl&amp;quot;,&amp;quot;tr&amp;quot;,&amp;quot;br&amp;quot;,&amp;quot;bl&amp;quot;,&amp;quot;l&amp;quot;,&amp;quot;t&amp;quot;,&amp;quot;r&amp;quot;,&amp;quot;b&amp;quot;],&amp;quot;name&amp;quot;:&amp;quot;standardText&amp;quot;,&amp;quot;fillStyle&amp;quot;:{},&amp;quot;theme&amp;quot;:{},&amp;quot;id&amp;quot;:&amp;quot;hxXigalEgG861099&amp;quot;,&amp;quot;attribute&amp;quot;:{&amp;quot;container&amp;quot;:false,&amp;quot;rotatable&amp;quot;:true,&amp;quot;visible&amp;quot;:true,&amp;quot;fixedLink&amp;quot;:false,&amp;quot;collapsable&amp;quot;:false,&amp;quot;collapsed&amp;quot;:false,&amp;quot;linkable&amp;quot;:false,&amp;quot;markerOffset&amp;quot;:5},&amp;quot;category&amp;quot;:&amp;quot;standard&amp;quot;,&amp;quot;locked&amp;quot;:false,&amp;quot;group&amp;quot;:&amp;quot;&amp;quot;},{&amp;quot;parent&amp;quot;:&amp;quot;&amp;quot;,&amp;quot;link&amp;quot;:&amp;quot;&amp;quot;,&amp;quot;shapeStyle&amp;quot;:{&amp;quot;alpha&amp;quot;:1},&amp;quot;textBlock&amp;quot;:[{&amp;quot;position&amp;quot;:{&amp;quot;w&amp;quot;:&amp;quot;w-20&amp;quot;,&amp;quot;x&amp;quot;:&amp;quot;10&amp;quot;,&amp;quot;h&amp;quot;:&amp;quot;h*0.75&amp;quot;,&amp;quot;y&amp;quot;:&amp;quot;h*0.13&amp;quot;},&amp;quot;text&amp;quot;:&amp;quot;是否诊断&amp;quot;}],&amp;quot;anchors&amp;quot;:[{&amp;quot;x&amp;quot;:&amp;quot;0&amp;quot;,&amp;quot;y&amp;quot;:&amp;quot;h/2&amp;quot;},{&amp;quot;x&amp;quot;:&amp;quot;w/2&amp;quot;,&amp;quot;y&amp;quot;:&amp;quot;0&amp;quot;},{&amp;quot;x&amp;quot;:&amp;quot;w&amp;quot;,&amp;quot;y&amp;quot;:&amp;quot;h/2&amp;quot;},{&amp;quot;x&amp;quot;:&amp;quot;w/2&amp;quot;,&amp;quot;y&amp;quot;:&amp;quot;h&amp;quot;}],&amp;quot;title&amp;quot;:&amp;quot;菱形&amp;quot;,&amp;quot;fontStyle&amp;quot;:{},&amp;quot;dataAttributes&amp;quot;:[{&amp;quot;name&amp;quot;:&amp;quot;序号&amp;quot;,&amp;quot;id&amp;quot;:&amp;quot;rGimxdZMea372054&amp;quot;,&amp;quot;type&amp;quot;:&amp;quot;number&amp;quot;,&amp;quot;category&amp;quot;:&amp;quot;default&amp;quot;,&amp;quot;value&amp;quot;:&amp;quot;&amp;quot;},{&amp;quot;name&amp;quot;:&amp;quot;名称&amp;quot;,&amp;quot;id&amp;quot;:&amp;quot;XdamwhKIvR530593&amp;quot;,&amp;quot;type&amp;quot;:&amp;quot;string&amp;quot;,&amp;quot;category&amp;quot;:&amp;quot;default&amp;quot;,&amp;quot;value&amp;quot;:&amp;quot;&amp;quot;},{&amp;quot;name&amp;quot;:&amp;quot;所有者&amp;quot;,&amp;quot;id&amp;quot;:&amp;quot;QqIrpZlVeA928671&amp;quot;,&amp;quot;type&amp;quot;:&amp;quot;string&amp;quot;,&amp;quot;category&amp;quot;:&amp;quot;default&amp;quot;,&amp;quot;value&amp;quot;:&amp;quot;&amp;quot;},{&amp;quot;name&amp;quot;:&amp;quot;连接&amp;quot;,&amp;quot;id&amp;quot;:&amp;quot;YmEEzJPrVC336598&amp;quot;,&amp;quot;type&amp;quot;:&amp;quot;link&amp;quot;,&amp;quot;category&amp;quot;:&amp;quot;default&amp;quot;,&amp;quot;value&amp;quot;:&amp;quot;&amp;quot;},{&amp;quot;name&amp;quot;:&amp;quot;便笺&amp;quot;,&amp;quot;id&amp;quot;:&amp;quot;OgTxtEUTEG473095&amp;quot;,&amp;quot;type&amp;quot;:&amp;quot;string&amp;quot;,&amp;quot;category&amp;quot;:&amp;quot;default&amp;quot;,&amp;quot;value&amp;quot;:&amp;quot;&amp;quot;}],&amp;quot;props&amp;quot;:{&amp;quot;zindex&amp;quot;:100,&amp;quot;w&amp;quot;:96,&amp;quot;x&amp;quot;:324.31427655901234,&amp;quot;h&amp;quot;:70,&amp;quot;y&amp;quot;:273.41428266252785,&amp;quot;angle&amp;quot;:0},&amp;quot;path&amp;quot;:[{&amp;quot;actions&amp;quot;:[{&amp;quot;x&amp;quot;:&amp;quot;0&amp;quot;,&amp;quot;action&amp;quot;:&amp;quot;move&amp;quot;,&amp;quot;y&amp;quot;:&amp;quot;h/2&amp;quot;},{&amp;quot;x&amp;quot;:&amp;quot;w/2&amp;quot;,&amp;quot;action&amp;quot;:&amp;quot;line&amp;quot;,&amp;quot;y&amp;quot;:&amp;quot;0&amp;quot;},{&amp;quot;x&amp;quot;:&amp;quot;w&amp;quot;,&amp;quot;action&amp;quot;:&amp;quot;line&amp;quot;,&amp;quot;y&amp;quot;:&amp;quot;h/2&amp;quot;},{&amp;quot;x&amp;quot;:&amp;quot;w/2&amp;quot;,&amp;quot;action&amp;quot;:&amp;quot;line&amp;quot;,&amp;quot;y&amp;quot;:&amp;quot;h&amp;quot;},{&amp;quot;action&amp;quot;:&amp;quot;close&amp;quot;}]}],&amp;quot;lineStyle&amp;quot;:{&amp;quot;lineWidth&amp;quot;:1.5},&amp;quot;children&amp;quot;:[],&amp;quot;resizeDir&amp;quot;:[&amp;quot;tl&amp;quot;,&amp;quot;tr&amp;quot;,&amp;quot;br&amp;quot;,&amp;quot;bl&amp;quot;,&amp;quot;l&amp;quot;,&amp;quot;t&amp;quot;,&amp;quot;r&amp;quot;,&amp;quot;b&amp;quot;],&amp;quot;name&amp;quot;:&amp;quot;diamond&amp;quot;,&amp;quot;fillStyle&amp;quot;:{},&amp;quot;theme&amp;quot;:{},&amp;quot;id&amp;quot;:&amp;quot;NMjGbkPFIR313423&amp;quot;,&amp;quot;attribute&amp;quot;:{&amp;quot;container&amp;quot;:false,&amp;quot;rotatable&amp;quot;:true,&amp;quot;visible&amp;quot;:true,&amp;quot;fixedLink&amp;quot;:false,&amp;quot;collapsable&amp;quot;:false,&amp;quot;collapsed&amp;quot;:false,&amp;quot;linkable&amp;quot;:true,&amp;quot;markerOffset&amp;quot;:5},&amp;quot;category&amp;quot;:&amp;quot;basic&amp;quot;,&amp;quot;locked&amp;quot;:false,&amp;quot;group&amp;quot;:&amp;quot;&amp;quot;},{&amp;quot;parent&amp;quot;:&amp;quot;&amp;quot;,&amp;quot;link&amp;quot;:&amp;quot;&amp;quot;,&amp;quot;shapeStyle&amp;quot;:{&amp;quot;alpha&amp;quot;:1},&amp;quot;textBlock&amp;quot;:[{&amp;quot;position&amp;quot;:{&amp;quot;w&amp;quot;:&amp;quot;w&amp;quot;,&amp;quot;x&amp;quot;:0,&amp;quot;h&amp;quot;:&amp;quot;h&amp;quot;,&amp;quot;y&amp;quot;:0},&amp;quot;text&amp;quot;:&amp;quot;N&amp;quot;}],&amp;quot;anchors&amp;quot;:[{&amp;quot;x&amp;quot;:&amp;quot;w/2&amp;quot;,&amp;quot;y&amp;quot;:&amp;quot;0&amp;quot;},{&amp;quot;x&amp;quot;:&amp;quot;w/2&amp;quot;,&amp;quot;y&amp;quot;:&amp;quot;h&amp;quot;},{&amp;quot;x&amp;quot;:&amp;quot;0&amp;quot;,&amp;quot;y&amp;quot;:&amp;quot;h/2&amp;quot;},{&amp;quot;x&amp;quot;:&amp;quot;w&amp;quot;,&amp;quot;y&amp;quot;:&amp;quot;h/2&amp;quot;}],&amp;quot;title&amp;quot;:&amp;quot;文本&amp;quot;,&amp;quot;fontStyle&amp;quot;:{},&amp;quot;dataAttributes&amp;quot;:[{&amp;quot;name&amp;quot;:&amp;quot;序号&amp;quot;,&amp;quot;id&amp;quot;:&amp;quot;OkEYhWKkqC863265&amp;quot;,&amp;quot;type&amp;quot;:&amp;quot;number&amp;quot;,&amp;quot;category&amp;quot;:&amp;quot;default&amp;quot;,&amp;quot;value&amp;quot;:&amp;quot;&amp;quot;},{&amp;quot;name&amp;quot;:&amp;quot;名称&amp;quot;,&amp;quot;id&amp;quot;:&amp;quot;zEkfJAyNRl540594&amp;quot;,&amp;quot;type&amp;quot;:&amp;quot;string&amp;quot;,&amp;quot;category&amp;quot;:&amp;quot;default&amp;quot;,&amp;quot;value&amp;quot;:&amp;quot;&amp;quot;},{&amp;quot;name&amp;quot;:&amp;quot;所有者&amp;quot;,&amp;quot;id&amp;quot;:&amp;quot;FNqMClulHH348691&amp;quot;,&amp;quot;type&amp;quot;:&amp;quot;string&amp;quot;,&amp;quot;category&amp;quot;:&amp;quot;default&amp;quot;,&amp;quot;value&amp;quot;:&amp;quot;&amp;quot;},{&amp;quot;name&amp;quot;:&amp;quot;连接&amp;quot;,&amp;quot;id&amp;quot;:&amp;quot;zYBttivvPb145014&amp;quot;,&amp;quot;type&amp;quot;:&amp;quot;link&amp;quot;,&amp;quot;category&amp;quot;:&amp;quot;default&amp;quot;,&amp;quot;value&amp;quot;:&amp;quot;&amp;quot;},{&amp;quot;name&amp;quot;:&amp;quot;便笺&amp;quot;,&amp;quot;id&amp;quot;:&amp;quot;uEdfYbiEYs653541&amp;quot;,&amp;quot;type&amp;quot;:&amp;quot;string&amp;quot;,&amp;quot;category&amp;quot;:&amp;quot;default&amp;quot;,&amp;quot;value&amp;quot;:&amp;quot;&amp;quot;}],&amp;quot;props&amp;quot;:{&amp;quot;zindex&amp;quot;:102,&amp;quot;w&amp;quot;:100,&amp;quot;x&amp;quot;:274.31427655901234,&amp;quot;h&amp;quot;:40,&amp;quot;y&amp;quot;:263.91428266252785,&amp;quot;angle&amp;quot;:0},&amp;quot;path&amp;quot;:[{&amp;quot;lineStyle&amp;quot;:{&amp;quot;lineWidth&amp;quot;:0},&amp;quot;fillStyle&amp;quot;:{&amp;quot;type&amp;quot;:&amp;quot;none&amp;quot;},&amp;quot;actions&amp;quot;:[{&amp;quot;x&amp;quot;:&amp;quot;0&amp;quot;,&amp;quot;action&amp;quot;:&amp;quot;move&amp;quot;,&amp;quot;y&amp;quot;:&amp;quot;0&amp;quot;},{&amp;quot;x&amp;quot;:&amp;quot;w&amp;quot;,&amp;quot;action&amp;quot;:&amp;quot;line&amp;quot;,&amp;quot;y&amp;quot;:&amp;quot;0&amp;quot;},{&amp;quot;x&amp;quot;:&amp;quot;w&amp;quot;,&amp;quot;action&amp;quot;:&amp;quot;line&amp;quot;,&amp;quot;y&amp;quot;:&amp;quot;h&amp;quot;},{&amp;quot;x&amp;quot;:&amp;quot;0&amp;quot;,&amp;quot;action&amp;quot;:&amp;quot;line&amp;quot;,&amp;quot;y&amp;quot;:&amp;quot;h&amp;quot;},{&amp;quot;action&amp;quot;:&amp;quot;close&amp;quot;}]}],&amp;quot;lineStyle&amp;quot;:{&amp;quot;lineWidth&amp;quot;:1.5},&amp;quot;children&amp;quot;:[],&amp;quot;resizeDir&amp;quot;:[&amp;quot;tl&amp;quot;,&amp;quot;tr&amp;quot;,&amp;quot;br&amp;quot;,&amp;quot;bl&amp;quot;,&amp;quot;l&amp;quot;,&amp;quot;t&amp;quot;,&amp;quot;r&amp;quot;,&amp;quot;b&amp;quot;],&amp;quot;name&amp;quot;:&amp;quot;text&amp;quot;,&amp;quot;fillStyle&amp;quot;:{},&amp;quot;theme&amp;quot;:{},&amp;quot;id&amp;quot;:&amp;quot;CgBOXDUYNG221670&amp;quot;,&amp;quot;attribute&amp;quot;:{&amp;quot;container&amp;quot;:false,&amp;quot;rotatable&amp;quot;:true,&amp;quot;visible&amp;quot;:true,&amp;quot;fixedLink&amp;quot;:false,&amp;quot;collapsable&amp;quot;:false,&amp;quot;collapsed&amp;quot;:false,&amp;quot;linkable&amp;quot;:true,&amp;quot;markerOffset&amp;quot;:5},&amp;quot;category&amp;quot;:&amp;quot;basic&amp;quot;,&amp;quot;locked&amp;quot;:false,&amp;quot;group&amp;quot;:&amp;quot;&amp;quot;},{&amp;quot;parent&amp;quot;:&amp;quot;&amp;quot;,&amp;quot;link&amp;quot;:&amp;quot;&amp;quot;,&amp;quot;shapeStyle&amp;quot;:{&amp;quot;alpha&amp;quot;:1},&amp;quot;textBlock&amp;quot;:[{&amp;quot;position&amp;quot;:{&amp;quot;w&amp;quot;:&amp;quot;w-20&amp;quot;,&amp;quot;x&amp;quot;:10,&amp;quot;h&amp;quot;:&amp;quot;h&amp;quot;,&amp;quot;y&amp;quot;:0},&amp;quot;text&amp;quot;:&amp;quot;(脑卒中状态，推送诊断状态)&amp;quot;}],&amp;quot;anchors&amp;quot;:[{&amp;quot;x&amp;quot;:&amp;quot;w/2&amp;quot;,&amp;quot;y&amp;quot;:&amp;quot;0&amp;quot;},{&amp;quot;x&amp;quot;:&amp;quot;w/2&amp;quot;,&amp;quot;y&amp;quot;:&amp;quot;h&amp;quot;},{&amp;quot;x&amp;quot;:&amp;quot;0&amp;quot;,&amp;quot;y&amp;quot;:&amp;quot;h/2&amp;quot;},{&amp;quot;x&amp;quot;:&amp;quot;w&amp;quot;,&amp;quot;y&amp;quot;:&amp;quot;h/2&amp;quot;}],&amp;quot;title&amp;quot;:&amp;quot;矩形&amp;quot;,&amp;quot;fontStyle&amp;quot;:{},&amp;quot;dataAttributes&amp;quot;:[{&amp;quot;name&amp;quot;:&amp;quot;序号&amp;quot;,&amp;quot;id&amp;quot;:&amp;quot;OPbRIHwFcw049179&amp;quot;,&amp;quot;type&amp;quot;:&amp;quot;number&amp;quot;,&amp;quot;category&amp;quot;:&amp;quot;default&amp;quot;,&amp;quot;value&amp;quot;:&amp;quot;&amp;quot;},{&amp;quot;name&amp;quot;:&amp;quot;名称&amp;quot;,&amp;quot;id&amp;quot;:&amp;quot;ArLEzTVcQD958150&amp;quot;,&amp;quot;type&amp;quot;:&amp;quot;string&amp;quot;,&amp;quot;category&amp;quot;:&amp;quot;default&amp;quot;,&amp;quot;value&amp;quot;:&amp;quot;&amp;quot;},{&amp;quot;name&amp;quot;:&amp;quot;所有者&amp;quot;,&amp;quot;id&amp;quot;:&amp;quot;IHAksxoshu394823&amp;quot;,&amp;quot;type&amp;quot;:&amp;quot;string&amp;quot;,&amp;quot;category&amp;quot;:&amp;quot;default&amp;quot;,&amp;quot;value&amp;quot;:&amp;quot;&amp;quot;},{&amp;quot;name&amp;quot;:&amp;quot;连接&amp;quot;,&amp;quot;id&amp;quot;:&amp;quot;gQqOTsXFVv304959&amp;quot;,&amp;quot;type&amp;quot;:&amp;quot;link&amp;quot;,&amp;quot;category&amp;quot;:&amp;quot;default&amp;quot;,&amp;quot;value&amp;quot;:&amp;quot;&amp;quot;},{&amp;quot;name&amp;quot;:&amp;quot;便笺&amp;quot;,&amp;quot;id&amp;quot;:&amp;quot;XbYeiJamrG382846&amp;quot;,&amp;quot;type&amp;quot;:&amp;quot;string&amp;quot;,&amp;quot;category&amp;quot;:&amp;quot;default&amp;quot;,&amp;quot;value&amp;quot;:&amp;quot;&amp;quot;}],&amp;quot;props&amp;quot;:{&amp;quot;zindex&amp;quot;:103,&amp;quot;w&amp;quot;:96,&amp;quot;x&amp;quot;:197.31427655901234,&amp;quot;h&amp;quot;:54,&amp;quot;y&amp;quot;:281.41428266252785,&amp;quot;angle&amp;quot;:0},&amp;quot;path&amp;quot;:[{&amp;quot;actions&amp;quot;:[{&amp;quot;x&amp;quot;:&amp;quot;0&amp;quot;,&amp;quot;action&amp;quot;:&amp;quot;move&amp;quot;,&amp;quot;y&amp;quot;:&amp;quot;0&amp;quot;},{&amp;quot;x&amp;quot;:&amp;quot;w&amp;quot;,&amp;quot;action&amp;quot;:&amp;quot;line&amp;quot;,&amp;quot;y&amp;quot;:&amp;quot;0&amp;quot;},{&amp;quot;x&amp;quot;:&amp;quot;w&amp;quot;,&amp;quot;action&amp;quot;:&amp;quot;line&amp;quot;,&amp;quot;y&amp;quot;:&amp;quot;h&amp;quot;},{&amp;quot;x&amp;quot;:&amp;quot;0&amp;quot;,&amp;quot;action&amp;quot;:&amp;quot;line&amp;quot;,&amp;quot;y&amp;quot;:&amp;quot;h&amp;quot;},{&amp;quot;action&amp;quot;:&amp;quot;close&amp;quot;}]}],&amp;quot;lineStyle&amp;quot;:{&amp;quot;lineWidth&amp;quot;:1.5},&amp;quot;children&amp;quot;:[],&amp;quot;resizeDir&amp;quot;:[&amp;quot;tl&amp;quot;,&amp;quot;tr&amp;quot;,&amp;quot;br&amp;quot;,&amp;quot;bl&amp;quot;,&amp;quot;l&amp;quot;,&amp;quot;t&amp;quot;,&amp;quot;r&amp;quot;,&amp;quot;b&amp;quot;],&amp;quot;name&amp;quot;:&amp;quot;rectangle&amp;quot;,&amp;quot;fillStyle&amp;quot;:{},&amp;quot;theme&amp;quot;:{},&amp;quot;id&amp;quot;:&amp;quot;TKKEyRTIPf494687&amp;quot;,&amp;quot;attribute&amp;quot;:{&amp;quot;container&amp;quot;:false,&amp;quot;rotatable&amp;quot;:true,&amp;quot;visible&amp;quot;:true,&amp;quot;fixedLink&amp;quot;:false,&amp;quot;collapsable&amp;quot;:false,&amp;quot;collapsed&amp;quot;:false,&amp;quot;linkable&amp;quot;:true,&amp;quot;markerOffset&amp;quot;:5},&amp;quot;category&amp;quot;:&amp;quot;basic&amp;quot;,&amp;quot;locked&amp;quot;:false,&amp;quot;group&amp;quot;:&amp;quot;&amp;quot;},{&amp;quot;textBlock&amp;quot;:[],&amp;quot;points&amp;quot;:[],&amp;quot;dataAttributes&amp;quot;:[],&amp;quot;props&amp;quot;:{&amp;quot;zindex&amp;quot;:146},&amp;quot;linkerType&amp;quot;:&amp;quot;broken&amp;quot;,&amp;quot;lineStyle&amp;quot;:{&amp;quot;lineWidth&amp;quot;:1.5},&amp;quot;name&amp;quot;:&amp;quot;linker&amp;quot;,&amp;quot;from&amp;quot;:{&amp;quot;x&amp;quot;:808.3142765590123,&amp;quot;y&amp;quot;:316.41428266252785,&amp;quot;angle&amp;quot;:5.777039824101231,&amp;quot;id&amp;quot;:&amp;quot;unwqHAvvav798476&amp;quot;},&amp;quot;id&amp;quot;:&amp;quot;baKCHMtHAd871509&amp;quot;,&amp;quot;text&amp;quot;:&amp;quot;&amp;quot;,&amp;quot;to&amp;quot;:{&amp;quot;x&amp;quot;:783.3142765590123,&amp;quot;y&amp;quot;:316.41428266252785,&amp;quot;angle&amp;quot;:3.141592653589793,&amp;quot;id&amp;quot;:&amp;quot;YfkmGeNqHe536594&amp;quot;},&amp;quot;locked&amp;quot;:false,&amp;quot;group&amp;quot;:&amp;quot;&amp;quot;},{&amp;quot;textBlock&amp;quot;:[],&amp;quot;points&amp;quot;:[{&amp;quot;x&amp;quot;:853.3142765590123,&amp;quot;y&amp;quot;:366.91428266252785},{&amp;quot;x&amp;quot;:853.3142765590123,&amp;quot;y&amp;quot;:366.91428266252785}],&amp;quot;dataAttributes&amp;quot;:[],&amp;quot;props&amp;quot;:{&amp;quot;zindex&amp;quot;:147},&amp;quot;linkerType&amp;quot;:&amp;quot;broken&amp;quot;,&amp;quot;lineStyle&amp;quot;:{&amp;quot;lineWidth&amp;quot;:1.5},&amp;quot;name&amp;quot;:&amp;quot;linker&amp;quot;,&amp;quot;from&amp;quot;:{&amp;quot;x&amp;quot;:853.3142765590123,&amp;quot;y&amp;quot;:351.41428266252785,&amp;quot;angle&amp;quot;:4.433136300065597,&amp;quot;id&amp;quot;:&amp;quot;unwqHAvvav798476&amp;quot;},&amp;quot;id&amp;quot;:&amp;quot;LYHgGLZCSg860601&amp;quot;,&amp;quot;text&amp;quot;:&amp;quot;&amp;quot;,&amp;quot;to&amp;quot;:{&amp;quot;x&amp;quot;:853.3142765590123,&amp;quot;y&amp;quot;:382.41428266252785,&amp;quot;angle&amp;quot;:1.5707963267948963,&amp;quot;id&amp;quot;:&amp;quot;nyBRXXxIiW175101&amp;quot;},&amp;quot;locked&amp;quot;:false,&amp;quot;group&amp;quot;:&amp;quot;&amp;quot;},{&amp;quot;textBlock&amp;quot;:[],&amp;quot;points&amp;quot;:[{&amp;quot;x&amp;quot;:671.3142765590123,&amp;quot;y&amp;quot;:316.41428266252785},{&amp;quot;x&amp;quot;:671.3142765590123,&amp;quot;y&amp;quot;:316.41428266252785}],&amp;quot;dataAttributes&amp;quot;:[],&amp;quot;props&amp;quot;:{&amp;quot;zindex&amp;quot;:148},&amp;quot;linkerType&amp;quot;:&amp;quot;broken&amp;quot;,&amp;quot;lineStyle&amp;quot;:{&amp;quot;lineWidth&amp;quot;:1.5},&amp;quot;name&amp;quot;:&amp;quot;linker&amp;quot;,&amp;quot;from&amp;quot;:{&amp;quot;x&amp;quot;:683.3142765590123,&amp;quot;y&amp;quot;:316.41428266252785,&amp;quot;angle&amp;quot;:0,&amp;quot;id&amp;quot;:&amp;quot;YfkmGeNqHe536594&amp;quot;},&amp;quot;id&amp;quot;:&amp;quot;iTgZOahUKF599875&amp;quot;,&amp;quot;text&amp;quot;:&amp;quot;&amp;quot;,&amp;quot;to&amp;quot;:{&amp;quot;x&amp;quot;:659.3142765590123,&amp;quot;y&amp;quot;:316.41428266252785,&amp;quot;angle&amp;quot;:3.4906585039886595,&amp;quot;id&amp;quot;:&amp;quot;ewVewqugNk108702&amp;quot;},&amp;quot;locked&amp;quot;:false,&amp;quot;group&amp;quot;:&amp;quot;&amp;quot;},{&amp;quot;parent&amp;quot;:&amp;quot;&amp;quot;,&amp;quot;link&amp;quot;:&amp;quot;&amp;quot;,&amp;quot;shapeStyle&amp;quot;:{&amp;quot;alpha&amp;quot;:1},&amp;quot;textBlock&amp;quot;:[{&amp;quot;position&amp;quot;:{&amp;quot;w&amp;quot;:&amp;quot;w-20&amp;quot;,&amp;quot;x&amp;quot;:10,&amp;quot;h&amp;quot;:&amp;quot;h&amp;quot;,&amp;quot;y&amp;quot;:0},&amp;quot;text&amp;quot;:&amp;quot;是否时间超过迁移文件&amp;quot;}],&amp;quot;anchors&amp;quot;:[{&amp;quot;x&amp;quot;:&amp;quot;w/2&amp;quot;,&amp;quot;y&amp;quot;:&amp;quot;0&amp;quot;},{&amp;quot;x&amp;quot;:&amp;quot;w/2&amp;quot;,&amp;quot;y&amp;quot;:&amp;quot;h&amp;quot;},{&amp;quot;x&amp;quot;:&amp;quot;0&amp;quot;,&amp;quot;y&amp;quot;:&amp;quot;h/2&amp;quot;},{&amp;quot;x&amp;quot;:&amp;quot;w&amp;quot;,&amp;quot;y&amp;quot;:&amp;quot;h/2&amp;quot;}],&amp;quot;title&amp;quot;:&amp;quot;判定&amp;quot;,&amp;quot;fontStyle&amp;quot;:{},&amp;quot;dataAttributes&amp;quot;:[{&amp;quot;name&amp;quot;:&amp;quot;序号&amp;quot;,&amp;quot;id&amp;quot;:&amp;quot;dQQhuWjpFk127442&amp;quot;,&amp;quot;type&amp;quot;:&amp;quot;number&amp;quot;,&amp;quot;category&amp;quot;:&amp;quot;default&amp;quot;,&amp;quot;value&amp;quot;:&amp;quot;&amp;quot;},{&amp;quot;name&amp;quot;:&amp;quot;名称&amp;quot;,&amp;quot;id&amp;quot;:&amp;quot;kwFkTKbsuT259697&amp;quot;,&amp;quot;type&amp;quot;:&amp;quot;string&amp;quot;,&amp;quot;category&amp;quot;:&amp;quot;default&amp;quot;,&amp;quot;value&amp;quot;:&amp;quot;&amp;quot;},{&amp;quot;name&amp;quot;:&amp;quot;所有者&amp;quot;,&amp;quot;id&amp;quot;:&amp;quot;askufGpEwL816068&amp;quot;,&amp;quot;type&amp;quot;:&amp;quot;string&amp;quot;,&amp;quot;category&amp;quot;:&amp;quot;default&amp;quot;,&amp;quot;value&amp;quot;:&amp;quot;&amp;quot;},{&amp;quot;name&amp;quot;:&amp;quot;连接&amp;quot;,&amp;quot;id&amp;quot;:&amp;quot;pjFalrSQJa421964&amp;quot;,&amp;quot;type&amp;quot;:&amp;quot;link&amp;quot;,&amp;quot;category&amp;quot;:&amp;quot;default&amp;quot;,&amp;quot;value&amp;quot;:&amp;quot;&amp;quot;},{&amp;quot;name&amp;quot;:&amp;quot;便笺&amp;quot;,&amp;quot;id&amp;quot;:&amp;quot;fKwfttxqxp023324&amp;quot;,&amp;quot;type&amp;quot;:&amp;quot;string&amp;quot;,&amp;quot;category&amp;quot;:&amp;quot;default&amp;quot;,&amp;quot;value&amp;quot;:&amp;quot;&amp;quot;},{&amp;quot;name&amp;quot;:&amp;quot;成本&amp;quot;,&amp;quot;id&amp;quot;:&amp;quot;eUueWpXYOP377047&amp;quot;,&amp;quot;type&amp;quot;:&amp;quot;number&amp;quot;,&amp;quot;category&amp;quot;:&amp;quot;default&amp;quot;,&amp;quot;value&amp;quot;:&amp;quot;&amp;quot;},{&amp;quot;name&amp;quot;:&amp;quot;时间&amp;quot;,&amp;quot;id&amp;quot;:&amp;quot;FduVcVZxxF211985&amp;quot;,&amp;quot;type&amp;quot;:&amp;quot;number&amp;quot;,&amp;quot;category&amp;quot;:&amp;quot;default&amp;quot;,&amp;quot;value&amp;quot;:&amp;quot;&amp;quot;},{&amp;quot;name&amp;quot;:&amp;quot;部门&amp;quot;,&amp;quot;id&amp;quot;:&amp;quot;OARheozpMj134304&amp;quot;,&amp;quot;type&amp;quot;:&amp;quot;string&amp;quot;,&amp;quot;category&amp;quot;:&amp;quot;default&amp;quot;,&amp;quot;value&amp;quot;:&amp;quot;&amp;quot;},{&amp;quot;name&amp;quot;:&amp;quot;输入&amp;quot;,&amp;quot;id&amp;quot;:&amp;quot;EXItNwbMwh778185&amp;quot;,&amp;quot;type&amp;quot;:&amp;quot;string&amp;quot;,&amp;quot;category&amp;quot;:&amp;quot;default&amp;quot;,&amp;quot;value&amp;quot;:&amp;quot;&amp;quot;},{&amp;quot;name&amp;quot;:&amp;quot;输出&amp;quot;,&amp;quot;id&amp;quot;:&amp;quot;FmvwsiCLJE425017&amp;quot;,&amp;quot;type&amp;quot;:&amp;quot;string&amp;quot;,&amp;quot;category&amp;quot;:&amp;quot;default&amp;quot;,&amp;quot;value&amp;quot;:&amp;quot;&amp;quot;},{&amp;quot;name&amp;quot;:&amp;quot;风险&amp;quot;,&amp;quot;id&amp;quot;:&amp;quot;VwcqdGSBXJ643451&amp;quot;,&amp;quot;type&amp;quot;:&amp;quot;string&amp;quot;,&amp;quot;category&amp;quot;:&amp;quot;default&amp;quot;,&amp;quot;value&amp;quot;:&amp;quot;&amp;quot;},{&amp;quot;name&amp;quot;:&amp;quot;备注&amp;quot;,&amp;quot;id&amp;quot;:&amp;quot;UgvYJTTGFw334543&amp;quot;,&amp;quot;type&amp;quot;:&amp;quot;string&amp;quot;,&amp;quot;category&amp;quot;:&amp;quot;default&amp;quot;,&amp;quot;value&amp;quot;:&amp;quot;&amp;quot;}],&amp;quot;props&amp;quot;:{&amp;quot;zindex&amp;quot;:149,&amp;quot;w&amp;quot;:90,&amp;quot;x&amp;quot;:569.3142765590123,&amp;quot;h&amp;quot;:70,&amp;quot;y&amp;quot;:281.41428266252785,&amp;quot;angle&amp;quot;:0},&amp;quot;path&amp;quot;:[{&amp;quot;actions&amp;quot;:[{&amp;quot;x&amp;quot;:&amp;quot;0&amp;quot;,&amp;quot;action&amp;quot;:&amp;quot;move&amp;quot;,&amp;quot;y&amp;quot;:&amp;quot;h/2&amp;quot;},{&amp;quot;x&amp;quot;:&amp;quot;w/2&amp;quot;,&amp;quot;action&amp;quot;:&amp;quot;line&amp;quot;,&amp;quot;y&amp;quot;:&amp;quot;0&amp;quot;},{&amp;quot;x&amp;quot;:&amp;quot;w&amp;quot;,&amp;quot;action&amp;quot;:&amp;quot;line&amp;quot;,&amp;quot;y&amp;quot;:&amp;quot;h/2&amp;quot;},{&amp;quot;x&amp;quot;:&amp;quot;w/2&amp;quot;,&amp;quot;action&amp;quot;:&amp;quot;line&amp;quot;,&amp;quot;y&amp;quot;:&amp;quot;h&amp;quot;},{&amp;quot;x&amp;quot;:&amp;quot;0&amp;quot;,&amp;quot;action&amp;quot;:&amp;quot;line&amp;quot;,&amp;quot;y&amp;quot;:&amp;quot;h/2&amp;quot;},{&amp;quot;action&amp;quot;:&amp;quot;close&amp;quot;}]}],&amp;quot;lineStyle&amp;quot;:{&amp;quot;lineWidth&amp;quot;:1.5},&amp;quot;children&amp;quot;:[],&amp;quot;resizeDir&amp;quot;:[&amp;quot;tl&amp;quot;,&amp;quot;tr&amp;quot;,&amp;quot;br&amp;quot;,&amp;quot;bl&amp;quot;,&amp;quot;l&amp;quot;,&amp;quot;t&amp;quot;,&amp;quot;r&amp;quot;,&amp;quot;b&amp;quot;],&amp;quot;name&amp;quot;:&amp;quot;decision&amp;quot;,&amp;quot;fillStyle&amp;quot;:{},&amp;quot;theme&amp;quot;:{},&amp;quot;id&amp;quot;:&amp;quot;ewVewqugNk108702&amp;quot;,&amp;quot;attribute&amp;quot;:{&amp;quot;container&amp;quot;:false,&amp;quot;rotatable&amp;quot;:true,&amp;quot;visible&amp;quot;:true,&amp;quot;fixedLink&amp;quot;:false,&amp;quot;collapsable&amp;quot;:false,&amp;quot;collapsed&amp;quot;:false,&amp;quot;linkable&amp;quot;:true,&amp;quot;markerOffset&amp;quot;:5},&amp;quot;category&amp;quot;:&amp;quot;flow&amp;quot;,&amp;quot;locked&amp;quot;:false,&amp;quot;group&amp;quot;:&amp;quot;&amp;quot;},{&amp;quot;textBlock&amp;quot;:[],&amp;quot;points&amp;quot;:[{&amp;quot;x&amp;quot;:552.8142765590123,&amp;quot;y&amp;quot;:316.41428266252785},{&amp;quot;x&amp;quot;:552.8142765590123,&amp;quot;y&amp;quot;:308.41428266252785}],&amp;quot;dataAttributes&amp;quot;:[],&amp;quot;props&amp;quot;:{&amp;quot;zindex&amp;quot;:150},&amp;quot;linkerType&amp;quot;:&amp;quot;broken&amp;quot;,&amp;quot;lineStyle&amp;quot;:{&amp;quot;lineWidth&amp;quot;:1.5},&amp;quot;name&amp;quot;:&amp;quot;linker&amp;quot;,&amp;quot;from&amp;quot;:{&amp;quot;x&amp;quot;:569.3142765590123,&amp;quot;y&amp;quot;:316.41428266252785,&amp;quot;angle&amp;quot;:5.777039824101231,&amp;quot;id&amp;quot;:&amp;quot;ewVewqugNk108702&amp;quot;},&amp;quot;id&amp;quot;:&amp;quot;sxOHOqmwTA117034&amp;quot;,&amp;quot;text&amp;quot;:&amp;quot;&amp;quot;,&amp;quot;to&amp;quot;:{&amp;quot;x&amp;quot;:536.3142765590123,&amp;quot;y&amp;quot;:308.41428266252785,&amp;quot;angle&amp;quot;:3.1415926535897936,&amp;quot;id&amp;quot;:&amp;quot;qAaxLVAaYp463888&amp;quot;},&amp;quot;locked&amp;quot;:false,&amp;quot;group&amp;quot;:&amp;quot;&amp;quot;},{&amp;quot;parent&amp;quot;:&amp;quot;&amp;quot;,&amp;quot;link&amp;quot;:&amp;quot;&amp;quot;,&amp;quot;shapeStyle&amp;quot;:{&amp;quot;alpha&amp;quot;:1},&amp;quot;textBlock&amp;quot;:[{&amp;quot;position&amp;quot;:{&amp;quot;w&amp;quot;:&amp;quot;w&amp;quot;,&amp;quot;x&amp;quot;:0,&amp;quot;h&amp;quot;:&amp;quot;h&amp;quot;,&amp;quot;y&amp;quot;:0},&amp;quot;text&amp;quot;:&amp;quot;N&amp;quot;}],&amp;quot;anchors&amp;quot;:[{&amp;quot;x&amp;quot;:&amp;quot;w/2&amp;quot;,&amp;quot;y&amp;quot;:&amp;quot;0&amp;quot;},{&amp;quot;x&amp;quot;:&amp;quot;w/2&amp;quot;,&amp;quot;y&amp;quot;:&amp;quot;h&amp;quot;},{&amp;quot;x&amp;quot;:&amp;quot;0&amp;quot;,&amp;quot;y&amp;quot;:&amp;quot;h/2&amp;quot;},{&amp;quot;x&amp;quot;:&amp;quot;w&amp;quot;,&amp;quot;y&amp;quot;:&amp;quot;h/2&amp;quot;}],&amp;quot;title&amp;quot;:&amp;quot;文本&amp;quot;,&amp;quot;fontStyle&amp;quot;:{},&amp;quot;dataAttributes&amp;quot;:[{&amp;quot;name&amp;quot;:&amp;quot;序号&amp;quot;,&amp;quot;id&amp;quot;:&amp;quot;GVBNwHIyBP723185&amp;quot;,&amp;quot;type&amp;quot;:&amp;quot;number&amp;quot;,&amp;quot;category&amp;quot;:&amp;quot;default&amp;quot;,&amp;quot;value&amp;quot;:&amp;quot;&amp;quot;},{&amp;quot;name&amp;quot;:&amp;quot;名称&amp;quot;,&amp;quot;id&amp;quot;:&amp;quot;XqtfVJHHdH173204&amp;quot;,&amp;quot;type&amp;quot;:&amp;quot;string&amp;quot;,&amp;quot;category&amp;quot;:&amp;quot;default&amp;quot;,&amp;quot;value&amp;quot;:&amp;quot;&amp;quot;},{&amp;quot;name&amp;quot;:&amp;quot;所有者&amp;quot;,&amp;quot;id&amp;quot;:&amp;quot;MzTtkqzdAf970241&amp;quot;,&amp;quot;type&amp;quot;:&amp;quot;string&amp;quot;,&amp;quot;category&amp;quot;:&amp;quot;default&amp;quot;,&amp;quot;value&amp;quot;:&amp;quot;&amp;quot;},{&amp;quot;name&amp;quot;:&amp;quot;连接&amp;quot;,&amp;quot;id&amp;quot;:&amp;quot;XrHsmViBFX817717&amp;quot;,&amp;quot;type&amp;quot;:&amp;quot;link&amp;quot;,&amp;quot;category&amp;quot;:&amp;quot;default&amp;quot;,&amp;quot;value&amp;quot;:&amp;quot;&amp;quot;},{&amp;quot;name&amp;quot;:&amp;quot;便笺&amp;quot;,&amp;quot;id&amp;quot;:&amp;quot;ESpoZuDrdR163147&amp;quot;,&amp;quot;type&amp;quot;:&amp;quot;string&amp;quot;,&amp;quot;category&amp;quot;:&amp;quot;default&amp;quot;,&amp;quot;value&amp;quot;:&amp;quot;&amp;quot;}],&amp;quot;props&amp;quot;:{&amp;quot;zindex&amp;quot;:151,&amp;quot;w&amp;quot;:100,&amp;quot;x&amp;quot;:583.3142765590123,&amp;quot;h&amp;quot;:40,&amp;quot;y&amp;quot;:342.41428266252785,&amp;quot;angle&amp;quot;:0},&amp;quot;path&amp;quot;:[{&amp;quot;lineStyle&amp;quot;:{&amp;quot;lineWidth&amp;quot;:0},&amp;quot;fillStyle&amp;quot;:{&amp;quot;type&amp;quot;:&amp;quot;none&amp;quot;},&amp;quot;actions&amp;quot;:[{&amp;quot;x&amp;quot;:&amp;quot;0&amp;quot;,&amp;quot;action&amp;quot;:&amp;quot;move&amp;quot;,&amp;quot;y&amp;quot;:&amp;quot;0&amp;quot;},{&amp;quot;x&amp;quot;:&amp;quot;w&amp;quot;,&amp;quot;action&amp;quot;:&amp;quot;line&amp;quot;,&amp;quot;y&amp;quot;:&amp;quot;0&amp;quot;},{&amp;quot;x&amp;quot;:&amp;quot;w&amp;quot;,&amp;quot;action&amp;quot;:&amp;quot;line&amp;quot;,&amp;quot;y&amp;quot;:&amp;quot;h&amp;quot;},{&amp;quot;x&amp;quot;:&amp;quot;0&amp;quot;,&amp;quot;action&amp;quot;:&amp;quot;line&amp;quot;,&amp;quot;y&amp;quot;:&amp;quot;h&amp;quot;},{&amp;quot;action&amp;quot;:&amp;quot;close&amp;quot;}]}],&amp;quot;lineStyle&amp;quot;:{&amp;quot;lineWidth&amp;quot;:1.5},&amp;quot;children&amp;quot;:[],&amp;quot;resizeDir&amp;quot;:[&amp;quot;tl&amp;quot;,&amp;quot;tr&amp;quot;,&amp;quot;br&amp;quot;,&amp;quot;bl&amp;quot;,&amp;quot;l&amp;quot;,&amp;quot;t&amp;quot;,&amp;quot;r&amp;quot;,&amp;quot;b&amp;quot;],&amp;quot;name&amp;quot;:&amp;quot;text&amp;quot;,&amp;quot;fillStyle&amp;quot;:{},&amp;quot;theme&amp;quot;:{},&amp;quot;id&amp;quot;:&amp;quot;TpnaAQbLNJ530272&amp;quot;,&amp;quot;attribute&amp;quot;:{&amp;quot;container&amp;quot;:false,&amp;quot;rotatable&amp;quot;:true,&amp;quot;visible&amp;quot;:true,&amp;quot;fixedLink&amp;quot;:false,&amp;quot;collapsable&amp;quot;:false,&amp;quot;collapsed&amp;quot;:false,&amp;quot;linkable&amp;quot;:true,&amp;quot;markerOffset&amp;quot;:5},&amp;quot;category&amp;quot;:&amp;quot;basic&amp;quot;,&amp;quot;locked&amp;quot;:false,&amp;quot;group&amp;quot;:&amp;quot;&amp;quot;},{&amp;quot;textBlock&amp;quot;:[],&amp;quot;points&amp;quot;:[{&amp;quot;x&amp;quot;:614.3142765590123,&amp;quot;y&amp;quot;:363.7668533104098},{&amp;quot;x&amp;quot;:620.4428460257395,&amp;quot;y&amp;quot;:363.7668533104098}],&amp;quot;dataAttributes&amp;quot;:[],&amp;quot;props&amp;quot;:{&amp;quot;zindex&amp;quot;:152},&amp;quot;linkerType&amp;quot;:&amp;quot;broken&amp;quot;,&amp;quot;lineStyle&amp;quot;:{&amp;quot;lineWidth&amp;quot;:1.5},&amp;quot;name&amp;quot;:&amp;quot;linker&amp;quot;,&amp;quot;from&amp;quot;:{&amp;quot;x&amp;quot;:614.3142765590123,&amp;quot;y&amp;quot;:351.41428266252785,&amp;quot;angle&amp;quot;:4.433136300065597,&amp;quot;id&amp;quot;:&amp;quot;ewVewqugNk108702&amp;quot;},&amp;quot;id&amp;quot;:&amp;quot;PNMaFGsKQB324992&amp;quot;,&amp;quot;text&amp;quot;:&amp;quot;&amp;quot;,&amp;quot;to&amp;quot;:{&amp;quot;x&amp;quot;:620.4428460257395,&amp;quot;y&amp;quot;:376.1194239582917,&amp;quot;angle&amp;quot;:1.5707963267948963,&amp;quot;id&amp;quot;:&amp;quot;mNOqNTlWWZ493833&amp;quot;},&amp;quot;locked&amp;quot;:false,&amp;quot;group&amp;quot;:&amp;quot;&amp;quot;},{&amp;quot;parent&amp;quot;:&amp;quot;&amp;quot;,&amp;quot;link&amp;quot;:&amp;quot;&amp;quot;,&amp;quot;shapeStyle&amp;quot;:{&amp;quot;alpha&amp;quot;:1},&amp;quot;textBlock&amp;quot;:[{&amp;quot;position&amp;quot;:{&amp;quot;w&amp;quot;:&amp;quot;w-20&amp;quot;,&amp;quot;x&amp;quot;:10,&amp;quot;h&amp;quot;:&amp;quot;h&amp;quot;,&amp;quot;y&amp;quot;:0},&amp;quot;text&amp;quot;:&amp;quot;结束&amp;quot;}],&amp;quot;anchors&amp;quot;:[{&amp;quot;x&amp;quot;:&amp;quot;w/2&amp;quot;,&amp;quot;y&amp;quot;:&amp;quot;0&amp;quot;},{&amp;quot;x&amp;quot;:&amp;quot;w/2&amp;quot;,&amp;quot;y&amp;quot;:&amp;quot;h&amp;quot;},{&amp;quot;x&amp;quot;:&amp;quot;0&amp;quot;,&amp;quot;y&amp;quot;:&amp;quot;h/2&amp;quot;},{&amp;quot;x&amp;quot;:&amp;quot;w&amp;quot;,&amp;quot;y&amp;quot;:&amp;quot;h/2&amp;quot;}],&amp;quot;title&amp;quot;:&amp;quot;流程&amp;quot;,&amp;quot;fontStyle&amp;quot;:{},&amp;quot;dataAttributes&amp;quot;:[{&amp;quot;name&amp;quot;:&amp;quot;序号&amp;quot;,&amp;quot;id&amp;quot;:&amp;quot;zKbaCCzDvV635011&amp;quot;,&amp;quot;type&amp;quot;:&amp;quot;number&amp;quot;,&amp;quot;category&amp;quot;:&amp;quot;default&amp;quot;,&amp;quot;value&amp;quot;:&amp;quot;&amp;quot;},{&amp;quot;name&amp;quot;:&amp;quot;名称&amp;quot;,&amp;quot;id&amp;quot;:&amp;quot;CVgeZDAuli907948&amp;quot;,&amp;quot;type&amp;quot;:&amp;quot;string&amp;quot;,&amp;quot;category&amp;quot;:&amp;quot;default&amp;quot;,&amp;quot;value&amp;quot;:&amp;quot;&amp;quot;},{&amp;quot;name&amp;quot;:&amp;quot;所有者&amp;quot;,&amp;quot;id&amp;quot;:&amp;quot;IsJDHxmcua244056&amp;quot;,&amp;quot;type&amp;quot;:&amp;quot;string&amp;quot;,&amp;quot;category&amp;quot;:&amp;quot;default&amp;quot;,&amp;quot;value&amp;quot;:&amp;quot;&amp;quot;},{&amp;quot;name&amp;quot;:&amp;quot;连接&amp;quot;,&amp;quot;id&amp;quot;:&amp;quot;VCLEGccSOt496399&amp;quot;,&amp;quot;type&amp;quot;:&amp;quot;link&amp;quot;,&amp;quot;category&amp;quot;:&amp;quot;default&amp;quot;,&amp;quot;value&amp;quot;:&amp;quot;&amp;quot;},{&amp;quot;name&amp;quot;:&amp;quot;便笺&amp;quot;,&amp;quot;id&amp;quot;:&amp;quot;aEEJjREUPg968092&amp;quot;,&amp;quot;type&amp;quot;:&amp;quot;string&amp;quot;,&amp;quot;category&amp;quot;:&amp;quot;default&amp;quot;,&amp;quot;value&amp;quot;:&amp;quot;&amp;quot;},{&amp;quot;name&amp;quot;:&amp;quot;成本&amp;quot;,&amp;quot;id&amp;quot;:&amp;quot;qvsxEFQqMe678250&amp;quot;,&amp;quot;type&amp;quot;:&amp;quot;number&amp;quot;,&amp;quot;category&amp;quot;:&amp;quot;default&amp;quot;,&amp;quot;value&amp;quot;:&amp;quot;&amp;quot;},{&amp;quot;name&amp;quot;:&amp;quot;时间&amp;quot;,&amp;quot;id&amp;quot;:&amp;quot;zudlJcenjZ889133&amp;quot;,&amp;quot;type&amp;quot;:&amp;quot;number&amp;quot;,&amp;quot;category&amp;quot;:&amp;quot;default&amp;quot;,&amp;quot;value&amp;quot;:&amp;quot;&amp;quot;},{&amp;quot;name&amp;quot;:&amp;quot;部门&amp;quot;,&amp;quot;id&amp;quot;:&amp;quot;ZMEysaCZWo620304&amp;quot;,&amp;quot;type&amp;quot;:&amp;quot;string&amp;quot;,&amp;quot;category&amp;quot;:&amp;quot;default&amp;quot;,&amp;quot;value&amp;quot;:&amp;quot;&amp;quot;},{&amp;quot;name&amp;quot;:&amp;quot;输入&amp;quot;,&amp;quot;id&amp;quot;:&amp;quot;sKHVKZgGao020834&amp;quot;,&amp;quot;type&amp;quot;:&amp;quot;string&amp;quot;,&amp;quot;category&amp;quot;:&amp;quot;default&amp;quot;,&amp;quot;value&amp;quot;:&amp;quot;&amp;quot;},{&amp;quot;name&amp;quot;:&amp;quot;输出&amp;quot;,&amp;quot;id&amp;quot;:&amp;quot;GZOyHwGIwq266297&amp;quot;,&amp;quot;type&amp;quot;:&amp;quot;string&amp;quot;,&amp;quot;category&amp;quot;:&amp;quot;default&amp;quot;,&amp;quot;value&amp;quot;:&amp;quot;&amp;quot;},{&amp;quot;name&amp;quot;:&amp;quot;风险&amp;quot;,&amp;quot;id&amp;quot;:&amp;quot;GmYNkJLkaU361246&amp;quot;,&amp;quot;type&amp;quot;:&amp;quot;string&amp;quot;,&amp;quot;category&amp;quot;:&amp;quot;default&amp;quot;,&amp;quot;value&amp;quot;:&amp;quot;&amp;quot;},{&amp;quot;name&amp;quot;:&amp;quot;备注&amp;quot;,&amp;quot;id&amp;quot;:&amp;quot;xINudnXjsj617575&amp;quot;,&amp;quot;type&amp;quot;:&amp;quot;string&amp;quot;,&amp;quot;category&amp;quot;:&amp;quot;default&amp;quot;,&amp;quot;value&amp;quot;:&amp;quot;&amp;quot;}],&amp;quot;props&amp;quot;:{&amp;quot;zindex&amp;quot;:153,&amp;quot;w&amp;quot;:87.74286106654574,&amp;quot;x&amp;quot;:576.5714154924666,&amp;quot;h&amp;quot;:37.30000141688765,&amp;quot;y&amp;quot;:374.41428266252785,&amp;quot;angle&amp;quot;:0},&amp;quot;path&amp;quot;:[{&amp;quot;actions&amp;quot;:[{&amp;quot;x&amp;quot;:&amp;quot;0&amp;quot;,&amp;quot;action&amp;quot;:&amp;quot;move&amp;quot;,&amp;quot;y&amp;quot;:&amp;quot;0&amp;quot;},{&amp;quot;x&amp;quot;:&amp;quot;w&amp;quot;,&amp;quot;action&amp;quot;:&amp;quot;line&amp;quot;,&amp;quot;y&amp;quot;:&amp;quot;0&amp;quot;},{&amp;quot;x&amp;quot;:&amp;quot;w&amp;quot;,&amp;quot;action&amp;quot;:&amp;quot;line&amp;quot;,&amp;quot;y&amp;quot;:&amp;quot;h&amp;quot;},{&amp;quot;x&amp;quot;:&amp;quot;0&amp;quot;,&amp;quot;action&amp;quot;:&amp;quot;line&amp;quot;,&amp;quot;y&amp;quot;:&amp;quot;h&amp;quot;},{&amp;quot;action&amp;quot;:&amp;quot;close&amp;quot;}]}],&amp;quot;lineStyle&amp;quot;:{&amp;quot;lineWidth&amp;quot;:1.5},&amp;quot;children&amp;quot;:[],&amp;quot;resizeDir&amp;quot;:[&amp;quot;tl&amp;quot;,&amp;quot;tr&amp;quot;,&amp;quot;br&amp;quot;,&amp;quot;bl&amp;quot;,&amp;quot;l&amp;quot;,&amp;quot;t&amp;quot;,&amp;quot;r&amp;quot;,&amp;quot;b&amp;quot;],&amp;quot;name&amp;quot;:&amp;quot;process&amp;quot;,&amp;quot;fillStyle&amp;quot;:{},&amp;quot;theme&amp;quot;:{},&amp;quot;id&amp;quot;:&amp;quot;mNOqNTlWWZ493833&amp;quot;,&amp;quot;attribute&amp;quot;:{&amp;quot;container&amp;quot;:false,&amp;quot;rotatable&amp;quot;:true,&amp;quot;visible&amp;quot;:true,&amp;quot;fixedLink&amp;quot;:false,&amp;quot;collapsable&amp;quot;:false,&amp;quot;collapsed&amp;quot;:false,&amp;quot;linkable&amp;quot;:true,&amp;quot;markerOffset&amp;quot;:5},&amp;quot;category&amp;quot;:&amp;quot;flow&amp;quot;,&amp;quot;locked&amp;quot;:false,&amp;quot;group&amp;quot;:&amp;quot;&amp;quot;},{&amp;quot;parent&amp;quot;:&amp;quot;&amp;quot;,&amp;quot;link&amp;quot;:&amp;quot;&amp;quot;,&amp;quot;shapeStyle&amp;quot;:{&amp;quot;alpha&amp;quot;:1},&amp;quot;textBlock&amp;quot;:[{&amp;quot;position&amp;quot;:{&amp;quot;w&amp;quot;:&amp;quot;w&amp;quot;,&amp;quot;x&amp;quot;:0,&amp;quot;h&amp;quot;:&amp;quot;h&amp;quot;,&amp;quot;y&amp;quot;:0},&amp;quot;text&amp;quot;:&amp;quot;Y&amp;quot;}],&amp;quot;anchors&amp;quot;:[{&amp;quot;x&amp;quot;:&amp;quot;w/2&amp;quot;,&amp;quot;y&amp;quot;:&amp;quot;0&amp;quot;},{&amp;quot;x&amp;quot;:&amp;quot;w/2&amp;quot;,&amp;quot;y&amp;quot;:&amp;quot;h&amp;quot;},{&amp;quot;x&amp;quot;:&amp;quot;0&amp;quot;,&amp;quot;y&amp;quot;:&amp;quot;h/2&amp;quot;},{&amp;quot;x&amp;quot;:&amp;quot;w&amp;quot;,&amp;quot;y&amp;quot;:&amp;quot;h/2&amp;quot;}],&amp;quot;title&amp;quot;:&amp;quot;文本&amp;quot;,&amp;quot;fontStyle&amp;quot;:{},&amp;quot;dataAttributes&amp;quot;:[{&amp;quot;name&amp;quot;:&amp;quot;序号&amp;quot;,&amp;quot;id&amp;quot;:&amp;quot;kIOtZXLZkv050761&amp;quot;,&amp;quot;type&amp;quot;:&amp;quot;number&amp;quot;,&amp;quot;category&amp;quot;:&amp;quot;default&amp;quot;,&amp;quot;value&amp;quot;:&amp;quot;&amp;quot;},{&amp;quot;name&amp;quot;:&amp;quot;名称&amp;quot;,&amp;quot;id&amp;quot;:&amp;quot;PdEgbHyqIH350174&amp;quot;,&amp;quot;type&amp;quot;:&amp;quot;string&amp;quot;,&amp;quot;category&amp;quot;:&amp;quot;default&amp;quot;,&amp;quot;value&amp;quot;:&amp;quot;&amp;quot;},{&amp;quot;name&amp;quot;:&amp;quot;所有者&amp;quot;,&amp;quot;id&amp;quot;:&amp;quot;KtzYIYemIA099580&amp;quot;,&amp;quot;type&amp;quot;:&amp;quot;string&amp;quot;,&amp;quot;category&amp;quot;:&amp;quot;default&amp;quot;,&amp;quot;value&amp;quot;:&amp;quot;&amp;quot;},{&amp;quot;name&amp;quot;:&amp;quot;连接&amp;quot;,&amp;quot;id&amp;quot;:&amp;quot;eNAvTeEFCy013957&amp;quot;,&amp;quot;type&amp;quot;:&amp;quot;link&amp;quot;,&amp;quot;category&amp;quot;:&amp;quot;default&amp;quot;,&amp;quot;value&amp;quot;:&amp;quot;&amp;quot;},{&amp;quot;name&amp;quot;:&amp;quot;便笺&amp;quot;,&amp;quot;id&amp;quot;:&amp;quot;GTIuSZDEmA113664&amp;quot;,&amp;quot;type&amp;quot;:&amp;quot;string&amp;quot;,&amp;quot;category&amp;quot;:&amp;quot;default&amp;quot;,&amp;quot;value&amp;quot;:&amp;quot;&amp;quot;}],&amp;quot;props&amp;quot;:{&amp;quot;zindex&amp;quot;:154,&amp;quot;w&amp;quot;:100,&amp;quot;x&amp;quot;:506.31427655901234,&amp;quot;h&amp;quot;:40,&amp;quot;y&amp;quot;:263.91428266252785,&amp;quot;angle&amp;quot;:0},&amp;quot;path&amp;quot;:[{&amp;quot;lineStyle&amp;quot;:{&amp;quot;lineWidth&amp;quot;:0},&amp;quot;fillStyle&amp;quot;:{&amp;quot;type&amp;quot;:&amp;quot;none&amp;quot;},&amp;quot;actions&amp;quot;:[{&amp;quot;x&amp;quot;:&amp;quot;0&amp;quot;,&amp;quot;action&amp;quot;:&amp;quot;move&amp;quot;,&amp;quot;y&amp;quot;:&amp;quot;0&amp;quot;},{&amp;quot;x&amp;quot;:&amp;quot;w&amp;quot;,&amp;quot;action&amp;quot;:&amp;quot;line&amp;quot;,&amp;quot;y&amp;quot;:&amp;quot;0&amp;quot;},{&amp;quot;x&amp;quot;:&amp;quot;w&amp;quot;,&amp;quot;action&amp;quot;:&amp;quot;line&amp;quot;,&amp;quot;y&amp;quot;:&amp;quot;h&amp;quot;},{&amp;quot;x&amp;quot;:&amp;quot;0&amp;quot;,&amp;quot;action&amp;quot;:&amp;quot;line&amp;quot;,&amp;quot;y&amp;quot;:&amp;quot;h&amp;quot;},{&amp;quot;action&amp;quot;:&amp;quot;close&amp;quot;}]}],&amp;quot;lineStyle&amp;quot;:{&amp;quot;lineWidth&amp;quot;:1.5},&amp;quot;children&amp;quot;:[],&amp;quot;resizeDir&amp;quot;:[&amp;quot;tl&amp;quot;,&amp;quot;tr&amp;quot;,&amp;quot;br&amp;quot;,&amp;quot;bl&amp;quot;,&amp;quot;l&amp;quot;,&amp;quot;t&amp;quot;,&amp;quot;r&amp;quot;,&amp;quot;b&amp;quot;],&amp;quot;name&amp;quot;:&amp;quot;text&amp;quot;,&amp;quot;fillStyle&amp;quot;:{},&amp;quot;theme&amp;quot;:{},&amp;quot;id&amp;quot;:&amp;quot;sEJYKvLULH794277&amp;quot;,&amp;quot;attribute&amp;quot;:{&amp;quot;container&amp;quot;:false,&amp;quot;rotatable&amp;quot;:true,&amp;quot;visible&amp;quot;:true,&amp;quot;fixedLink&amp;quot;:false,&amp;quot;collapsable&amp;quot;:false,&amp;quot;collapsed&amp;quot;:false,&amp;quot;linkable&amp;quot;:true,&amp;quot;markerOffset&amp;quot;:5},&amp;quot;category&amp;quot;:&amp;quot;basic&amp;quot;,&amp;quot;locked&amp;quot;:false,&amp;quot;group&amp;quot;:&amp;quot;&amp;quot;},{&amp;quot;parent&amp;quot;:&amp;quot;&amp;quot;,&amp;quot;link&amp;quot;:&amp;quot;&amp;quot;,&amp;quot;shapeStyle&amp;quot;:{&amp;quot;alpha&amp;quot;:1},&amp;quot;textBlock&amp;quot;:[{&amp;quot;position&amp;quot;:{&amp;quot;w&amp;quot;:&amp;quot;w-20&amp;quot;,&amp;quot;x&amp;quot;:10,&amp;quot;h&amp;quot;:&amp;quot;h&amp;quot;,&amp;quot;y&amp;quot;:0},&amp;quot;text&amp;quot;:&amp;quot;获取回调地址&amp;quot;}],&amp;quot;anchors&amp;quot;:[{&amp;quot;x&amp;quot;:&amp;quot;w/2&amp;quot;,&amp;quot;y&amp;quot;:&amp;quot;0&amp;quot;},{&amp;quot;x&amp;quot;:&amp;quot;w/2&amp;quot;,&amp;quot;y&amp;quot;:&amp;quot;h&amp;quot;},{&amp;quot;x&amp;quot;:&amp;quot;0&amp;quot;,&amp;quot;y&amp;quot;:&amp;quot;h/2&amp;quot;},{&amp;quot;x&amp;quot;:&amp;quot;w&amp;quot;,&amp;quot;y&amp;quot;:&amp;quot;h/2&amp;quot;}],&amp;quot;title&amp;quot;:&amp;quot;矩形&amp;quot;,&amp;quot;fontStyle&amp;quot;:{},&amp;quot;dataAttributes&amp;quot;:[{&amp;quot;name&amp;quot;:&amp;quot;序号&amp;quot;,&amp;quot;id&amp;quot;:&amp;quot;uRpBCaKrvf412019&amp;quot;,&amp;quot;type&amp;quot;:&amp;quot;number&amp;quot;,&amp;quot;category&amp;quot;:&amp;quot;default&amp;quot;,&amp;quot;value&amp;quot;:&amp;quot;&amp;quot;},{&amp;quot;name&amp;quot;:&amp;quot;名称&amp;quot;,&amp;quot;id&amp;quot;:&amp;quot;fgJmjuCcAp641612&amp;quot;,&amp;quot;type&amp;quot;:&amp;quot;string&amp;quot;,&amp;quot;category&amp;quot;:&amp;quot;default&amp;quot;,&amp;quot;value&amp;quot;:&amp;quot;&amp;quot;},{&amp;quot;name&amp;quot;:&amp;quot;所有者&amp;quot;,&amp;quot;id&amp;quot;:&amp;quot;QAIoAjoRxO481348&amp;quot;,&amp;quot;type&amp;quot;:&amp;quot;string&amp;quot;,&amp;quot;category&amp;quot;:&amp;quot;default&amp;quot;,&amp;quot;value&amp;quot;:&amp;quot;&amp;quot;},{&amp;quot;name&amp;quot;:&amp;quot;连接&amp;quot;,&amp;quot;id&amp;quot;:&amp;quot;CJXHWknRjy595279&amp;quot;,&amp;quot;type&amp;quot;:&amp;quot;link&amp;quot;,&amp;quot;category&amp;quot;:&amp;quot;default&amp;quot;,&amp;quot;value&amp;quot;:&amp;quot;&amp;quot;},{&amp;quot;name&amp;quot;:&amp;quot;便笺&amp;quot;,&amp;quot;id&amp;quot;:&amp;quot;McAcHwpdsr338987&amp;quot;,&amp;quot;type&amp;quot;:&amp;quot;string&amp;quot;,&amp;quot;category&amp;quot;:&amp;quot;default&amp;quot;,&amp;quot;value&amp;quot;:&amp;quot;&amp;quot;}],&amp;quot;props&amp;quot;:{&amp;quot;zindex&amp;quot;:155,&amp;quot;w&amp;quot;:96,&amp;quot;x&amp;quot;:440.31427655901234,&amp;quot;h&amp;quot;:54,&amp;quot;y&amp;quot;:281.41428266252785,&amp;quot;angle&amp;quot;:0},&amp;quot;path&amp;quot;:[{&amp;quot;actions&amp;quot;:[{&amp;quot;x&amp;quot;:&amp;quot;0&amp;quot;,&amp;quot;action&amp;quot;:&amp;quot;move&amp;quot;,&amp;quot;y&amp;quot;:&amp;quot;0&amp;quot;},{&amp;quot;x&amp;quot;:&amp;quot;w&amp;quot;,&amp;quot;action&amp;quot;:&amp;quot;line&amp;quot;,&amp;quot;y&amp;quot;:&amp;quot;0&amp;quot;},{&amp;quot;x&amp;quot;:&amp;quot;w&amp;quot;,&amp;quot;action&amp;quot;:&amp;quot;line&amp;quot;,&amp;quot;y&amp;quot;:&amp;quot;h&amp;quot;},{&amp;quot;x&amp;quot;:&amp;quot;0&amp;quot;,&amp;quot;action&amp;quot;:&amp;quot;line&amp;quot;,&amp;quot;y&amp;quot;:&amp;quot;h&amp;quot;},{&amp;quot;action&amp;quot;:&amp;quot;close&amp;quot;}]}],&amp;quot;lineStyle&amp;quot;:{&amp;quot;lineWidth&amp;quot;:1.5},&amp;quot;children&amp;quot;:[],&amp;quot;resizeDir&amp;quot;:[&amp;quot;tl&amp;quot;,&amp;quot;tr&amp;quot;,&amp;quot;br&amp;quot;,&amp;quot;bl&amp;quot;,&amp;quot;l&amp;quot;,&amp;quot;t&amp;quot;,&amp;quot;r&amp;quot;,&amp;quot;b&amp;quot;],&amp;quot;name&amp;quot;:&amp;quot;rectangle&amp;quot;,&amp;quot;fillStyle&amp;quot;:{},&amp;quot;theme&amp;quot;:{},&amp;quot;id&amp;quot;:&amp;quot;qAaxLVAaYp463888&amp;quot;,&amp;quot;attribute&amp;quot;:{&amp;quot;container&amp;quot;:false,&amp;quot;rotatable&amp;quot;:true,&amp;quot;visible&amp;quot;:true,&amp;quot;fixedLink&amp;quot;:false,&amp;quot;collapsable&amp;quot;:false,&amp;quot;collapsed&amp;quot;:false,&amp;quot;linkable&amp;quot;:true,&amp;quot;markerOffset&amp;quot;:5},&amp;quot;category&amp;quot;:&amp;quot;basic&amp;quot;,&amp;quot;locked&amp;quot;:false,&amp;quot;group&amp;quot;:&amp;quot;&amp;quot;},{&amp;quot;textBlock&amp;quot;:[],&amp;quot;points&amp;quot;:[{&amp;quot;x&amp;quot;:430.31427655901234,&amp;quot;y&amp;quot;:308.41428266252785},{&amp;quot;x&amp;quot;:430.31427655901234,&amp;quot;y&amp;quot;:308.41428266252785}],&amp;quot;dataAttributes&amp;quot;:[],&amp;quot;props&amp;quot;:{&amp;quot;zindex&amp;quot;:156},&amp;quot;linkerType&amp;quot;:&amp;quot;broken&amp;quot;,&amp;quot;lineStyle&amp;quot;:{&amp;quot;lineWidth&amp;quot;:1.5},&amp;quot;name&amp;quot;:&amp;quot;linker&amp;quot;,&amp;quot;from&amp;quot;:{&amp;quot;x&amp;quot;:440.31427655901234,&amp;quot;y&amp;quot;:308.41428266252785,&amp;quot;angle&amp;quot;:0,&amp;quot;id&amp;quot;:&amp;quot;qAaxLVAaYp463888&amp;quot;},&amp;quot;id&amp;quot;:&amp;quot;tyYAWaxoVr712304&amp;quot;,&amp;quot;text&amp;quot;:&amp;quot;&amp;quot;,&amp;quot;to&amp;quot;:{&amp;quot;x&amp;quot;:420.31427655901234,&amp;quot;y&amp;quot;:308.41428266252785,&amp;quot;angle&amp;quot;:3.5081117965086026,&amp;quot;id&amp;quot;:&amp;quot;NMjGbkPFIR313423&amp;quot;},&amp;quot;locked&amp;quot;:false,&amp;quot;group&amp;quot;:&amp;quot;&amp;quot;},{&amp;quot;textBlock&amp;quot;:[],&amp;quot;points&amp;quot;:[{&amp;quot;x&amp;quot;:308.81427655901234,&amp;quot;y&amp;quot;:308.41428266252785},{&amp;quot;x&amp;quot;:308.81427655901234,&amp;quot;y&amp;quot;:308.41428266252785}],&amp;quot;dataAttributes&amp;quot;:[],&amp;quot;props&amp;quot;:{&amp;quot;zindex&amp;quot;:157},&amp;quot;linkerType&amp;quot;:&amp;quot;broken&amp;quot;,&amp;quot;lineStyle&amp;quot;:{&amp;quot;lineWidth&amp;quot;:1.5},&amp;quot;name&amp;quot;:&amp;quot;linker&amp;quot;,&amp;quot;from&amp;quot;:{&amp;quot;x&amp;quot;:324.31427655901234,&amp;quot;y&amp;quot;:308.41428266252785,&amp;quot;angle&amp;quot;:5.742133239061344,&amp;quot;id&amp;quot;:&amp;quot;NMjGbkPFIR313423&amp;quot;},&amp;quot;id&amp;quot;:&amp;quot;jBHXyuIQoy849327&amp;quot;,&amp;quot;text&amp;quot;:&amp;quot;&amp;quot;,&amp;quot;to&amp;quot;:{&amp;quot;x&amp;quot;:293.31427655901234,&amp;quot;y&amp;quot;:308.41428266252785,&amp;quot;angle&amp;quot;:3.1415926535897936,&amp;quot;id&amp;quot;:&amp;quot;TKKEyRTIPf494687&amp;quot;},&amp;quot;locked&amp;quot;:false,&amp;quot;group&amp;quot;:&amp;quot;&amp;quot;},{&amp;quot;textBlock&amp;quot;:[],&amp;quot;points&amp;quot;:[{&amp;quot;x&amp;quot;:181.22856031145372,&amp;quot;y&amp;quot;:308.41428266252785},{&amp;quot;x&amp;quot;:181.22856031145372,&amp;quot;y&amp;quot;:308.41428266252785}],&amp;quot;dataAttributes&amp;quot;:[],&amp;quot;props&amp;quot;:{&amp;quot;zindex&amp;quot;:160},&amp;quot;linkerType&amp;quot;:&amp;quot;broken&amp;quot;,&amp;quot;lineStyle&amp;quot;:{&amp;quot;lineWidth&amp;quot;:1.5},&amp;quot;name&amp;quot;:&amp;quot;linker&amp;quot;,&amp;quot;from&amp;quot;:{&amp;quot;x&amp;quot;:197.31427655901234,&amp;quot;y&amp;quot;:308.41428266252785,&amp;quot;angle&amp;quot;:0,&amp;quot;id&amp;quot;:&amp;quot;TKKEyRTIPf494687&amp;quot;},&amp;quot;id&amp;quot;:&amp;quot;ORkjpzKAGi835556&amp;quot;,&amp;quot;text&amp;quot;:&amp;quot;&amp;quot;,&amp;quot;to&amp;quot;:{&amp;quot;x&amp;quot;:165.1428440638951,&amp;quot;y&amp;quot;:308.41428266252785,&amp;quot;angle&amp;quot;:3.1415926535897936,&amp;quot;id&amp;quot;:&amp;quot;bLleVJWrHP353704&amp;quot;},&amp;quot;locked&amp;quot;:false,&amp;quot;group&amp;quot;:&amp;quot;&amp;quot;},{&amp;quot;parent&amp;quot;:&amp;quot;&amp;quot;,&amp;quot;link&amp;quot;:&amp;quot;&amp;quot;,&amp;quot;shapeStyle&amp;quot;:{&amp;quot;alpha&amp;quot;:1},&amp;quot;textBlock&amp;quot;:[{&amp;quot;position&amp;quot;:{&amp;quot;w&amp;quot;:&amp;quot;w-20&amp;quot;,&amp;quot;x&amp;quot;:10,&amp;quot;h&amp;quot;:&amp;quot;h&amp;quot;,&amp;quot;y&amp;quot;:0},&amp;quot;text&amp;quot;:&amp;quot;请求回调地址接口&amp;quot;}],&amp;quot;anchors&amp;quot;:[{&amp;quot;x&amp;quot;:&amp;quot;w/2&amp;quot;,&amp;quot;y&amp;quot;:&amp;quot;0&amp;quot;},{&amp;quot;x&amp;quot;:&amp;quot;w/2&amp;quot;,&amp;quot;y&amp;quot;:&amp;quot;h&amp;quot;},{&amp;quot;x&amp;quot;:&amp;quot;0&amp;quot;,&amp;quot;y&amp;quot;:&amp;quot;h/2&amp;quot;},{&amp;quot;x&amp;quot;:&amp;quot;w&amp;quot;,&amp;quot;y&amp;quot;:&amp;quot;h/2&amp;quot;}],&amp;quot;title&amp;quot;:&amp;quot;矩形&amp;quot;,&amp;quot;fontStyle&amp;quot;:{},&amp;quot;dataAttributes&amp;quot;:[{&amp;quot;name&amp;quot;:&amp;quot;序号&amp;quot;,&amp;quot;id&amp;quot;:&amp;quot;lXqCPPXMgg066153&amp;quot;,&amp;quot;type&amp;quot;:&amp;quot;number&amp;quot;,&amp;quot;category&amp;quot;:&amp;quot;default&amp;quot;,&amp;quot;value&amp;quot;:&amp;quot;&amp;quot;},{&amp;quot;name&amp;quot;:&amp;quot;名称&amp;quot;,&amp;quot;id&amp;quot;:&amp;quot;yrZiLvgheE469872&amp;quot;,&amp;quot;type&amp;quot;:&amp;quot;string&amp;quot;,&amp;quot;category&amp;quot;:&amp;quot;default&amp;quot;,&amp;quot;value&amp;quot;:&amp;quot;&amp;quot;},{&amp;quot;name&amp;quot;:&amp;quot;所有者&amp;quot;,&amp;quot;id&amp;quot;:&amp;quot;PJxnNahDsM912322&amp;quot;,&amp;quot;type&amp;quot;:&amp;quot;string&amp;quot;,&amp;quot;category&amp;quot;:&amp;quot;default&amp;quot;,&amp;quot;value&amp;quot;:&amp;quot;&amp;quot;},{&amp;quot;name&amp;quot;:&amp;quot;连接&amp;quot;,&amp;quot;id&amp;quot;:&amp;quot;hLTigYEHGX355972&amp;quot;,&amp;quot;type&amp;quot;:&amp;quot;link&amp;quot;,&amp;quot;category&amp;quot;:&amp;quot;default&amp;quot;,&amp;quot;value&amp;quot;:&amp;quot;&amp;quot;},{&amp;quot;name&amp;quot;:&amp;quot;便笺&amp;quot;,&amp;quot;id&amp;quot;:&amp;quot;VfzfVNPgmv647276&amp;quot;,&amp;quot;type&amp;quot;:&amp;quot;string&amp;quot;,&amp;quot;category&amp;quot;:&amp;quot;default&amp;quot;,&amp;quot;value&amp;quot;:&amp;quot;&amp;quot;}],&amp;quot;props&amp;quot;:{&amp;quot;zindex&amp;quot;:161,&amp;quot;w&amp;quot;:96,&amp;quot;x&amp;quot;:70.31427655901234,&amp;quot;h&amp;quot;:54,&amp;quot;y&amp;quot;:281.41428266252785,&amp;quot;angle&amp;quot;:0},&amp;quot;path&amp;quot;:[{&amp;quot;actions&amp;quot;:[{&amp;quot;x&amp;quot;:&amp;quot;0&amp;quot;,&amp;quot;action&amp;quot;:&amp;quot;move&amp;quot;,&amp;quot;y&amp;quot;:&amp;quot;0&amp;quot;},{&amp;quot;x&amp;quot;:&amp;quot;w&amp;quot;,&amp;quot;action&amp;quot;:&amp;quot;line&amp;quot;,&amp;quot;y&amp;quot;:&amp;quot;0&amp;quot;},{&amp;quot;x&amp;quot;:&amp;quot;w&amp;quot;,&amp;quot;action&amp;quot;:&amp;quot;line&amp;quot;,&amp;quot;y&amp;quot;:&amp;quot;h&amp;quot;},{&amp;quot;x&amp;quot;:&amp;quot;0&amp;quot;,&amp;quot;action&amp;quot;:&amp;quot;line&amp;quot;,&amp;quot;y&amp;quot;:&amp;quot;h&amp;quot;},{&amp;quot;action&amp;quot;:&amp;quot;close&amp;quot;}]}],&amp;quot;lineStyle&amp;quot;:{&amp;quot;lineWidth&amp;quot;:1.5},&amp;quot;children&amp;quot;:[],&amp;quot;resizeDir&amp;quot;:[&amp;quot;tl&amp;quot;,&amp;quot;tr&amp;quot;,&amp;quot;br&amp;quot;,&amp;quot;bl&amp;quot;,&amp;quot;l&amp;quot;,&amp;quot;t&amp;quot;,&amp;quot;r&amp;quot;,&amp;quot;b&amp;quot;],&amp;quot;name&amp;quot;:&amp;quot;rectangle&amp;quot;,&amp;quot;fillStyle&amp;quot;:{},&amp;quot;theme&amp;quot;:{},&amp;quot;id&amp;quot;:&amp;quot;bLleVJWrHP353704&amp;quot;,&amp;quot;attribute&amp;quot;:{&amp;quot;container&amp;quot;:false,&amp;quot;rotatable&amp;quot;:true,&amp;quot;visible&amp;quot;:true,&amp;quot;fixedLink&amp;quot;:false,&amp;quot;collapsable&amp;quot;:false,&amp;quot;collapsed&amp;quot;:false,&amp;quot;linkable&amp;quot;:true,&amp;quot;markerOffset&amp;quot;:5},&amp;quot;category&amp;quot;:&amp;quot;basic&amp;quot;,&amp;quot;locked&amp;quot;:false,&amp;quot;group&amp;quot;:&amp;quot;&amp;quot;},{&amp;quot;textBlock&amp;quot;:[],&amp;quot;points&amp;quot;:[{&amp;quot;x&amp;quot;:118.31427655901234,&amp;quot;y&amp;quot;:356.51428113664895},{&amp;quot;x&amp;quot;:118.31427655901234,&amp;quot;y&amp;quot;:356.51428113664895}],&amp;quot;dataAttributes&amp;quot;:[],&amp;quot;props&amp;quot;:{&amp;quot;zindex&amp;quot;:162},&amp;quot;linkerType&amp;quot;:&amp;quot;broken&amp;quot;,&amp;quot;lineStyle&amp;quot;:{&amp;quot;lineWidth&amp;quot;:1.5},&amp;quot;name&amp;quot;:&amp;quot;linker&amp;quot;,&amp;quot;from&amp;quot;:{&amp;quot;x&amp;quot;:118.31427655901234,&amp;quot;y&amp;quot;:335.41428266252785,&amp;quot;angle&amp;quot;:4.71238898038469,&amp;quot;id&amp;quot;:&amp;quot;bLleVJWrHP353704&amp;quot;},&amp;quot;id&amp;quot;:&amp;quot;dEoZXzFNsR837802&amp;quot;,&amp;quot;text&amp;quot;:&amp;quot;&amp;quot;,&amp;quot;to&amp;quot;:{&amp;quot;x&amp;quot;:118.31427655901234,&amp;quot;y&amp;quot;:377.61427961077004,&amp;quot;angle&amp;quot;:null,&amp;quot;id&amp;quot;:null},&amp;quot;locked&amp;quot;:false,&amp;quot;group&amp;quot;:&amp;quot;&amp;quot;}],&amp;quot;client&amp;quot;:&amp;quot;1704007529717DZImQuBOHt713225&amp;quot;}&quot;&gt; &lt;/div&gt;" style="text;whiteSpace=wrap;html=1;" parent="1" vertex="1">
          <mxGeometry x="-130" y="270" width="30" height="20" as="geometry" />
        </mxCell>
        <mxCell id="nyrZ7xyKviwGAj6536Cd-3" style="edgeStyle=orthogonalEdgeStyle;rounded=0;orthogonalLoop=1;jettySize=auto;html=1;exitX=1;exitY=0.5;exitDx=0;exitDy=0;" parent="1" source="nyrZ7xyKviwGAj6536Cd-2" edge="1">
          <mxGeometry relative="1" as="geometry">
            <mxPoint x="-560" y="240" as="targetPoint" />
          </mxGeometry>
        </mxCell>
        <mxCell id="nyrZ7xyKviwGAj6536Cd-2" value="获取机构和医院的诊断优先权(目前以医院id)" style="rounded=0;whiteSpace=wrap;html=1;" parent="1" vertex="1">
          <mxGeometry x="-710" y="210" width="120" height="60" as="geometry" />
        </mxCell>
        <mxCell id="nyrZ7xyKviwGAj6536Cd-61" style="edgeStyle=orthogonalEdgeStyle;rounded=0;orthogonalLoop=1;jettySize=auto;html=1;exitX=1;exitY=0.5;exitDx=0;exitDy=0;entryX=0;entryY=0.5;entryDx=0;entryDy=0;" parent="1" source="nyrZ7xyKviwGAj6536Cd-4" target="nyrZ7xyKviwGAj6536Cd-6" edge="1">
          <mxGeometry relative="1" as="geometry" />
        </mxCell>
        <mxCell id="nyrZ7xyKviwGAj6536Cd-4" value="按每个患者的诊断信息中study信息中的切片数进行从大到小的排序且进行" style="rounded=0;whiteSpace=wrap;html=1;" parent="1" vertex="1">
          <mxGeometry x="-560" y="210" width="120" height="60" as="geometry" />
        </mxCell>
        <mxCell id="nyrZ7xyKviwGAj6536Cd-17" style="edgeStyle=orthogonalEdgeStyle;rounded=0;orthogonalLoop=1;jettySize=auto;html=1;exitX=0.5;exitY=0;exitDx=0;exitDy=0;" parent="1" source="nyrZ7xyKviwGAj6536Cd-6" target="nyrZ7xyKviwGAj6536Cd-18" edge="1">
          <mxGeometry relative="1" as="geometry">
            <mxPoint x="-275" y="160" as="targetPoint" />
          </mxGeometry>
        </mxCell>
        <mxCell id="nyrZ7xyKviwGAj6536Cd-6" value="&lt;font face=&quot;微软雅黑&quot; color=&quot;#323232&quot;&gt;&lt;span style=&quot;font-size: 13px;&quot;&gt;按要求进行筛选&lt;/span&gt;&lt;/font&gt;" style="rounded=0;whiteSpace=wrap;html=1;" parent="1" vertex="1">
          <mxGeometry x="-390" y="200" width="150" height="80" as="geometry" />
        </mxCell>
        <mxCell id="nyrZ7xyKviwGAj6536Cd-9" style="edgeStyle=orthogonalEdgeStyle;rounded=0;orthogonalLoop=1;jettySize=auto;html=1;exitX=1;exitY=0.5;exitDx=0;exitDy=0;" parent="1" source="nyrZ7xyKviwGAj6536Cd-8" target="nyrZ7xyKviwGAj6536Cd-10" edge="1">
          <mxGeometry relative="1" as="geometry">
            <mxPoint x="60" y="110" as="targetPoint" />
          </mxGeometry>
        </mxCell>
        <mxCell id="nyrZ7xyKviwGAj6536Cd-8" value="脑中卒情况时，不做诊断流程，推送诊断状态" style="rounded=0;whiteSpace=wrap;html=1;" parent="1" vertex="1">
          <mxGeometry x="-120" y="102.5" width="150" height="60" as="geometry" />
        </mxCell>
        <mxCell id="nyrZ7xyKviwGAj6536Cd-12" value="" style="edgeStyle=orthogonalEdgeStyle;rounded=0;orthogonalLoop=1;jettySize=auto;html=1;" parent="1" source="nyrZ7xyKviwGAj6536Cd-10" target="nyrZ7xyKviwGAj6536Cd-11" edge="1">
          <mxGeometry relative="1" as="geometry" />
        </mxCell>
        <mxCell id="nyrZ7xyKviwGAj6536Cd-10" value="转成png（主要是本地）" style="rounded=0;whiteSpace=wrap;html=1;" parent="1" vertex="1">
          <mxGeometry x="60" y="102.5" width="50" height="60" as="geometry" />
        </mxCell>
        <mxCell id="clQpYxTP0ZbaPar7ZiiF-3" style="edgeStyle=orthogonalEdgeStyle;rounded=0;orthogonalLoop=1;jettySize=auto;html=1;exitX=1;exitY=0.5;exitDx=0;exitDy=0;entryX=0;entryY=0.5;entryDx=0;entryDy=0;" parent="1" source="nyrZ7xyKviwGAj6536Cd-11" target="clQpYxTP0ZbaPar7ZiiF-1" edge="1">
          <mxGeometry relative="1" as="geometry" />
        </mxCell>
        <mxCell id="nyrZ7xyKviwGAj6536Cd-11" value="&lt;span style=&quot;background-color: rgb(255, 255, 255);&quot;&gt;&lt;font color=&quot;#ff3333&quot;&gt;保存dcm信息，（收图并数据保存入库）&lt;/font&gt;&lt;/span&gt;" style="whiteSpace=wrap;html=1;rounded=0;" parent="1" vertex="1">
          <mxGeometry x="155" y="102.5" width="125" height="60" as="geometry" />
        </mxCell>
        <mxCell id="nyrZ7xyKviwGAj6536Cd-19" style="edgeStyle=orthogonalEdgeStyle;rounded=0;orthogonalLoop=1;jettySize=auto;html=1;exitX=1;exitY=0.5;exitDx=0;exitDy=0;entryX=0;entryY=0.5;entryDx=0;entryDy=0;" parent="1" source="nyrZ7xyKviwGAj6536Cd-18" target="nyrZ7xyKviwGAj6536Cd-8" edge="1">
          <mxGeometry relative="1" as="geometry" />
        </mxCell>
        <mxCell id="nyrZ7xyKviwGAj6536Cd-18" value="&#xa;&lt;span style=&quot;color: rgb(0, 0, 0); font-family: Helvetica; font-size: 12px; font-style: normal; font-variant-ligatures: normal; font-variant-caps: normal; font-weight: 400; letter-spacing: normal; orphans: 2; text-align: center; text-indent: 0px; text-transform: none; widows: 2; word-spacing: 0px; -webkit-text-stroke-width: 0px; background-color: rgb(251, 251, 251); text-decoration-thickness: initial; text-decoration-style: initial; text-decoration-color: initial; float: none; display: inline !important;&quot;&gt;层厚&amp;gt;3mm或序列信息中切片数量&amp;lt;10或者检查部位是头或脊柱的情况下直接返回异常，记录日志&lt;/span&gt;&#xa;&#xa;" style="rounded=0;whiteSpace=wrap;html=1;" parent="1" vertex="1">
          <mxGeometry x="-413" y="100" width="195" height="65" as="geometry" />
        </mxCell>
        <mxCell id="nyrZ7xyKviwGAj6536Cd-21" value="" style="edgeStyle=orthogonalEdgeStyle;rounded=0;orthogonalLoop=1;jettySize=auto;html=1;exitX=1;exitY=0.5;exitDx=0;exitDy=0;" parent="1" source="nyrZ7xyKviwGAj6536Cd-6" target="nyrZ7xyKviwGAj6536Cd-16" edge="1">
          <mxGeometry relative="1" as="geometry">
            <mxPoint x="-120" y="240" as="targetPoint" />
            <mxPoint x="-240" y="240" as="sourcePoint" />
          </mxGeometry>
        </mxCell>
        <mxCell id="nyrZ7xyKviwGAj6536Cd-23" value="" style="edgeStyle=orthogonalEdgeStyle;rounded=0;orthogonalLoop=1;jettySize=auto;html=1;" parent="1" source="nyrZ7xyKviwGAj6536Cd-16" edge="1">
          <mxGeometry relative="1" as="geometry">
            <mxPoint x="10" y="240" as="targetPoint" />
          </mxGeometry>
        </mxCell>
        <mxCell id="nyrZ7xyKviwGAj6536Cd-31" style="edgeStyle=orthogonalEdgeStyle;rounded=0;orthogonalLoop=1;jettySize=auto;html=1;exitX=0.5;exitY=1;exitDx=0;exitDy=0;" parent="1" source="nyrZ7xyKviwGAj6536Cd-16" edge="1">
          <mxGeometry relative="1" as="geometry">
            <mxPoint x="-125" y="320" as="targetPoint" />
            <Array as="points">
              <mxPoint x="-125" y="320" />
            </Array>
          </mxGeometry>
        </mxCell>
        <mxCell id="nyrZ7xyKviwGAj6536Cd-16" value="筛选后是否有序列" style="rhombus;whiteSpace=wrap;html=1;" parent="1" vertex="1">
          <mxGeometry x="-210" y="200" width="170" height="80" as="geometry" />
        </mxCell>
        <mxCell id="nyrZ7xyKviwGAj6536Cd-24" value="N" style="text;html=1;strokeColor=none;fillColor=none;align=center;verticalAlign=middle;whiteSpace=wrap;rounded=0;" parent="1" vertex="1">
          <mxGeometry x="-50" y="210" width="60" height="30" as="geometry" />
        </mxCell>
        <mxCell id="nyrZ7xyKviwGAj6536Cd-27" value="" style="edgeStyle=orthogonalEdgeStyle;rounded=0;orthogonalLoop=1;jettySize=auto;html=1;" parent="1" source="nyrZ7xyKviwGAj6536Cd-25" edge="1">
          <mxGeometry relative="1" as="geometry">
            <mxPoint x="120" y="240" as="targetPoint" />
          </mxGeometry>
        </mxCell>
        <mxCell id="nyrZ7xyKviwGAj6536Cd-25" value="上传类型是否为oss" style="rhombus;whiteSpace=wrap;html=1;" parent="1" vertex="1">
          <mxGeometry x="10" y="200" width="80" height="80" as="geometry" />
        </mxCell>
        <mxCell id="nyrZ7xyKviwGAj6536Cd-35" style="edgeStyle=orthogonalEdgeStyle;rounded=0;orthogonalLoop=1;jettySize=auto;html=1;exitX=1;exitY=0.5;exitDx=0;exitDy=0;" parent="1" source="nyrZ7xyKviwGAj6536Cd-28" edge="1">
          <mxGeometry relative="1" as="geometry">
            <mxPoint x="230" y="240" as="targetPoint" />
          </mxGeometry>
        </mxCell>
        <mxCell id="nyrZ7xyKviwGAj6536Cd-28" value="模态不属于&#39;dr&#39;,&amp;nbsp;&#39;dx&#39;" style="rhombus;whiteSpace=wrap;html=1;" parent="1" vertex="1">
          <mxGeometry x="120" y="200" width="80" height="80" as="geometry" />
        </mxCell>
        <mxCell id="nyrZ7xyKviwGAj6536Cd-29" value="Y" style="text;html=1;strokeColor=none;fillColor=none;align=center;verticalAlign=middle;whiteSpace=wrap;rounded=0;" parent="1" vertex="1">
          <mxGeometry x="70" y="210" width="60" height="30" as="geometry" />
        </mxCell>
        <mxCell id="nyrZ7xyKviwGAj6536Cd-33" value="Y" style="text;html=1;strokeColor=none;fillColor=none;align=center;verticalAlign=middle;whiteSpace=wrap;rounded=0;" parent="1" vertex="1">
          <mxGeometry x="-110" y="280" width="60" height="30" as="geometry" />
        </mxCell>
        <mxCell id="nyrZ7xyKviwGAj6536Cd-36" value="N" style="text;html=1;strokeColor=none;fillColor=none;align=center;verticalAlign=middle;whiteSpace=wrap;rounded=0;" parent="1" vertex="1">
          <mxGeometry x="180" y="200" width="60" height="30" as="geometry" />
        </mxCell>
        <mxCell id="nyrZ7xyKviwGAj6536Cd-38" style="edgeStyle=orthogonalEdgeStyle;rounded=0;orthogonalLoop=1;jettySize=auto;html=1;exitX=1;exitY=0.5;exitDx=0;exitDy=0;" parent="1" source="nyrZ7xyKviwGAj6536Cd-37" edge="1">
          <mxGeometry relative="1" as="geometry">
            <mxPoint x="350" y="240" as="targetPoint" />
          </mxGeometry>
        </mxCell>
        <mxCell id="nyrZ7xyKviwGAj6536Cd-39" style="edgeStyle=orthogonalEdgeStyle;rounded=0;orthogonalLoop=1;jettySize=auto;html=1;exitX=0.5;exitY=1;exitDx=0;exitDy=0;" parent="1" source="nyrZ7xyKviwGAj6536Cd-37" edge="1">
          <mxGeometry relative="1" as="geometry">
            <mxPoint x="270" y="310" as="targetPoint" />
          </mxGeometry>
        </mxCell>
        <mxCell id="nyrZ7xyKviwGAj6536Cd-47" style="edgeStyle=orthogonalEdgeStyle;rounded=0;orthogonalLoop=1;jettySize=auto;html=1;exitX=0.5;exitY=1;exitDx=0;exitDy=0;entryX=0;entryY=0.5;entryDx=0;entryDy=0;" parent="1" source="nyrZ7xyKviwGAj6536Cd-37" target="nyrZ7xyKviwGAj6536Cd-44" edge="1">
          <mxGeometry relative="1" as="geometry" />
        </mxCell>
        <mxCell id="nyrZ7xyKviwGAj6536Cd-37" value="study存在镜像信息" style="rhombus;whiteSpace=wrap;html=1;" parent="1" vertex="1">
          <mxGeometry x="230" y="200" width="80" height="80" as="geometry" />
        </mxCell>
        <mxCell id="nyrZ7xyKviwGAj6536Cd-42" value="" style="edgeStyle=orthogonalEdgeStyle;rounded=0;orthogonalLoop=1;jettySize=auto;html=1;" parent="1" source="nyrZ7xyKviwGAj6536Cd-40" target="nyrZ7xyKviwGAj6536Cd-41" edge="1">
          <mxGeometry relative="1" as="geometry" />
        </mxCell>
        <mxCell id="nyrZ7xyKviwGAj6536Cd-40" value="&lt;span style=&quot;background-color: rgb(255, 255, 255);&quot;&gt;&lt;font color=&quot;#ff3333&quot;&gt;按所存在镜像方式推报告&lt;/font&gt;&lt;/span&gt;" style="rounded=0;whiteSpace=wrap;html=1;" parent="1" vertex="1">
          <mxGeometry x="350" y="210" width="80" height="60" as="geometry" />
        </mxCell>
        <mxCell id="nyrZ7xyKviwGAj6536Cd-41" value="结束" style="whiteSpace=wrap;html=1;rounded=0;" parent="1" vertex="1">
          <mxGeometry x="490" y="210" width="60" height="60" as="geometry" />
        </mxCell>
        <mxCell id="nyrZ7xyKviwGAj6536Cd-51" style="edgeStyle=orthogonalEdgeStyle;rounded=0;orthogonalLoop=1;jettySize=auto;html=1;exitX=1;exitY=0.5;exitDx=0;exitDy=0;entryX=0.5;entryY=1;entryDx=0;entryDy=0;" parent="1" source="nyrZ7xyKviwGAj6536Cd-44" target="nyrZ7xyKviwGAj6536Cd-41" edge="1">
          <mxGeometry relative="1" as="geometry" />
        </mxCell>
        <mxCell id="nyrZ7xyKviwGAj6536Cd-44" value="&lt;span style=&quot;background-color: rgb(255, 255, 255);&quot;&gt;&lt;font color=&quot;#ff3333&quot;&gt;其他方式请求回调函数得到数据&lt;/font&gt;&lt;/span&gt;" style="rounded=0;whiteSpace=wrap;html=1;" parent="1" vertex="1">
          <mxGeometry x="350" y="290" width="80" height="60" as="geometry" />
        </mxCell>
        <mxCell id="nyrZ7xyKviwGAj6536Cd-48" value="Y" style="text;html=1;strokeColor=none;fillColor=none;align=center;verticalAlign=middle;whiteSpace=wrap;rounded=0;" parent="1" vertex="1">
          <mxGeometry x="290" y="200" width="60" height="30" as="geometry" />
        </mxCell>
        <mxCell id="nyrZ7xyKviwGAj6536Cd-49" value="N" style="text;html=1;strokeColor=none;fillColor=none;align=center;verticalAlign=middle;whiteSpace=wrap;rounded=0;" parent="1" vertex="1">
          <mxGeometry x="280" y="290" width="60" height="30" as="geometry" />
        </mxCell>
        <mxCell id="nyrZ7xyKviwGAj6536Cd-76" style="edgeStyle=orthogonalEdgeStyle;rounded=0;orthogonalLoop=1;jettySize=auto;html=1;exitX=0.5;exitY=0;exitDx=0;exitDy=0;entryX=0.5;entryY=0;entryDx=0;entryDy=0;" parent="1" source="nyrZ7xyKviwGAj6536Cd-52" target="nyrZ7xyKviwGAj6536Cd-62" edge="1">
          <mxGeometry relative="1" as="geometry" />
        </mxCell>
        <mxCell id="sbJti9NWakjB-vuBJhsQ-2" style="edgeStyle=orthogonalEdgeStyle;rounded=0;orthogonalLoop=1;jettySize=auto;html=1;exitX=0.5;exitY=1;exitDx=0;exitDy=0;entryX=0.5;entryY=0;entryDx=0;entryDy=0;" edge="1" parent="1" source="nyrZ7xyKviwGAj6536Cd-52" target="nyrZ7xyKviwGAj6536Cd-53">
          <mxGeometry relative="1" as="geometry">
            <mxPoint x="-315" y="430" as="targetPoint" />
          </mxGeometry>
        </mxCell>
        <mxCell id="sbJti9NWakjB-vuBJhsQ-9" style="edgeStyle=orthogonalEdgeStyle;rounded=0;orthogonalLoop=1;jettySize=auto;html=1;exitX=0.5;exitY=1;exitDx=0;exitDy=0;entryX=0;entryY=0.5;entryDx=0;entryDy=0;" edge="1" parent="1" source="nyrZ7xyKviwGAj6536Cd-52" target="sbJti9NWakjB-vuBJhsQ-8">
          <mxGeometry relative="1" as="geometry" />
        </mxCell>
        <mxCell id="nyrZ7xyKviwGAj6536Cd-52" value="上传方式为oss（线上美年使用）" style="rounded=0;whiteSpace=wrap;html=1;" parent="1" vertex="1">
          <mxGeometry x="-375" y="340" width="120" height="60" as="geometry" />
        </mxCell>
        <mxCell id="nyrZ7xyKviwGAj6536Cd-55" style="edgeStyle=orthogonalEdgeStyle;rounded=0;orthogonalLoop=1;jettySize=auto;html=1;exitX=0.5;exitY=1;exitDx=0;exitDy=0;" parent="1" source="nyrZ7xyKviwGAj6536Cd-53" target="nyrZ7xyKviwGAj6536Cd-56" edge="1">
          <mxGeometry relative="1" as="geometry">
            <mxPoint x="-315" y="590" as="targetPoint" />
          </mxGeometry>
        </mxCell>
        <mxCell id="sbJti9NWakjB-vuBJhsQ-5" style="edgeStyle=orthogonalEdgeStyle;rounded=0;orthogonalLoop=1;jettySize=auto;html=1;exitX=1;exitY=0.5;exitDx=0;exitDy=0;entryX=0.5;entryY=0;entryDx=0;entryDy=0;" edge="1" parent="1" source="nyrZ7xyKviwGAj6536Cd-53" target="nyrZ7xyKviwGAj6536Cd-58">
          <mxGeometry relative="1" as="geometry" />
        </mxCell>
        <mxCell id="nyrZ7xyKviwGAj6536Cd-53" value="若要进行线上诊断或者模态不为ct" style="rhombus;whiteSpace=wrap;html=1;rounded=0;" parent="1" vertex="1">
          <mxGeometry x="-408" y="470" width="185" height="60" as="geometry" />
        </mxCell>
        <mxCell id="clQpYxTP0ZbaPar7ZiiF-4" style="edgeStyle=orthogonalEdgeStyle;rounded=0;orthogonalLoop=1;jettySize=auto;html=1;exitX=0.5;exitY=1;exitDx=0;exitDy=0;" parent="1" source="nyrZ7xyKviwGAj6536Cd-56" target="clQpYxTP0ZbaPar7ZiiF-5" edge="1">
          <mxGeometry relative="1" as="geometry">
            <mxPoint x="-315" y="600" as="targetPoint" />
          </mxGeometry>
        </mxCell>
        <mxCell id="nyrZ7xyKviwGAj6536Cd-56" value="&lt;span style=&quot;background-color: rgb(255, 255, 255);&quot;&gt;&lt;font color=&quot;#ff3333&quot;&gt;oss异步下载dcm图，优先级为传入值&lt;/font&gt;&lt;/span&gt;" style="rounded=0;whiteSpace=wrap;html=1;" parent="1" vertex="1">
          <mxGeometry x="-375" y="562" width="120" height="40" as="geometry" />
        </mxCell>
        <mxCell id="nyrZ7xyKviwGAj6536Cd-57" value="Y" style="text;html=1;align=center;verticalAlign=middle;resizable=0;points=[];autosize=1;strokeColor=none;fillColor=none;" parent="1" vertex="1">
          <mxGeometry x="-350" y="530" width="30" height="30" as="geometry" />
        </mxCell>
        <mxCell id="sbJti9NWakjB-vuBJhsQ-3" style="edgeStyle=orthogonalEdgeStyle;rounded=0;orthogonalLoop=1;jettySize=auto;html=1;exitX=0.5;exitY=1;exitDx=0;exitDy=0;entryX=1;entryY=0.5;entryDx=0;entryDy=0;" edge="1" parent="1" source="nyrZ7xyKviwGAj6536Cd-58" target="clQpYxTP0ZbaPar7ZiiF-5">
          <mxGeometry relative="1" as="geometry" />
        </mxCell>
        <mxCell id="nyrZ7xyKviwGAj6536Cd-58" value="&lt;font color=&quot;#ff3333&quot;&gt;oss异步下载dcm图，优先级为6&lt;/font&gt;" style="whiteSpace=wrap;html=1;rounded=0;" parent="1" vertex="1">
          <mxGeometry x="-240" y="542" width="70" height="60" as="geometry" />
        </mxCell>
        <mxCell id="nyrZ7xyKviwGAj6536Cd-60" value="N" style="text;html=1;align=center;verticalAlign=middle;resizable=0;points=[];autosize=1;strokeColor=none;fillColor=none;" parent="1" vertex="1">
          <mxGeometry x="-248" y="512" width="30" height="30" as="geometry" />
        </mxCell>
        <mxCell id="utMOgL3VeRpXyG8V6-nv-17" style="edgeStyle=orthogonalEdgeStyle;rounded=0;orthogonalLoop=1;jettySize=auto;html=1;exitX=0.5;exitY=1;exitDx=0;exitDy=0;entryX=0.5;entryY=0;entryDx=0;entryDy=0;" parent="1" source="nyrZ7xyKviwGAj6536Cd-62" target="nyrZ7xyKviwGAj6536Cd-64" edge="1">
          <mxGeometry relative="1" as="geometry" />
        </mxCell>
        <mxCell id="nyrZ7xyKviwGAj6536Cd-62" value="上传方式为本地上传（线下医院使用）" style="rounded=0;whiteSpace=wrap;html=1;" parent="1" vertex="1">
          <mxGeometry x="-70" y="340" width="120" height="60" as="geometry" />
        </mxCell>
        <mxCell id="nyrZ7xyKviwGAj6536Cd-67" style="edgeStyle=orthogonalEdgeStyle;rounded=0;orthogonalLoop=1;jettySize=auto;html=1;exitX=0.5;exitY=1;exitDx=0;exitDy=0;" parent="1" source="nyrZ7xyKviwGAj6536Cd-64" target="nyrZ7xyKviwGAj6536Cd-65" edge="1">
          <mxGeometry relative="1" as="geometry" />
        </mxCell>
        <mxCell id="nyrZ7xyKviwGAj6536Cd-64" value="如上转成png流程" style="whiteSpace=wrap;html=1;" parent="1" vertex="1">
          <mxGeometry x="-70" y="420" width="120" height="60" as="geometry" />
        </mxCell>
        <mxCell id="utMOgL3VeRpXyG8V6-nv-19" style="edgeStyle=orthogonalEdgeStyle;rounded=0;orthogonalLoop=1;jettySize=auto;html=1;exitX=0.5;exitY=1;exitDx=0;exitDy=0;entryX=0.5;entryY=0;entryDx=0;entryDy=0;" parent="1" source="nyrZ7xyKviwGAj6536Cd-65" target="nyrZ7xyKviwGAj6536Cd-73" edge="1">
          <mxGeometry relative="1" as="geometry" />
        </mxCell>
        <mxCell id="nyrZ7xyKviwGAj6536Cd-65" value="保存dcm信息，（收图并数据保存入库）" style="whiteSpace=wrap;html=1;rounded=0;" parent="1" vertex="1">
          <mxGeometry x="-72.5" y="510" width="125" height="52" as="geometry" />
        </mxCell>
        <mxCell id="utMOgL3VeRpXyG8V6-nv-13" style="edgeStyle=orthogonalEdgeStyle;rounded=0;orthogonalLoop=1;jettySize=auto;html=1;exitX=0.5;exitY=1;exitDx=0;exitDy=0;" parent="1" source="nyrZ7xyKviwGAj6536Cd-73" target="utMOgL3VeRpXyG8V6-nv-2" edge="1">
          <mxGeometry relative="1" as="geometry" />
        </mxCell>
        <mxCell id="nyrZ7xyKviwGAj6536Cd-73" value="&lt;span style=&quot;background-color: rgb(255, 255, 255);&quot;&gt;&lt;font color=&quot;#ff3333&quot;&gt;异步调度模型（同时让诊断服务器和阿里云同时下载图片）&lt;/font&gt;&lt;/span&gt;" style="rounded=0;whiteSpace=wrap;html=1;" parent="1" vertex="1">
          <mxGeometry x="-70" y="590" width="120" height="60" as="geometry" />
        </mxCell>
        <mxCell id="nyrZ7xyKviwGAj6536Cd-74" value="结束" style="whiteSpace=wrap;html=1;rounded=0;" parent="1" vertex="1">
          <mxGeometry x="-41.25" y="730" width="62.5" height="40" as="geometry" />
        </mxCell>
        <mxCell id="nyrZ7xyKviwGAj6536Cd-77" value="" style="endArrow=classic;html=1;rounded=0;" parent="1" edge="1">
          <mxGeometry width="50" height="50" relative="1" as="geometry">
            <mxPoint x="-315.5" y="320" as="sourcePoint" />
            <mxPoint x="-315.5" y="340" as="targetPoint" />
          </mxGeometry>
        </mxCell>
        <mxCell id="utMOgL3VeRpXyG8V6-nv-14" style="edgeStyle=orthogonalEdgeStyle;rounded=0;orthogonalLoop=1;jettySize=auto;html=1;exitX=0.5;exitY=1;exitDx=0;exitDy=0;entryX=0.5;entryY=0;entryDx=0;entryDy=0;" parent="1" source="utMOgL3VeRpXyG8V6-nv-2" target="nyrZ7xyKviwGAj6536Cd-74" edge="1">
          <mxGeometry relative="1" as="geometry" />
        </mxCell>
        <mxCell id="utMOgL3VeRpXyG8V6-nv-2" value="调用诊断结果" style="whiteSpace=wrap;html=1;" parent="1" vertex="1">
          <mxGeometry x="-70" y="680" width="120" height="30" as="geometry" />
        </mxCell>
        <mxCell id="clQpYxTP0ZbaPar7ZiiF-1" value="结束" style="whiteSpace=wrap;html=1;rounded=0;" parent="1" vertex="1">
          <mxGeometry x="320" y="102.5" width="45" height="60" as="geometry" />
        </mxCell>
        <mxCell id="sbJti9NWakjB-vuBJhsQ-11" style="edgeStyle=orthogonalEdgeStyle;rounded=0;orthogonalLoop=1;jettySize=auto;html=1;exitX=0.5;exitY=1;exitDx=0;exitDy=0;entryX=0.5;entryY=0;entryDx=0;entryDy=0;" edge="1" parent="1" source="clQpYxTP0ZbaPar7ZiiF-5" target="clQpYxTP0ZbaPar7ZiiF-11">
          <mxGeometry relative="1" as="geometry" />
        </mxCell>
        <mxCell id="clQpYxTP0ZbaPar7ZiiF-5" value="保存dcm信息，（收图并数据保存入库）" style="rounded=0;whiteSpace=wrap;html=1;" parent="1" vertex="1">
          <mxGeometry x="-375.5" y="620" width="120" height="40" as="geometry" />
        </mxCell>
        <mxCell id="clQpYxTP0ZbaPar7ZiiF-17" style="edgeStyle=orthogonalEdgeStyle;rounded=0;orthogonalLoop=1;jettySize=auto;html=1;exitX=1;exitY=0.5;exitDx=0;exitDy=0;entryX=0;entryY=0.5;entryDx=0;entryDy=0;" parent="1" source="clQpYxTP0ZbaPar7ZiiF-11" target="nyrZ7xyKviwGAj6536Cd-73" edge="1">
          <mxGeometry relative="1" as="geometry" />
        </mxCell>
        <mxCell id="clQpYxTP0ZbaPar7ZiiF-11" value="根据不同诊断类型更新不同数据库的信息（收图监测）" style="rounded=0;whiteSpace=wrap;html=1;" parent="1" vertex="1">
          <mxGeometry x="-375.5" y="690" width="120" height="40" as="geometry" />
        </mxCell>
        <mxCell id="sbJti9NWakjB-vuBJhsQ-10" style="edgeStyle=orthogonalEdgeStyle;rounded=0;orthogonalLoop=1;jettySize=auto;html=1;exitX=0.5;exitY=1;exitDx=0;exitDy=0;entryX=0.5;entryY=0;entryDx=0;entryDy=0;" edge="1" parent="1" source="sbJti9NWakjB-vuBJhsQ-8" target="nyrZ7xyKviwGAj6536Cd-58">
          <mxGeometry relative="1" as="geometry" />
        </mxCell>
        <mxCell id="sbJti9NWakjB-vuBJhsQ-8" value="云部署且线上诊断" style="whiteSpace=wrap;html=1;" vertex="1" parent="1">
          <mxGeometry x="-240" y="400" width="70" height="60" as="geometry" />
        </mxCell>
      </root>
    </mxGraphModel>
  </diagram>
</mxfile>
